<svg width="155" height="28" viewBox="0 0 155 28" fill="none" xmlns="http://www.w3.org/2000/svg">
<path d="M17.8083 1.64706L17.5215 1.44828L17.4068 1.50507H16.7472L16.6612 1.56187L16.6039 1.70385L16.4318 1.84584L16.2024 1.87424L15.6288 2.15821L15.5715 2.2718L15.1413 2.49899L14.5391 3.15213L14.3957 3.4929L14.195 3.57809L14.1377 3.69168L14.2237 3.97566L14.109 4.17444L13.8796 4.06085L13.7362 4.23124V4.60041L13.6215 4.6288L13.5068 4.79919L13.6788 5.02637L13.2487 5.28195L13.22 5.50913L13.3347 5.96349H13.1053L12.8472 6.27586L12.5031 7.12779L12.6465 7.29817L12.5318 7.49696L12.245 7.78093L12.1876 8.00811L12.2737 8.06491L12.5318 8.09331L12.5031 8.1785L12.0156 8.40568L12.0729 8.88844L11.9295 9.03043L11.7288 9.08722L11.7001 9.45639L11.6428 9.54158L11.3847 9.65517L11.4134 9.42799L11.6714 8.97363L11.7001 8.80325L11.4707 8.63286L11.4134 8.51927L11.4994 8.34888L11.2126 8.09331L11.3273 7.46856L11.1266 7.38337L11.0979 7.29817L11.1839 7.09939L10.9545 6.81542L10.7251 6.78702L10.6964 6.58823L10.4957 6.36105L10.295 6.38945V6.21907L9.66407 6.04868L9.6354 6.19067L9.86481 6.16227L9.89349 6.24746L9.66407 6.33266L9.31995 6.27586L9.14789 6.44625L8.8898 6.41785L8.63171 6.64503L8.4023 6.70183L8.31627 6.87221L7.82876 7.18458V7.32657L7.51332 7.55375L7.36993 8.06491L7.19787 8.09331L7.16919 8.26369L6.9111 8.46247L6.7964 8.66126L6.76772 8.94523L6.62434 9.08722L6.50963 9.3712L6.56698 9.45639L6.33757 9.54158L6.02212 9.99594L5.76403 9.82556L5.93609 9.65517L6.13683 9.22921L5.99345 9.00203L6.07948 8.77485L5.90742 8.49087L6.10815 8.34888L6.07948 8.1501L6.25154 7.97972L6.19418 7.86613L5.96477 7.75254L5.90742 7.66734L6.10815 7.46856L6.0508 7.35497L5.76403 7.21298L5.70668 7.12779V6.78702L5.93609 6.61663L5.99345 6.50304L5.56329 6.33266L5.93609 6.04868L5.79271 5.70791L5.50594 5.39554L5.64932 5.22515L5.59197 5.05477L5.39123 4.99797L5.3052 4.91278L5.27653 4.6856L4.93241 4.60041L4.87505 4.51521L4.93241 4.23124L4.87505 4.14604L4.70299 4.08925L4.61696 4.00406V3.80527L4.4449 3.69168H4.01475L3.55592 3.57809L3.29783 3.60649L3.06842 3.5213L2.66694 3.72008L2.40885 3.66329L1.92134 3.94726L1.89267 4.06085L1.72061 4.17444L1.66325 4.28803L1.69193 4.45842L1.63458 5.13996L1.54855 5.25355V5.36714L1.66325 5.28195H1.77796L1.80664 5.39554L1.54855 5.65112L1.6059 6.27586L1.66325 6.36105L1.49119 6.58823L1.77796 6.70183L1.46252 6.92901L1.54855 7.29817L1.40516 7.49696V7.63894L1.31913 7.61055L1.37649 7.83773L1.54855 8.1501V8.26369L1.34781 8.34888L1.2331 8.49087L1.43384 8.88844L1.31913 9.11562L1.26178 9.91075L1.31913 10.0243L1.2331 10.3367L1.06104 10.5923V10.7911L0.80295 11.3306L0.975011 11.7566L0.946334 11.8986L1.06104 12.1258L0.860303 12.3245L0.946334 12.6653L0.80295 13.0629L0.716919 13.1197L0.774273 13.3185L0.80295 14.1136L0.630889 14.5112L0.602212 14.7099L0.688243 14.8519L0.372798 15.9026L0.430152 16.1866L0.229414 16.5842L0.315445 17.2941L0.372798 17.3793L0.143384 17.7485L0.172061 18.0325L0 18.2312L0.200737 18.3732L0.114707 18.5436V18.7708L0.172061 18.8844L0.0573535 19.0264L0.114707 19.7079L0.344121 20.2475L0.258091 20.4746L0.487505 20.7018V21.0426L0.716919 21.497L0.659566 21.6673L0.80295 21.8377H1.17575L1.26178 21.9513L1.2331 22.0365L1.06104 22.1501L1.20442 22.2353L1.29045 22.0649L1.49119 22.0081L1.63458 22.1501L1.66325 22.4057L1.77796 22.6045L1.92134 22.4341L2.06473 22.6613L2.26547 22.6329V22.3205L2.66694 22.1785L2.69562 22.0649L3.03974 21.8093L3.12577 21.6105L3.09709 21.4686L3.41254 21.2414L3.44121 20.9858L3.52724 20.787L3.67063 20.645V20.1055L3.81401 19.9351L3.84269 19.8215L3.75666 19.5659L4.12946 19.4807L4.21549 19.3955L4.18681 19.1684L4.24416 19.0832L4.50225 19.14L4.55961 18.9128L4.30152 18.6572L4.73167 18.6288L4.93241 18.5436L4.90373 18.2312L5.27653 18.2028L5.3052 17.9757L5.04711 17.8905L5.01844 17.7485L5.07579 17.6349L5.44859 17.3793L5.3052 17.0385L4.93241 16.8682L5.07579 16.6978V16.4422L5.27653 16.3286L5.59197 16.0162H5.70668L5.87874 15.9026L5.79271 15.6755L5.99345 15.5619L6.0508 15.4483L6.02212 15.3347L5.85006 15.1927L5.79271 15.0791L6.02212 14.8803L6.0508 14.3976L5.96477 14.1136L6.22286 13.9432L6.25154 13.858L6.16551 13.5456L6.36624 13.2901L6.39492 13.1765L6.33757 13.0913L6.02212 13.0345L6.25154 12.5801V12.4381L6.39492 12.3813L6.4236 12.2961L6.25154 11.8702V11.7566L6.62434 11.9554L6.7964 11.8134L6.82507 11.7282L6.73904 11.4158L6.76772 11.3306L6.99713 11.359L7.08316 10.9899L6.82507 10.7627L6.7964 10.6207L6.9111 10.5355L7.14052 10.5639L7.19787 10.4787V10.2799L7.36993 10.1947L7.39861 10.0811L7.22655 9.85396L7.42729 9.59838L7.39861 9.45639L7.57067 9.3144L8.17288 8.43408L8.517 8.34888L8.60303 8.40568V8.66126L8.45965 8.88844L8.48833 9.11562L8.54568 9.20081V9.39959L8.43097 9.65517L8.60303 9.88235L8.45965 10.0811L8.54568 10.2799L8.43097 10.4787L8.54568 10.7911L8.517 11.0751L8.34494 11.359V11.8418L8.4023 12.0406L8.34494 12.4949L8.43097 12.7505L8.31627 13.3753L8.4023 13.4604L8.54568 14.1136L8.80377 14.4544L8.86112 14.6531L9.14789 15.1643L9.43466 15.5051L9.52069 15.7039V15.8458L9.66407 15.8742L9.83613 16.0162L10.0942 16.3854L10.2376 16.357L10.467 15.9594L10.5531 15.9026L10.8398 16.0446L11.1266 15.7039L11.442 15.5619L11.27 15.0791L11.6428 15.0507L11.6141 14.9087L11.442 14.7667L11.4134 14.6531L11.4707 14.568L11.6714 14.5963L11.7001 14.0568L11.7862 13.8864L11.7575 13.7444L12.0442 13.2901L11.9009 13.0345L12.1016 12.7505V12.5233L12.0442 12.3813L12.1876 11.9554L12.331 11.785L12.4457 11.7566L12.7612 11.3022L12.7325 11.1602L12.8185 10.9331L12.7612 10.6491L12.8759 10.5923L12.9619 10.6491H13.1053L13.1913 10.5355L13.0193 10.2231V10.1095L13.134 9.91075L13.4781 9.59838L13.5641 9.25761L13.5068 9.05882L13.2773 8.91683V8.63286L13.4207 8.60446L13.7362 8.86004L13.7649 8.66126L13.5928 8.23529L13.9656 7.80933V7.52535L14.2237 7.44016L14.1663 6.75862L14.3671 6.58823L14.3097 6.33266L14.6825 6.07708L14.5965 5.8783L14.7399 5.76471L14.8546 5.8783L14.7399 7.58215L14.4818 7.97972V8.23529L14.3097 8.37728V8.86004L14.109 9.08722V9.3712L14.2237 9.39959L14.3097 9.51318L14.109 9.56998L14.0803 9.68357L14.2237 9.85396L13.9369 10.1663V10.2515L13.7362 10.6491L13.7649 10.7343L13.8796 10.7911L14.109 10.6491L14.195 10.7627L14.0229 10.9615L13.9943 11.1886L13.9082 11.2454L13.8222 11.0183L13.7075 10.9899L13.6501 11.4726L13.7362 11.6998L13.9082 11.8418L13.8222 11.927L13.8796 11.9838L13.8509 12.1826L13.6788 12.2961L13.6215 12.4949L13.306 12.6937V12.9209L13.6215 12.8925L13.7075 13.0061L13.5641 13.2049L13.4207 13.2333L13.4781 13.4888L13.2773 13.5456L13.2487 13.8012L13.0479 14.1136L13.1053 14.3976L13.0193 14.5963L13.0766 15.0791L13.2773 15.1927L13.1913 15.4199L12.9906 15.4767L12.9332 15.931L12.9906 16.1582L12.8185 16.2718L12.7898 16.357L13.0193 16.5558L12.8759 16.8114L13.0193 17.0101L12.9332 17.1237L12.6751 17.0385L12.6178 17.1237L12.6751 17.4645L12.5604 17.8905L12.5891 17.9757L12.5318 18.2028L12.8185 18.6572L12.7612 18.856L12.6465 18.9128H12.4744L12.3884 18.9696L12.417 19.0832L12.8759 19.14L12.8472 19.2535L12.5318 19.5375L12.4457 19.7647L12.5318 20.2191L12.3884 20.3327L12.4457 20.5882L12.417 20.7302L12.4744 20.929L12.5604 21.0142L12.8185 21.071L12.5318 21.3266L12.5891 21.5254V21.8945L12.8472 21.9229L12.9046 22.0081L12.7898 22.1785L12.7612 22.3773L12.5891 22.6045L12.8759 22.8316V22.9452L13.0479 23.3428V23.57L13.3634 23.8824L13.3921 23.9959L13.5928 24.0527L13.6501 24.1379L13.5641 24.3935L13.7075 24.5355L13.9082 24.6207L13.9656 24.7059L13.7649 24.7911L13.8222 24.9331L14.1377 25.1034L14.109 25.3306L14.2524 25.501L14.3957 25.5294L14.4531 25.1602L14.8546 24.9899L15.084 24.9615L15.2847 25.1034H15.5141L15.8583 24.9331L16.1737 24.6491L16.5465 24.5355L16.5752 24.3083L16.4891 24.2231L16.2884 24.1663V23.7972L16.5752 23.6836L16.6325 23.57L16.4318 23.2008L16.5178 23.0588L16.4031 22.86L16.6039 22.6045L16.3744 22.4909L16.2024 22.6045L16.1163 22.4341L16.4891 22.2637L16.9193 22.3205L16.9767 22.2069L16.6039 22.0649V21.8661L16.7472 21.7241L16.5178 21.3266V21.0994L16.6612 20.929L16.8619 21.0426L16.948 20.9858L17.1774 20.9574L17.2634 20.787L17.2061 20.7302L17.0053 20.8438L16.7759 20.7586L16.6899 20.5882L16.7759 20.503L17.0053 20.5882L17.034 20.3327L17.4068 20.1339L17.6075 19.5091L17.4642 19.2819L17.7222 19.1116L17.7509 18.998L17.6649 18.9412H17.4355L17.0627 18.7424L16.9193 19.0264L16.8333 19.0548L16.948 19.2819L16.9193 19.3387H16.7759L16.6612 19.1968L16.7759 19.0264L16.6899 18.7992L16.7759 18.714L17.0053 18.6288L17.0914 18.3448L17.2347 18.3164L17.5215 18.5436V18.2028L17.3208 17.9473L17.1774 17.9189L17.12 17.8053L17.1774 17.7201H17.6362L17.4642 17.4077V17.0669L17.7509 16.8114V16.6978L17.4928 16.3854V16.2718L17.6075 16.073L17.8656 15.8174L17.7796 15.7606L17.7509 15.6471L18.095 15.4199L18.3531 15.3347L18.2958 15.1927L18.3818 14.9655L18.1237 14.6815L18.1524 14.5396L17.9803 14.1704L18.095 14.1988L18.1811 14.142L18.095 13.7444L18.1237 13.6308L17.8656 12.9777L18.0377 12.8641L18.1237 12.9209L18.1524 13.2617L18.3531 13.2901L18.3818 12.8641L18.4678 12.6369L18.2384 12.4665L18.2098 12.3529L18.3245 12.2394L18.2958 12.0122L18.3531 11.8134L18.1811 11.6998L18.1524 11.6146L18.3531 11.4158L18.0377 11.217L18.1811 11.0467H18.2958L18.4678 10.9331L18.2958 10.8479L18.2384 10.7343L18.3245 10.6491L18.5539 10.6207L18.7546 9.96754V9.71197L18.6112 9.51318V9.14402L18.4105 9.05882L18.4965 8.88844L18.812 8.77485V8.63286L18.9554 8.37728L18.8406 8.2069L18.5252 8.09331L18.4678 7.83773L18.2671 7.75254L18.1524 7.61055L18.3531 7.46856L18.5826 7.55375L18.8406 7.49696L18.8693 7.41177L18.5252 7.38337L18.4678 7.29817L18.5826 7.12779L18.7546 7.0426L19.1848 7.21298L19.2995 7.18458L19.3855 7.07099L19.1274 6.9858L18.9554 6.78702L18.9267 6.53144L18.7259 6.30426L18.8406 5.99189L18.7833 5.8215L18.9267 5.62272L18.6399 5.31034L18.7259 5.22515L19.0987 5.13996L18.812 4.54361L18.7833 4.28803L18.6973 4.08925L18.8693 3.94726L18.9267 3.83367L18.8406 3.74848L18.6112 3.69168L18.5539 3.60649L18.5826 3.40771L18.2098 3.15213L18.3531 3.01014L18.6399 3.18053L18.7546 3.15213L18.9267 2.95335L18.7546 2.78296L18.898 2.49899L18.5539 2.18661L18.3818 2.3286L18.1811 2.24341L18.1524 2.15821L18.2384 2.07302L18.3531 2.12982L18.4678 2.10142L18.4105 2.01623L18.2098 2.04462L18.1811 1.95943L18.009 1.84584L17.7509 1.93103L17.8083 1.73225V1.64706ZM16.5178 16.8682L16.7759 16.8966L17.0053 17.4361L16.9193 17.4929L16.7186 17.4645L16.6325 17.3793L16.6039 17.1237L16.5178 16.9533V16.8682ZM17.1774 15.4483L17.4928 15.5619V15.7323L17.4355 15.789H17.0627L16.8906 15.6187L17.12 15.5335L17.1774 15.4483ZM13.6215 18.7708L13.7649 18.7424L13.9369 18.856L13.9943 18.9696L13.9656 19.2252L13.7649 19.1684L13.6788 18.856L13.6215 18.7708ZM13.4207 21.4402L13.5068 21.355L13.8796 21.4686L13.9943 21.4118L13.9369 21.6389H13.6788L13.4781 21.5254L13.4207 21.4402ZM13.7075 15.5903L13.9656 15.5051L14.0229 15.6755L13.9943 15.789L13.8796 15.7606L13.6501 15.8174L13.7075 15.5903ZM13.5068 13.9716L13.5928 13.7444L13.6788 13.716L13.7649 13.7728L13.7362 13.9716L13.6788 14.0284H13.5641L13.5068 13.9716ZM15.8583 17.3793L15.8869 17.2657H16.0877L16.2024 17.4645H15.9156L15.8583 17.3793ZM13.7649 11.8418L13.6501 11.785L13.4494 11.8702L13.4207 11.9554L13.5068 12.069L13.7075 11.927L13.7649 11.8418ZM1.43384 8.60446L1.6059 8.26369L1.72061 8.32049L1.74928 8.43408L1.57722 8.57606L1.43384 8.60446ZM13.7362 20.1055L13.8796 19.9635L13.9943 19.9351L14.0229 20.1339L13.9656 20.2191L13.8222 20.1907L13.7362 20.1055ZM13.2773 18.6288H13.4781L13.5354 18.5436H13.6215V18.7424H13.306L13.2773 18.6288ZM17.7509 10.7627L17.8083 10.6491L17.9803 10.6775L18.0664 10.7627L17.9803 10.8479H17.837L17.7509 10.7627ZM16.6325 20.1339L16.7759 20.0203L16.8906 20.0487L16.9193 20.2191H16.6899L16.6325 20.1339ZM15.0553 15.7323L15.17 15.931L15.1413 16.073L14.9693 15.931V15.8174L15.0553 15.7323ZM16.7759 19.7647L16.948 19.6795L17.0914 19.7079L17.0627 19.8215L16.9767 19.8783L16.8619 19.8215L16.7759 19.7647ZM13.4781 21.071L13.5928 20.929L13.8222 20.9574L13.7935 21.0426L13.5641 21.0994L13.4781 21.071ZM17.837 14.9939V14.7667L17.9517 14.7383L18.0377 14.7951L17.9517 14.9655L17.837 14.9939ZM13.9656 14.0568L14.109 14.0852L14.2524 14.3408L14.0516 14.2556L13.9943 14.1704L13.9656 14.0568ZM13.8796 20.5882L13.7935 20.7018L13.6788 20.6734L13.6215 20.5598L13.6788 20.4462L13.7649 20.5314L13.8796 20.5882ZM16.0016 19.0832H16.2024L16.2597 19.1968L16.1737 19.2535L16.0303 19.2252L16.0016 19.0832ZM13.2773 16.641H13.4494L13.306 16.9533L13.2487 16.8682L13.2773 16.7546V16.641ZM16.6899 16.4422L16.7759 16.357H16.8619L16.948 16.4422L16.7759 16.5558L16.6899 16.4422ZM16.4605 13.0345L16.5465 12.9209L16.6612 12.8925V13.0061L16.5178 13.1481L16.4605 13.0345ZM18.0377 8.66126L18.0664 8.57606L18.2671 8.49087L18.2958 8.60446L18.1237 8.68966L18.0377 8.66126ZM14.8259 25.8134L14.7972 25.6998H14.5965L14.6252 25.8134L14.7685 25.8702L14.8259 25.8134ZM14.9693 13.5172L14.998 13.2901L15.1127 13.2617L15.1413 13.3753L15.084 13.4604L14.9693 13.5172ZM16.7472 17.9189L16.7759 17.8053H16.8619L16.9193 17.9189L16.8906 18.0325L16.8046 17.9757L16.7472 17.9189ZM14.0803 16.641L14.109 16.499L14.281 16.5274L14.2237 16.6694L14.0803 16.641ZM16.8906 21.071L16.8046 21.2982L16.948 21.3266V21.1562L16.8906 21.071ZM17.5789 11.9554L17.7796 11.9838L17.8083 12.0974L17.6075 12.069L17.5789 11.9554ZM19.1274 4.20284H19.0127L18.984 4.28803L19.0414 4.37323L19.1848 4.25963L19.1274 4.20284ZM14.7972 16.5558L15.0266 16.5274L14.9693 16.641L14.8259 16.6694L14.7972 16.5558ZM13.4207 16.215L13.4781 16.1014H13.6215L13.5928 16.215L13.5068 16.2434L13.4207 16.215ZM2.78165 22.5193V22.6329L2.86768 22.7181L2.95371 22.5761L2.78165 22.5193ZM12.0729 7.89452H11.8722L11.9009 8.00811L12.1016 7.95132L12.0729 7.89452ZM19.0414 3.23732L18.984 3.37931L19.1274 3.40771V3.32251L19.0414 3.23732ZM17.3781 9.93915L17.2634 9.88235L17.2921 9.76876L17.4068 9.82556L17.3781 9.93915ZM15.7436 25.2738H15.6002V25.359L15.7149 25.3874L15.7436 25.2738ZM15.0553 25.359V25.2454H14.9119L14.9406 25.3306L15.0553 25.359ZM17.6362 11.7566L17.6649 11.6146H17.7509V11.7282L17.6362 11.7566ZM16.3744 14.142H16.4605L16.5178 14.2556H16.4031L16.3744 14.142ZM15.5715 19.3387V19.2535L15.7149 19.3103L15.6575 19.3671L15.5715 19.3387ZM7.85744 8.37728H7.97214L7.94347 8.46247H7.85744V8.37728ZM17.2061 21.1846L17.2921 21.2982L17.3781 21.2414L17.3208 21.213L17.2061 21.1846ZM12.8472 21.071L12.9332 20.9574L13.0193 21.0142L12.8472 21.071ZM16.8619 23.854L16.8333 23.9391L16.8906 23.9959L16.9193 23.8824L16.8619 23.854ZM14.6252 11.1318L14.7972 11.1034L14.7399 11.1886L14.6252 11.1318ZM14.7972 12.5801L14.7399 12.5233L14.7685 12.4381L14.8259 12.4949L14.7972 12.5801ZM14.0803 17.7485H14.2237L14.0803 17.8337V17.7485ZM14.6825 5.53753L14.7112 5.45233L14.7972 5.53753H14.6825ZM17.6649 20.4179L17.7509 20.5314L17.7796 20.4746L17.6649 20.4179ZM15.7149 19.5943L15.6575 19.6511L15.6002 19.5659L15.7149 19.5943ZM15.6862 15.1643V15.0791L15.7722 15.1643H15.6862ZM6.13683 7.0142L6.22286 7.09939V7.0142H6.13683ZM12.5031 18.5436L12.417 18.572L12.5031 18.6288V18.5436ZM16.4031 20.2759V20.1907L16.4891 20.2475L16.4031 20.2759ZM6.30889 6.13387L6.28021 6.07708L6.19418 6.10548L6.30889 6.13387ZM15.1987 5.8215V5.76471L15.2847 5.8215H15.1987ZM17.8656 12.4381L17.8083 12.3529L17.8943 12.4097L17.8656 12.4381ZM17.2634 21.6673V21.6957L17.3781 21.6673H17.2634ZM18.812 14.3692V14.3976L18.9267 14.3692H18.812ZM15.6862 19.4807L15.7149 19.4239V19.4807H15.6862Z" fill="#F4ED3C"/>
<path d="M26.0927 10.6775L25.978 10.4787L25.7773 10.3367L25.7486 10.2515L24.917 9.91075L24.7449 9.93915L24.2574 9.82556L23.7986 10.1663L23.5978 10.2515L23.5118 10.4503L23.1677 10.8479L22.9383 10.9899L22.9096 11.217L22.8236 11.2738L22.5368 11.3022L22.2787 11.643L22.1927 11.8702L21.9919 11.9554L21.8772 12.069V12.3529L21.6192 12.3813L21.5618 12.4949L21.7339 12.6085L21.5905 12.7789L21.3897 12.7505L21.3037 12.8073L21.3324 12.9209L21.275 13.1481L20.9883 13.4888L20.9596 13.716L20.7302 13.9432L20.6441 13.9148L20.5581 13.9716L20.7015 14.142L20.7302 14.2556L20.6728 14.3408L20.386 14.4544L20.2427 14.9371L20.386 15.0791L20.3 15.1927L20.128 15.0791L20.0419 15.1075L19.8985 15.4199L20.0133 15.6471L19.8985 15.8174H19.7552L19.6118 16.357L19.6978 16.5842L19.5831 16.6978L19.5544 16.8114L19.7552 16.9817L19.8412 17.2373L19.6405 17.6349L19.6118 17.8621L19.6978 18.4016L19.8125 18.4584L20.0706 18.3448L20.0993 18.4584L20.0419 18.5436L19.8985 18.6004L19.8699 18.8844L20.0419 19.3955L20.0133 19.5375L20.2427 19.7363V19.9919L20.4721 20.3327V20.4462L20.6155 20.5882L21.0456 20.787H21.275L21.3037 20.929L21.2177 21.1562L21.275 21.2414H21.6192L21.9633 21.497L22.0493 21.6389V21.7525L22.2787 21.8661H22.4221L22.3934 21.6673L22.5655 21.5821L22.8809 21.5254L22.9956 21.6957L23.1964 21.7809L23.3111 22.0649L23.5118 22.1217L23.6552 22.0649L23.6839 22.1501L23.7986 22.2069L24.0854 22.0649L24.2001 22.1217L24.4008 21.9229L24.6302 21.9797L24.8023 21.9513L24.8883 22.1501L25.0317 22.0649L25.089 21.9513V21.6957L25.1751 21.6389H25.3758L25.4905 21.7809L25.7486 21.8377L26.0927 21.7241V21.5254L26.5802 21.4118V21.2982L26.5229 21.2414H26.2074L26.2361 21.0994L26.3795 20.9006L26.6089 20.8722L26.7523 21.1562L27.0104 20.9006L27.1251 20.8722L27.3258 20.7018L27.2685 20.6166L27.2972 20.4179H27.5266L27.6986 20.1907V20.0771L28.0714 19.8783L28.2722 19.6227L28.4729 19.5375V19.3387L28.7597 19.1684L28.817 18.9128L29.0464 18.572L29.2185 18.1744L29.4766 17.8905L29.5913 17.3509L30.0214 16.7546L29.8207 16.499L29.9067 16.2434L30.0501 16.073L30.0788 15.8458L29.9067 15.6755L29.9641 15.4767L29.8494 15.2779L29.8781 15.1643L29.792 14.8519L29.9641 14.7099L29.9928 14.5963L29.8207 14.3692L29.8781 14.0852L29.9641 14L30.3082 13.9716L30.6237 13.6024L30.8244 13.574L30.9104 13.6308L30.9391 13.3469L30.9965 13.2617L31.0825 13.574L31.1398 13.6308L31.7707 13.2049H31.9715L32.1149 13.2617L32.3156 12.8073L32.5163 13.1481L32.8891 12.8073L33.0899 12.8641L33.2046 12.6937L33.0325 12.5517L33.0899 12.4381L33.2046 12.5801L33.5487 12.3813L34.0362 12.4097L34.2083 12.3529V12.2394L34.5237 11.927L34.9252 11.8702L35.0972 11.4442L35.0686 11.2738L34.9825 11.217L34.7818 11.359L34.409 11.1886L34.0936 11.3306L33.5487 11.8702H32.8891L32.8031 12.2677L32.6597 12.0406L32.545 11.9838L32.0862 12.4665L31.8854 12.211L31.6273 12.4949L31.3406 12.4097L31.2832 12.4665L31.2545 12.7505L31.1972 12.8357L30.9965 12.7505L30.7957 12.5517L30.595 12.7505L30.4803 12.7221L30.1648 12.7789L30.0214 13.0345L29.8781 12.8641L29.6487 12.8925L29.2759 13.0345L29.1325 12.9209L29.0464 12.6937L28.8744 12.5517L28.7597 12.5233L28.6163 12.3245L28.5303 12.2961L28.4442 12.0974L28.2722 11.9838H28.0714L27.756 11.7282L27.4979 11.6998L27.4405 11.4726L27.1824 11.3874L27.0391 11.6998L26.9244 11.5578L26.8383 11.643H26.7236L26.6376 11.501L26.6949 11.2738L26.4369 11.1318L26.3508 11.0183V10.7911L26.2074 10.6775H26.0927ZM29.0178 14.2272H29.2185L29.2472 14.3408L29.1898 14.568L29.2759 14.8519L29.3906 15.0223L29.4479 15.4483L29.3045 15.6471L29.2759 15.8742L29.3332 15.9878V16.357L29.0178 16.6978L28.9891 16.8114L28.731 17.0101L28.4442 17.4077L28.2435 18.0609L27.5839 18.5152L27.5552 18.714L27.2111 19.1116L27.1538 19.2535L26.8096 19.5659L26.6376 19.5943L26.3508 19.9351L25.5192 20.5314L25.4332 20.4179L24.2574 20.9574L23.7126 20.8154L23.4831 20.6734L23.4545 20.4462L23.3971 20.3611L23.1677 20.5882L22.967 20.5314L23.053 20.3327H23.3971L23.2537 20.1623L22.967 20.0203L22.8523 19.4807L22.9096 19.3955L23.1103 19.4523L23.0243 19.14L23.053 18.998L22.8236 18.6572L23.0817 18.4868L23.1964 17.9473L22.9956 17.7485L23.139 17.5497H23.3684L23.4545 17.4645L23.4831 17.2657L23.6839 17.1521L23.8273 16.8114L23.7699 16.3286L24.2001 15.9594L24.2287 15.7039L24.4295 15.3063L24.5729 15.2779L24.6589 15.1927V14.9087L25.3471 14.3692V14.2556L25.4905 14.1136L25.6626 14.2556L25.8633 14.2272L26.0354 14.3408H26.1501L26.2361 14.2556L26.3795 14.426L26.5802 14.5396H27.1538L27.2111 14.3408L27.3832 14.3692L27.6126 14.284L28.3008 14.2272L28.4729 14.1136L28.5876 14.1704H28.9317L29.0178 14.2272ZM28.2722 13.0345L28.4442 13.2901L28.1288 13.3753L27.9567 13.2617L27.6986 13.2049H27.3258L26.867 12.8357L26.8383 12.6369L26.9244 12.6085L27.0391 12.6653H27.4405L27.6413 12.7789L27.9567 12.8357L28.1861 13.0061L28.2722 13.0345ZM21.5618 18.4016L21.6192 18.288L21.8199 18.2596L21.8772 18.3164L21.8486 18.43L21.7625 18.4868L21.6478 18.4584L21.5618 18.4016ZM21.9919 17.2089V17.0953L22.164 17.0385L22.1927 17.0953L22.1353 17.2373L21.9919 17.2089ZM21.9346 20.1055L22.078 19.9635L22.164 19.9919L22.1353 20.0771L22.0206 20.1339L21.9346 20.1055ZM21.5905 20.1055L21.7912 20.1339V20.1907L21.6765 20.2475L21.5905 20.1907V20.1055ZM25.978 13.7728L25.9207 13.6592L25.9493 13.5172L26.0354 13.574L26.0067 13.8012L25.978 13.7728ZM23.139 15.0791H23.053L22.9956 14.9939L23.053 14.9087L23.139 14.9939V15.0791ZM30.0788 15.1075L30.0501 15.2211L30.1648 15.2495L30.2222 15.1359L30.0788 15.1075ZM23.5405 17.6065L23.4831 17.6917L23.5692 17.7769L23.6265 17.7485L23.5978 17.6633L23.5405 17.6065ZM26.867 20.7586L26.953 20.7018L27.0391 20.7586L26.953 20.8438L26.867 20.7586ZM26.3221 11.3022L26.4655 11.359L26.4369 11.4442L26.3508 11.3874L26.3221 11.3022ZM29.1611 16.073L29.0464 16.1014L29.0751 16.1866L29.1611 16.073ZM21.2464 12.7221L21.189 12.8357L21.275 12.7789L21.2464 12.7221ZM33.5487 12.6085L33.4627 12.6369L33.5487 12.6653V12.6085ZM22.967 15.6471L23.0243 15.5903V15.6471H22.967Z" fill="#F4ED3C"/>
<path d="M35.0791 7.26978L34.821 7.24138L34.2761 7.32657L33.846 7.63894H33.7026L33.6166 7.86613L33.4158 8.00811L33.1577 8.09331L32.9857 8.23529L32.957 8.34888L32.4982 8.77485L32.3548 9.14402L32.1827 9.25761L32.1541 9.45639L31.896 9.79716L31.7813 10.9047L31.896 11.3306L31.9246 11.8986L32.2114 12.2394L32.2401 12.3813L32.3548 12.4381L32.4982 12.8925L32.6989 13.0913L32.785 13.3185L33.0144 13.4888L33.2151 13.8012L33.5305 13.9432L33.5879 14.1988L34.0754 14.5963L34.1614 14.7667L34.3335 14.9087L34.3622 15.0223L34.5629 15.1359L34.6776 15.3631L34.821 15.5051L35.0504 15.4199L35.1364 15.5051L35.0791 15.6471L35.1078 15.7606L35.4232 16.1014L35.4519 16.3286L35.3945 16.641L35.1938 16.6694L35.0791 16.9817L34.8784 17.0385L34.7923 17.2373H34.5916L34.4482 17.4077L34.0181 17.6065L33.9894 17.8621L33.7026 18.146L33.5019 18.2312L33.3585 18.3732L33.3011 18.6004L33.2151 18.6572L33.2438 18.7708L33.1864 18.856L33.043 18.8844L32.9857 18.9696L33.1004 19.1968L33.0717 19.2535L32.785 19.1116L32.7276 19.1684L32.7563 19.3955L32.4982 19.5375L32.5555 19.7647L32.4982 19.9351L32.3261 20.0487L32.0967 20.0771L32.0394 20.1339L32.2401 20.1907L32.2688 20.2759L31.896 20.4746L31.8673 20.645L31.9533 21.0426L31.7813 21.355L31.8099 21.4686L31.982 21.6389L31.896 21.8093L32.0394 21.9513L32.068 22.3773L32.2401 22.6329V22.8032L32.4122 22.9452L32.5269 23.144L32.6989 23.2576L32.8136 23.4564L32.9857 23.57L33.2151 23.5416V23.3428L33.3011 23.3144L33.3872 23.4848L33.3585 23.5984L33.4445 23.7972L33.6739 23.8256L33.8173 23.7688L33.9607 23.9391L34.0754 23.9959L34.3048 23.9107L34.4195 23.9675L34.6203 23.8824L34.7923 24.0243L35.1078 24.0811L35.2225 24.0243L35.2798 24.1095L35.2225 24.3367L35.3372 24.4787L35.4519 24.4219V24.1379L35.5379 24.1095L35.7387 24.1663L35.9681 23.9391H36.2262L36.4556 23.712L36.6563 23.9107L36.7423 23.854L36.8571 23.6552L37.0578 23.7688L37.3446 23.57L37.5453 23.5984L37.6313 23.3712H37.8894L38.1475 22.9736L38.1188 22.8316L38.1762 22.7465L38.2622 22.8032L38.3482 23.0588L38.4343 23.0304V22.8316L38.4916 22.7465L38.5203 22.2353L38.6924 22.3489H38.8357L38.9505 22.0649L39.0652 22.0081L39.2659 22.0649L39.3232 21.9797L39.3519 21.7525L39.4093 21.6673L39.61 21.6389L39.6674 21.5538V21.355L39.61 21.2414L39.6961 21.1846L39.8394 20.645L40.0402 20.5314L40.1836 20.3327L40.0689 19.9919L40.0975 19.7647L40.2122 19.5659L40.3269 19.6227L40.4703 19.5943L40.413 19.1684L40.4417 19.0548L40.3556 18.8844L40.3843 18.6572L40.2696 18.6288L40.1549 18.4584L40.0689 18.1176L40.1836 18.0609L40.413 18.0892L40.4417 18.0041L40.3556 17.8053L40.413 17.6065L40.3556 17.2657L40.0975 17.0669L39.8968 16.5274L39.6674 16.5842L39.4953 15.9594L39.2659 15.8742L39.1225 15.7323V15.6187L39.3519 15.3915V15.2779L39.61 15.1359L39.7821 14.9087L40.5564 14.4828L40.6424 14.3124H40.7571L40.9292 14.1988L41.1012 13.9432H41.2446L41.3593 13.8012L41.5027 13.9432L41.6461 13.9716L41.6748 13.7444L41.7608 13.6592L41.9615 13.8012L42.2483 13.6308V13.5172L42.3343 13.4037H42.5064L42.7645 13.1765L43.0226 13.0345L43.1946 13.1481L43.2807 13.1197L43.3954 12.9493L43.424 12.6937L43.8255 12.5517L43.9689 12.3813L44.227 12.4949L44.313 12.4381L44.3417 12.211L44.2843 11.9838L44.4277 11.9554L44.6571 12.1826L44.7432 12.1258L44.8005 11.8702L44.8866 11.785L45.0873 11.927L45.1733 11.7282L45.1446 11.4726L45.0873 11.3874L44.9439 11.359L44.6858 11.1886L44.5998 11.2454L44.4851 11.4726L44.399 11.5294L44.313 11.4726H43.8829L43.5387 11.7282L43.338 11.785L43.252 11.9838L43.1659 12.0406L42.8792 12.069L42.6498 12.2961L42.449 12.3813L42.2483 12.6369H42.0476L41.7608 12.8641L41.6461 12.8925L41.5314 13.0629L41.1872 13.2901L40.8431 13.4037L40.7571 13.6024L40.585 13.7444L40.3843 13.574L40.2983 13.6308L40.2122 14.1136L40.0115 13.9716L39.8108 14.0568L39.6961 14.2272H39.4953L38.721 14.7099L38.4916 14.7951H38.3482L38.3196 14.5963L38.2049 14.3692V14L38.0902 13.9432L37.9181 14.1136L37.8321 14.0568L37.7747 13.858V13.5172H37.4593L37.2872 13.3753L37.2585 13.1765L37.1151 13.3469L37.0004 13.4037L36.9144 13.3185L36.7997 12.7789L36.7137 12.8641L36.685 13.0629L36.771 13.2617L36.6276 13.4604L36.599 13.6876L36.771 13.9432L36.7423 14.0568L36.6276 14.1136L36.4556 13.6592V13.3185L36.3409 13.1481L36.4556 12.9209V12.5801L36.3695 12.4949L36.2548 12.5233L36.2835 12.8641L36.0254 12.8357L35.882 12.7221L35.8534 12.5233L36.0254 12.2394V12.1258L35.9394 12.069H35.5379L35.5666 11.8418L35.4806 11.643L35.3659 11.5862L35.1364 11.643V11.4726L35.2798 11.3022L35.4806 11.1886L35.4519 10.9331L35.5666 10.7343L35.796 10.8763L35.882 10.6775L35.9967 10.0811L35.9394 9.88235L36.0828 9.74037H36.2835L36.3409 9.62677L36.2548 9.56998L36.0541 9.62677L36.0254 9.48479L36.1115 9.286L36.4556 9.05882L36.1975 8.66126L36.1688 8.51927L36.3409 8.26369L36.0541 8.09331L35.9107 7.80933L35.6239 7.86613L35.5092 7.80933L35.4519 7.69574L35.5092 7.61055L35.4806 7.38337L35.3372 7.24138L35.1364 7.46856L35.0217 7.52535L35.0504 7.41177L35.0791 7.26978ZM35.4519 17.1521L35.6813 17.1237L35.9681 16.9533L35.9107 17.4077L35.9681 17.5781V18.6004L35.7387 19.7079V20.1055L35.5379 20.503V20.6166L35.796 20.7018L35.71 20.929L35.5379 21.0994L35.5666 21.2982L35.5092 21.355L35.4232 21.2982L35.5092 20.9574L35.4232 20.8438L35.2225 20.9858L35.1938 21.1846L35.0504 21.5254L34.821 21.6105L34.5916 21.8661L34.7923 22.1501L34.7063 22.2921L34.5342 22.0365L34.5629 21.8945H34.4195L34.2475 22.0365L34.1614 22.2637L34.0467 22.2353L33.6453 22.3489L33.3585 22.1785L33.3011 22.0081H33.1577L33.2438 21.7241L33.1577 21.3834L33.2438 21.1278L33.1864 20.929L33.2725 20.787L33.2151 20.3043L33.3298 20.1339L33.4445 20.0771L33.5592 19.5091L33.7026 19.4807L33.76 19.2819L33.846 19.2535L34.1901 18.4868L34.3048 18.4584L34.2475 17.9473L34.3048 17.8621L34.5342 18.146L34.8497 17.8053L34.9644 17.7485L35.0217 17.4361H35.1651L35.4519 17.1521ZM34.3622 10.7911L34.2475 10.7627L34.0181 10.4503L33.8173 10.3651L33.6739 10.1947L33.6166 9.76876L33.5019 9.68357L33.3585 9.88235L33.2438 9.82556L33.2151 9.62677L33.3872 9.17241H33.6166L33.7026 9.05882L33.6739 8.94523L33.4158 8.68966L33.4445 8.57606L33.932 8.40568L34.2188 8.2069L34.735 8.34888L35.1938 9.00203L35.1364 9.65517L34.9931 10.1379L34.7636 10.5639L34.4769 10.7627L34.3622 10.7911ZM35.3659 21.5821L35.5953 21.5538L35.7673 21.6389L35.796 21.7525L35.5953 21.8093L35.5379 21.9513L35.3945 21.8945L35.4519 21.7525L35.3945 21.6673L35.3659 21.5821ZM38.8931 19.5659L38.8644 19.3103L38.9791 19.2535L39.0078 19.3955L38.9218 19.6227V19.7647L38.8357 19.8499L38.721 19.7363L38.7784 19.6227L38.8931 19.5659ZM36.0541 14.8803L35.9967 14.6815L36.0541 14.5963L36.1975 14.6531V14.7951L36.1115 14.8519L36.0541 14.8803ZM33.3872 10.5355L33.2725 10.3651L33.3011 10.2799L33.4158 10.3083L33.4445 10.4219L33.3872 10.5355ZM35.3659 22.1785L35.4232 22.0649H35.5092L35.5953 22.1501L35.4519 22.2353L35.3659 22.1785ZM35.0791 21.9797L34.9931 21.9229L35.0504 21.7525L35.1364 21.8093V21.8945L35.0791 21.9797ZM35.2512 14L35.1938 14.1988L35.1078 14.142L35.1651 13.9432L35.2512 14ZM36.9718 17.6917V17.5781L37.0578 17.5213L37.1438 17.5781L37.0865 17.6633L36.9718 17.6917ZM36.2835 20.5598L36.2548 20.3895H36.3695L36.3982 20.5314L36.2835 20.5598ZM39.5813 16.7262L39.6387 16.6126L39.7247 16.6978V16.8114H39.6674L39.5813 16.7262ZM39.61 14.7951L39.524 14.7383V14.5963H39.61L39.6387 14.7099L39.61 14.7951ZM37.0291 15.2211V15.1359L37.1438 15.1075V15.1927L37.0291 15.2211ZM33.3872 10.9899L33.5019 10.9047L33.4732 11.0183L33.3872 10.9899ZM35.1364 14.6531L35.2225 14.6247L35.2512 14.7099L35.1364 14.6531ZM37.9754 20.4462L38.0902 20.4179V20.4746L37.9754 20.4462ZM33.4158 10.5639V10.6207L33.3011 10.5639H33.4158ZM35.8534 21.4686H35.9681L35.9107 21.5254L35.8534 21.4686Z" fill="#F4ED3C"/>
<path d="M47.4749 3.86207L47.0734 3.89047L46.8726 4.06085L46.6432 4.14604L46.1557 4.17444L45.955 4.40162L45.7542 4.37323L45.6109 4.51521L45.6395 5.19675L45.5535 5.39554L45.3528 5.45233L45.2954 6.21907L45.3815 6.44625L45.2667 6.92901L45.1234 7.07099L44.9513 7.0426L44.7219 7.29817L44.5498 7.24138L44.4351 7.41177L44.3204 7.46856L44.2344 7.12779L43.9763 7.21298L43.8329 7.38337L43.7182 7.18458H43.202L42.9726 7.32657L42.8292 7.29817L42.6285 7.41177L42.4277 7.24138L42.313 7.26978L42.0263 7.52535H41.8829L41.7682 7.66734L41.8542 7.80933L42.3704 8.06491L42.5998 8.09331L42.8292 8.32049L43.7182 8.37728L43.8903 8.29209L44.0336 8.32049L44.2344 8.03651L44.3491 7.97972L44.5785 8.06491L44.6359 7.75254L44.7219 7.72414L44.7792 8.03651L45.0373 8.32049L44.8079 8.68966V8.94523L44.8653 9.11562L44.8366 9.20081L44.5498 9.14402V9.3428L44.6645 9.65517L44.5211 9.88235L44.6932 10.0811L44.6359 10.1947L44.4351 10.3083L44.3491 10.2515L44.2344 10.2799L44.4351 10.4787L44.1197 10.9615L44.177 11.1886L44.1483 11.6714L43.7182 11.8986L43.8903 12.1826L43.8042 12.3529L43.8616 12.5801L43.7182 12.8073L43.8329 13.0345V13.2617L43.6895 13.5456L43.4314 13.6308L43.3741 14.4828L43.4028 14.8235L43.03 15.1643V15.7039L43.202 15.8742L43.2594 16.0162L43.0013 16.2434L43.116 16.499L42.8866 16.783V16.9249L43.03 17.0953L43.0586 17.2089L42.8005 17.2373L42.9152 17.5781L42.8292 17.6633L42.6572 17.7201L42.9152 18.0325L43.116 18.1176L43.1733 18.2028L42.9726 18.4868V18.6004L42.8579 18.7424L42.5998 18.6572L42.5138 18.7424L42.7145 19.1116L42.6858 19.2535L43.0586 19.7363L42.9152 19.9635V20.0771L43.116 20.3327V20.645L43.3454 20.5882L43.5461 20.787L43.4601 20.9574L43.5175 21.071L43.7182 21.1846L44.091 21.7241L44.3204 21.7809L44.5498 21.7241L44.9226 21.8945H45.6682L45.7829 21.8377L45.8403 21.5538L45.955 21.5254L46.1557 21.7241L46.4712 21.4402L46.8153 21.355L46.9013 21.5538L46.9873 21.6105L47.0447 21.497L46.9873 21.2698L47.0734 21.071L47.3888 20.7302L47.4749 20.7018L47.5896 20.503L47.7903 20.3611H47.991L48.1344 20.0771L48.3352 20.1623L48.4499 20.1339L48.5359 19.7931L48.5072 19.5943L48.5933 19.5375L48.8513 19.6795L49.1955 19.4239L49.2815 19.2535L49.3675 18.7708L49.6543 18.9412L49.7977 18.7992V18.5436L49.7403 18.43L49.8263 18.4016L50.0271 18.4868L50.1131 18.43L50.2278 18.146L50.4572 18.1176L50.658 18.0041V17.8053L51.4323 17.4361L51.4609 17.0669L51.547 16.9817L51.719 17.0385L51.9198 16.9249L51.9771 16.8114L51.8911 16.5842L51.9484 16.4706L52.3499 16.4422L52.4933 16.2434H52.6367L52.7227 16.1582L52.7801 15.9878L52.608 15.7606V15.6755L52.7227 15.5619L52.8374 15.7606L52.9521 15.8174L53.0668 15.7606L53.1529 15.2779L53.3249 15.3915L53.5257 15.3347L53.497 14.8235L53.6117 14.7383L53.8698 14.9939L53.9558 14.9087L53.9845 14.5396L54.1279 14.1988L53.8411 13.9716L53.6117 13.9432L53.497 14L53.4683 14.568H53.3536L53.1529 14.2272L53.1242 14.3124L53.2389 14.5963L53.0381 14.8235L52.8087 14.6247L52.6654 14.8803L52.6367 15.2211L52.5506 15.2495L52.3212 15.1927L52.3499 15.4483L52.2639 15.6755L52.1778 15.7323L51.9771 15.5619L51.7477 15.9026L51.2315 16.3002L51.0308 16.2434L50.9447 16.4138L50.8874 16.7546L50.5433 17.0101L50.2852 17.3509L49.7403 17.6917L49.5109 17.7485L49.3962 18.0325L49.4536 18.1176L49.3962 18.2028L49.3675 18.0892L49.2241 17.9757L48.9087 18.3448L48.5933 18.4868L48.5646 18.6004L48.2491 18.8276L48.1344 19.0548L47.991 19.1968L47.5035 19.3387L47.3601 19.5943H47.2454L47.016 19.2819H46.7579L46.7006 19.1968V18.998L47.1021 18.7424L47.1594 18.6572L47.0734 18.572H46.9587L46.6719 18.714L46.7293 18.288L46.8153 18.2028L47.1021 18.0892V17.8337L47.016 17.5213L47.3888 17.0669L47.4749 16.8114L47.3888 16.6126L47.5035 16.1298L47.4749 15.9026L47.7043 15.8742L47.8477 15.7323L47.8763 15.5051L47.9624 15.4199L47.991 15.2211L47.905 15.0223L48.1631 14.7383L48.0197 14.5112L48.2491 14L48.1918 13.9148L47.991 13.8012V13.6592L48.3638 13.3469L48.3065 13.2333V13.0345L48.4212 12.5517L48.5359 12.4097H48.6793L48.7653 12.3529L48.5359 11.927L48.708 11.7282V11.501L48.794 11.2738L48.88 11.217V10.9899L48.6219 10.7627L48.8513 10.6207L48.9087 10.4787L48.794 10.3083L48.6793 9.79716L48.8227 9.71197L49.0521 9.68357L49.1094 9.14402L49.1955 9.08722L49.3102 9.11562L49.3675 9.03043L49.2528 9.00203L49.1668 9.05882L49.0234 8.86004V8.54767L49.1955 8.40568L49.2241 8.29209L49.3388 8.26369L49.5683 8.03651L49.6543 8.00811L49.8263 8.1217L49.8837 8.06491L49.9411 7.78093L50.4572 7.66734L50.6293 7.83773L50.83 7.92292L50.9734 7.86613L51.2028 7.97972L51.3462 7.69574L51.4323 7.66734L51.633 7.75254H52.0918L52.1492 7.66734L52.3499 7.75254L52.8948 7.15619L53.1242 7.09939V6.78702H52.9234L52.7801 7.0426L52.6654 7.07099V6.81542L52.5506 6.78702L52.3499 6.90061L52.1778 6.78702L51.8337 6.92901L51.6617 6.81542L51.3175 6.9574L51.1742 6.73022L50.658 6.87221L50.5433 7.07099L50.4286 7.15619L50.0271 6.84381L49.5396 6.9574L49.2241 6.64503L49.1381 6.41785L49.3962 6.24746L49.3675 6.02028L49.4822 5.62272L49.3102 5.36714V5.16836L49.1094 5.13996L48.9947 4.94118V4.82759L48.88 4.6572L48.708 4.74239L48.5646 4.60041L48.5359 4.45842L48.5933 4.34483L48.5072 4.25963L48.3638 4.23124L48.1631 4.714L48.0771 4.51521V4.03245L47.905 3.91886L47.5035 4.08925L47.3888 4.06085L47.4462 3.97566L47.4749 3.86207ZM55.3036 12.9777L54.8161 12.9209L54.7301 12.9777L54.6727 13.6592L54.7588 13.8012L54.8448 13.7444L54.9308 13.3469L55.0168 13.2901L55.2463 13.3185L55.3323 13.0913L55.3036 12.9777ZM53.6117 7.29817L53.4396 7.0426L53.2102 7.32657H52.9808L52.8661 7.38337L52.7801 7.63894L52.8948 7.72414H53.0095L53.583 7.41177L53.6117 7.29817ZM54.2712 7.12779L53.8984 7.29817H53.7551L53.6977 7.49696L53.7264 7.61055L53.8411 7.63894V7.44016L54.2999 7.24138L54.2712 7.12779ZM54.386 13.8012L54.2999 14.0852L54.4433 14.1136L54.5867 13.9716L54.5007 13.8012H54.386ZM46.3278 17.4361L46.3565 17.2657L46.5572 17.1521L46.5859 17.4361H46.3278ZM50.1418 7.89452L50.1131 8.09331L50.3139 8.2069V8.00811L50.2278 7.92292L50.1418 7.89452ZM47.4749 17.6349L47.3888 17.5213H47.2741L47.2168 17.6349L47.3028 17.7201H47.4175L47.4749 17.6349ZM53.9845 7.0142L53.9558 6.90061L53.8411 6.87221L53.7837 6.9858L53.8984 7.09939L53.9845 7.0142ZM48.2205 15.5335L48.1918 15.4483L48.0771 15.4199L47.991 15.4767L48.1344 15.6187L48.2205 15.5335ZM55.8198 12.8925L55.7338 12.8357L55.5904 12.9493L55.6764 13.0061L55.7624 12.9777L55.8198 12.8925ZM45.5535 20.2475L45.5822 20.1339H45.7542L45.6682 20.2759L45.5535 20.2475ZM54.5007 14.4544L54.3286 14.4828L54.3573 14.5963L54.472 14.568L54.5007 14.4544ZM54.0132 13.6308L53.9271 13.6592L53.8698 13.7728L53.9558 13.8012L54.0132 13.7444V13.6308ZM44.98 20.1339L45.0087 20.0203L45.0947 19.9919L45.1234 20.1055L45.0373 20.1339H44.98ZM47.0734 14.5963L46.9873 14.5396L47.016 14.4544L47.1021 14.4828L47.0734 14.5963ZM54.5293 13.2901H54.386V13.3753L54.472 13.3469L54.5293 13.2901ZM53.1242 15.1359H53.1815L53.1242 15.2211V15.1359Z" fill="#F4ED3C"/>
<path d="M75.7629 12.3245L75.6482 12.4381L75.3901 12.3529L75.132 12.4665L74.7879 12.7505L74.5585 12.7789L74.2717 12.9777L74.0423 12.9209L73.6695 13.2049L73.4114 13.2617L73.2107 13.5172L73.01 13.574L72.6372 13.5456L72.4938 13.716L72.2357 13.7444L71.7769 14.0852L71.5474 13.9148L71.4327 13.9716L71.4041 14.1704H71.0886L70.9739 13.9148L70.7445 13.8012L70.6585 13.6308V13.3753L70.7445 13.2049V13.0913L70.5151 13.0629L70.5438 12.9777L71.0026 12.5801L70.6298 12.6653L70.5438 12.6085L70.6298 12.4949L70.8018 12.4097L70.7732 12.2961L70.6585 12.2394L70.4577 12.3529L70.5438 12.1258L70.4864 12.0122L70.6298 11.7282L70.3717 11.6998L70.2857 11.643V11.5294L70.0563 11.4158L70.0276 11.3022L70.343 11.1034L69.7695 10.6775L69.8268 10.4219L69.6548 10.3083L69.5687 10.1095L69.454 10.0811L69.2533 10.3367L69.0526 10.1947L68.8232 9.76876H68.6798L68.479 10.1379L68.3643 10.0243L68.1062 10.1095L68.0489 9.99594L67.5614 9.85396L67.3606 10.0527L67.2459 10.0243L67.1025 10.1379L66.9018 10.0243H66.7871L66.615 10.2231L66.4716 10.1379L66.3283 10.3935L66.0128 10.5639L65.8694 10.5355L65.6687 10.7627L65.554 10.7911L65.3533 10.9615L65.2959 11.1602L64.9231 11.501L64.5503 11.643L64.4643 11.5578L64.6077 11.3874L64.8084 11.3022L64.8658 11.217L64.7224 10.7911L64.6363 10.6775L64.3209 10.7343L64.2349 10.7059L64.5216 10.3367L64.6077 9.99594L64.579 9.76876L64.7797 9.51318L64.4643 9.20081V9.05882L64.1775 8.83164V8.54767L64.1202 8.46247L63.8907 8.43408L63.8334 8.34888L64.0341 7.97972L64.0628 7.75254L63.9481 7.72414L63.7474 7.78093L63.4893 7.58215L63.5179 7.46856L63.3746 7.38337L63.0878 7.41177L62.801 7.26978L62.3135 7.32657L62.1128 7.41177L61.9694 7.55375L61.7113 7.61055L61.5106 7.72414L61.3098 7.97972V8.1501L61.1951 8.32049V8.74645L61.2525 8.83164L60.9944 9.08722L61.0231 9.3428L60.8797 9.62677L60.9657 9.79716L60.9944 10.0811L61.1378 10.2515V10.3935L60.937 10.4219L60.8223 10.6207L60.7936 11.1602L60.7076 11.4158V11.7566L60.4782 12.1542L60.5069 12.2677L60.9084 12.069L60.9657 12.1826L60.5356 12.6653L60.5642 12.8925L60.2488 13.574L60.3348 13.7728L60.1914 14.0852L60.0767 14.7099L60.1628 14.8235L60.3922 14.8803L60.3061 15.0791L59.9907 15.1643L59.9047 15.6471L59.7326 15.931V16.4706L59.5605 16.6126L59.5319 16.7262L59.7039 16.8682L59.7613 16.9817L59.6466 17.3225L59.4745 17.4077L59.3885 17.5781L59.4172 18.0609L59.1304 18.7424L59.1878 19.0264L59.1591 19.14L59.4172 19.3103L58.8436 20.1055L58.9583 20.2759L58.815 20.4462V20.5598H59.073L59.1304 20.7586L58.901 21.071L58.7002 21.1846L58.7576 21.3266L58.6716 21.7241L58.7002 22.2637L58.7863 22.5761L58.7289 22.6897L58.8723 23.2292L58.7863 23.4848L58.6142 23.3428L58.5282 23.3996L58.6429 23.7688L58.5282 23.9391L58.4422 24.3935L58.4708 24.5071L58.6716 24.5923L58.7002 24.6775L58.6429 24.7343H58.4135L58.2988 25.1318L58.3561 25.4726L58.2701 25.7282L58.2988 25.927L58.098 26.1258V26.3245L58.2127 26.4949L58.5855 26.7789L58.6142 26.8925L58.3848 27.3185L58.2988 27.3469L58.4135 27.574L59.073 28L59.3885 27.7728L59.5892 27.858L59.8473 27.6308L60.1914 27.7728L60.4495 27.6876L60.4782 27.5456L60.7936 27.2333H60.9657L61.1951 27.0061L61.3959 26.9493L61.6253 26.7789L61.7973 26.3813L62.0841 26.069L61.9407 25.8702V25.7566L62.0554 25.6714L62.2562 25.7282L62.3996 25.643V25.3874L62.5429 25.3306L62.6003 25.217H62.4282L62.3422 25.3022L62.0268 25.1318L62.0841 25.0183L62.2848 24.9615L62.3996 24.9899L62.715 24.7059L62.6863 24.5639L62.7723 24.3935L62.715 24.1379L62.9444 24.0527L63.0304 23.9107L62.8871 23.6836L63.0304 23.2576L63.3172 22.8032L63.2885 22.5477L63.0591 22.4909L63.0018 22.3773L63.0304 22.2637L63.1165 22.2069H63.3746L63.5753 22.1217L63.3746 21.9229L63.6326 21.6389L63.3459 21.0142L63.4893 20.7302L63.4606 20.6166L63.9481 20.3611L63.69 20.3043L63.604 20.2191L63.6613 20.1339L63.9768 19.9635H64.4356L64.6077 19.8499L64.665 19.7363L65.1238 19.7079L65.2672 19.5659L65.7261 19.5375L65.8121 19.4807L65.6974 19.2535L65.7547 19.14L65.9555 19.1684L65.9841 19.3671L66.1849 19.5375L66.529 19.3387L66.9018 19.3955L67.1312 19.14L67.2746 19.1684L67.418 18.9128L67.504 18.856H67.9915L68.0775 18.7708V18.572L68.1636 18.5152L68.479 18.5436L68.5364 18.2312H68.6511L68.7945 18.0892L68.8805 17.8905L69.282 17.8337L69.4827 17.4929L69.7695 17.3793V17.1237L69.9415 17.0385L69.9989 16.9249L69.7121 16.8966V16.8114L70.0849 16.641L69.9989 16.4138L70.171 16.1298V15.9594L70.4577 15.6755L70.3143 15.4767L70.4864 15.3347H70.6298L71.3467 14.7667L71.6335 14.8519L71.7482 14.7951L71.7769 14.568L72.121 14.426L72.5511 14.5396L72.6372 14.3692L73.096 14.142H73.4114L73.5261 13.9716L73.4401 13.9148V13.8296L73.8989 13.9432L74.1283 13.9148L74.071 13.6024L74.3864 13.4888H74.5872L74.6445 13.4037L74.5585 13.3753V13.2333L74.6445 13.3185L74.8739 13.1765L75.2754 13.1481V13.0345L75.6195 12.7789H75.7629L75.849 12.4097L75.7629 12.3245ZM67.6474 11.9554L67.7908 11.9838L68.2783 12.7505L68.2496 12.8641L68.479 12.9493L68.3356 13.1481L68.5651 13.2333L68.393 13.4037V13.7444L68.5077 14.142L68.5937 14.2272L68.4217 14.3692L68.479 14.568L68.4503 14.7951L68.307 14.9655L68.1923 15.0223V15.2779L67.9915 15.2495L67.8481 15.3347L67.5327 15.3631L67.5614 15.4483L67.504 15.6471L67.2746 15.7323L66.8731 15.9878L66.7297 15.8742L66.5003 15.8458L66.4143 16.0446L66.3283 16.073L66.2422 15.9878L65.9555 15.931L65.8408 16.0446L65.9268 16.1866L65.8981 16.3002L65.5827 16.2434L65.0665 16.4706L64.9231 16.4422L64.6363 16.7546L64.4069 16.7262L64.3209 16.6694L64.1775 16.1866L64.493 16.2434L64.579 16.1866L64.5503 15.9878L64.4643 15.931L64.3209 15.9878L64.2062 15.9594L64.2349 15.8458L64.493 15.7323L64.4643 15.6471L64.3496 15.5619V15.4199L64.6077 15.3915L64.665 15.2779L64.579 15.1075L64.8084 14.568L64.7224 14.3124L64.7797 14.1988L64.665 14L64.7797 13.6876L64.7224 13.4888L64.8084 13.2049H65.0665L65.0091 12.9209L65.0665 12.8357L65.3819 12.7789L65.4106 12.4381L65.6687 12.5233L65.7261 12.211L65.8981 12.1826L66.0702 12.2961L66.1275 12.0122L66.443 12.1258L66.5864 11.9838L66.8158 12.0406V11.7282L67.2459 11.8986V11.6998L67.418 11.7282L67.5327 11.8134L67.6474 11.9554ZM67.5614 16.1866H67.6474L67.7334 16.4422L67.6761 16.6694L67.3893 17.0385L67.5327 17.3225L67.1886 17.4929L67.0452 17.7769L66.9018 17.8621L66.8731 18.0041L66.529 18.3448L66.3856 18.3164L66.0128 18.5436L65.5827 19.0264L65.4393 18.998L65.2385 19.14L64.751 19.1116L64.2922 18.9696L64.0341 19.0832L63.9481 19.0264L63.9768 18.6856L63.8334 18.4584L63.9194 18.2596L63.8907 18.146L64.2062 17.7769L64.3782 17.7201L64.4069 17.4645L64.8944 16.9817L65.1238 16.9533L65.2385 17.0101L65.4393 16.9249L65.8121 16.8682L66.0989 16.6978L66.0702 16.499L66.2709 16.6126L66.5864 16.4138L66.8445 16.3854L67.0739 16.4422L67.3893 16.1582L67.5614 16.1866ZM59.2451 25.6146L59.3311 25.5578L59.4745 25.643L59.3885 25.7566L59.3025 25.6998L59.2451 25.6146ZM63.8621 20.7586L63.7474 20.787L63.7187 20.9006H63.8334L63.8621 20.7586ZM58.4995 24.9615V24.8763L58.6142 24.8479V24.9899L58.4995 24.9615ZM63.3172 23.428L63.2025 23.4564V23.57L63.2885 23.5416L63.3172 23.428ZM58.6142 22.6897L58.6429 22.6613H58.6142V22.6897Z" fill="#F4ED3C"/>
<path d="M79.0216 10.6775L78.9068 10.4787L78.7061 10.3367L78.6774 10.2515L77.8458 9.91075L77.6737 9.93915L77.1862 9.82556L76.7274 10.1663L76.5267 10.2515L76.4406 10.4503L76.0965 10.8479L75.8671 10.9899L75.8384 11.217L75.7524 11.2738L75.4656 11.3022L75.2075 11.643L75.1215 11.8702L74.9208 11.9554L74.8061 12.069V12.3529L74.548 12.3813L74.4906 12.4949L74.6627 12.6085L74.5193 12.7789L74.3186 12.7505L74.2325 12.8073L74.2612 12.9209L74.2038 13.1481L73.9171 13.4888L73.8884 13.716L73.659 13.9432L73.573 13.9148L73.4869 13.9716L73.6303 14.142L73.659 14.2556L73.6016 14.3408L73.3149 14.4544L73.1715 14.9371L73.3149 15.0791L73.2288 15.1927L73.0568 15.0791L72.9707 15.1075L72.8274 15.4199L72.9421 15.6471L72.8274 15.8174H72.684L72.5406 16.357L72.6266 16.5842L72.5119 16.6978L72.4832 16.8114L72.684 16.9817L72.77 17.2373L72.5693 17.6349L72.5406 17.8621L72.6266 18.4016L72.7413 18.4584L72.9994 18.3448L73.0281 18.4584L72.9707 18.5436L72.8274 18.6004L72.7987 18.8844L72.9707 19.3955L72.9421 19.5375L73.1715 19.7363V19.9919L73.4009 20.3327V20.4462L73.5443 20.5882L73.9744 20.787H74.2038L74.2325 20.929L74.1465 21.1562L74.2038 21.2414H74.548L74.8921 21.497L74.9781 21.6389V21.7525L75.2075 21.8661H75.3509L75.3223 21.6673L75.4943 21.5821L75.8098 21.5254L75.9245 21.6957L76.1252 21.7809L76.2399 22.0649L76.4406 22.1217L76.584 22.0649L76.6127 22.1501L76.7274 22.2069L77.0142 22.0649L77.1289 22.1217L77.3296 21.9229L77.559 21.9797L77.7311 21.9513L77.8171 22.1501L77.9605 22.0649L78.0179 21.9513V21.6957L78.1039 21.6389H78.3046L78.4193 21.7809L78.6774 21.8377L79.0216 21.7241V21.5254L79.5091 21.4118V21.2982L79.4517 21.2414H79.1363L79.1649 21.0994L79.3083 20.9006L79.5377 20.8722L79.6811 21.1562L79.9392 20.9006L80.0539 20.8722L80.2547 20.7018L80.1973 20.6166L80.226 20.4179H80.4554L80.6274 20.1907V20.0771L81.0003 19.8783L81.201 19.6227L81.4017 19.5375V19.3387L81.6885 19.1684L81.7458 18.9128L81.9753 18.572L82.1473 18.1744L82.4054 17.8905L82.5201 17.3509L82.9503 16.7546L82.7495 16.499L82.8356 16.2434L82.9789 16.073L83.0076 15.8458L82.8356 15.6755L82.8929 15.4767L82.7782 15.2779L82.8069 15.1643L82.7209 14.8519L82.8929 14.7099L82.9216 14.5963L82.7495 14.3692L82.8069 14.0852L82.8929 14L83.237 13.9716L83.5525 13.6024L83.7532 13.574L83.8392 13.6308L83.8679 13.3469L83.9253 13.2617L84.0113 13.574L84.0687 13.6308L84.6995 13.2049H84.9003L85.0437 13.2617L85.2444 12.8073L85.4451 13.1481L85.8179 12.8073L86.0187 12.8641L86.1334 12.6937L85.9613 12.5517L86.0187 12.4381L86.1334 12.5801L86.4775 12.3813L86.965 12.4097L87.1371 12.3529V12.2394L87.4525 11.927L87.854 11.8702L88.0261 11.4442L87.9974 11.2738L87.9114 11.217L87.7106 11.359L87.3378 11.1886L87.0224 11.3306L86.4775 11.8702H85.8179L85.7319 12.2677L85.5885 12.0406L85.4738 11.9838L85.015 12.4665L84.8143 12.211L84.5562 12.4949L84.2694 12.4097L84.212 12.4665L84.1834 12.7505L84.126 12.8357L83.9253 12.7505L83.7245 12.5517L83.5238 12.7505L83.4091 12.7221L83.0937 12.7789L82.9503 13.0345L82.8069 12.8641L82.5775 12.8925L82.2047 13.0345L82.0613 12.9209L81.9753 12.6937L81.8032 12.5517L81.6885 12.5233L81.5451 12.3245L81.4591 12.2961L81.373 12.0974L81.201 11.9838H81.0003L80.6848 11.7282L80.4267 11.6998L80.3694 11.4726L80.1113 11.3874L79.9679 11.6998L79.8532 11.5578L79.7671 11.643H79.6524L79.5664 11.501L79.6238 11.2738L79.3657 11.1318L79.2796 11.0183V10.7911L79.1363 10.6775H79.0216ZM81.9466 14.2272H82.1473L82.176 14.3408L82.1186 14.568L82.2047 14.8519L82.3194 15.0223L82.3767 15.4483L82.2334 15.6471L82.2047 15.8742L82.262 15.9878V16.357L81.9466 16.6978L81.9179 16.8114L81.6598 17.0101L81.373 17.4077L81.1723 18.0609L80.5127 18.5152L80.4841 18.714L80.1399 19.1116L80.0826 19.2535L79.7385 19.5659L79.5664 19.5943L79.2796 19.9351L78.448 20.5314L78.362 20.4179L77.1862 20.9574L76.6414 20.8154L76.412 20.6734L76.3833 20.4462L76.3259 20.3611L76.0965 20.5882L75.8958 20.5314L75.9818 20.3327H76.3259L76.1825 20.1623L75.8958 20.0203L75.7811 19.4807L75.8384 19.3955L76.0392 19.4523L75.9531 19.14L75.9818 18.998L75.7524 18.6572L76.0105 18.4868L76.1252 17.9473L75.9245 17.7485L76.0678 17.5497H76.2973L76.3833 17.4645L76.412 17.2657L76.6127 17.1521L76.7561 16.8114L76.6987 16.3286L77.1289 15.9594L77.1576 15.7039L77.3583 15.3063L77.5017 15.2779L77.5877 15.1927V14.9087L78.276 14.3692V14.2556L78.4193 14.1136L78.5914 14.2556L78.7921 14.2272L78.9642 14.3408H79.0789L79.1649 14.2556L79.3083 14.426L79.5091 14.5396H80.0826L80.1399 14.3408L80.312 14.3692L80.5414 14.284L81.2297 14.2272L81.4017 14.1136L81.5164 14.1704H81.8605L81.9466 14.2272ZM81.201 13.0345L81.373 13.2901L81.0576 13.3753L80.8855 13.2617L80.6274 13.2049H80.2547L79.7958 12.8357L79.7671 12.6369L79.8532 12.6085L79.9679 12.6653H80.3694L80.5701 12.7789L80.8855 12.8357L81.115 13.0061L81.201 13.0345ZM74.4906 18.4016L74.548 18.288L74.7487 18.2596L74.8061 18.3164L74.7774 18.43L74.6914 18.4868L74.5766 18.4584L74.4906 18.4016ZM74.9208 17.2089V17.0953L75.0928 17.0385L75.1215 17.0953L75.0642 17.2373L74.9208 17.2089ZM74.8634 20.1055L75.0068 19.9635L75.0928 19.9919L75.0642 20.0771L74.9494 20.1339L74.8634 20.1055ZM74.5193 20.1055L74.72 20.1339V20.1907L74.6053 20.2475L74.5193 20.1907V20.1055ZM78.9068 13.7728L78.8495 13.6592L78.8782 13.5172L78.9642 13.574L78.9355 13.8012L78.9068 13.7728ZM76.0678 15.0791H75.9818L75.9245 14.9939L75.9818 14.9087L76.0678 14.9939V15.0791ZM83.0076 15.1075L82.9789 15.2211L83.0937 15.2495L83.151 15.1359L83.0076 15.1075ZM76.4693 17.6065L76.412 17.6917L76.498 17.7769L76.5553 17.7485L76.5267 17.6633L76.4693 17.6065ZM79.7958 20.7586L79.8819 20.7018L79.9679 20.7586L79.8819 20.8438L79.7958 20.7586ZM79.251 11.3022L79.3943 11.359L79.3657 11.4442L79.2796 11.3874L79.251 11.3022ZM82.09 16.073L81.9753 16.1014L82.0039 16.1866L82.09 16.073ZM74.1752 12.7221L74.1178 12.8357L74.2038 12.7789L74.1752 12.7221ZM86.4775 12.6085L86.3915 12.6369L86.4775 12.6653V12.6085ZM75.8958 15.6471L75.9531 15.5903V15.6471H75.8958Z" fill="#F4ED3C"/>
<path d="M100.855 12.3245L100.74 12.4381L100.482 12.3529L100.224 12.4665L99.8801 12.7505L99.6507 12.7789L99.3639 12.9777L99.1345 12.9209L98.7617 13.2049L98.5036 13.2617L98.3029 13.5172L98.1021 13.574L97.7293 13.5456L97.586 13.716L97.3279 13.7444L96.869 14.0852L96.6396 13.9148L96.5249 13.9716L96.4962 14.1704H96.1808L96.0661 13.9148L95.8367 13.8012L95.7506 13.6308V13.3753L95.8367 13.2049V13.0913L95.6073 13.0629L95.6359 12.9777L96.0948 12.5801L95.722 12.6653L95.6359 12.6085L95.722 12.4949L95.894 12.4097L95.8653 12.2961L95.7506 12.2394L95.5499 12.3529L95.6359 12.1258L95.5786 12.0122L95.722 11.7282L95.4639 11.6998L95.3778 11.643V11.5294L95.1484 11.4158L95.1198 11.3022L95.4352 11.1034L94.8617 10.6775L94.919 10.4219L94.747 10.3083L94.6609 10.1095L94.5462 10.0811L94.3455 10.3367L94.1447 10.1947L93.9153 9.76876H93.7719L93.5712 10.1379L93.4565 10.0243L93.1984 10.1095L93.1411 9.99594L92.6535 9.85396L92.4528 10.0527L92.3381 10.0243L92.1947 10.1379L91.994 10.0243H91.8793L91.7072 10.2231L91.5638 10.1379L91.4204 10.3935L91.105 10.5639L90.9616 10.5355L90.7609 10.7627L90.6462 10.7911L90.4454 10.9615L90.3881 11.1602L90.0153 11.501L89.6425 11.643L89.5565 11.5578L89.6998 11.3874L89.9006 11.3022L89.9579 11.217L89.8145 10.7911L89.7285 10.6775L89.4131 10.7343L89.327 10.7059L89.6138 10.3367L89.6998 9.99594L89.6712 9.76876L89.8719 9.51318L89.5565 9.20081V9.05882L89.2697 8.83164V8.54767L89.2123 8.46247L88.9829 8.43408L88.9256 8.34888L89.1263 7.97972L89.155 7.75254L89.0403 7.72414L88.8395 7.78093L88.5815 7.58215L88.6101 7.46856L88.4667 7.38337L88.18 7.41177L87.8932 7.26978L87.4057 7.32657L87.205 7.41177L87.0616 7.55375L86.8035 7.61055L86.6028 7.72414L86.402 7.97972V8.1501L86.2873 8.32049V8.74645L86.3447 8.83164L86.0866 9.08722L86.1152 9.3428L85.9719 9.62677L86.0579 9.79716L86.0866 10.0811L86.2299 10.2515V10.3935L86.0292 10.4219L85.9145 10.6207L85.8858 11.1602L85.7998 11.4158V11.7566L85.5704 12.1542L85.5991 12.2677L86.0005 12.069L86.0579 12.1826L85.6277 12.6653L85.6564 12.8925L85.341 13.574L85.427 13.7728L85.2836 14.0852L85.1689 14.7099L85.2549 14.8235L85.4844 14.8803L85.3983 15.0791L85.0829 15.1643L84.9968 15.6471L84.8248 15.931V16.4706L84.6527 16.6126L84.624 16.7262L84.7961 16.8682L84.8535 16.9817L84.7388 17.3225L84.5667 17.4077L84.4807 17.5781L84.5093 18.0609L84.2226 18.7424L84.2799 19.0264L84.2513 19.14L84.5093 19.3103L83.9358 20.1055L84.0505 20.2759L83.9071 20.4462V20.5598H84.1652L84.2226 20.7586L83.9932 21.071L83.7924 21.1846L83.8498 21.3266L83.7637 21.7241L83.7924 22.2637L83.8785 22.5761L83.8211 22.6897L83.9645 23.2292L83.8785 23.4848L83.7064 23.3428L83.6204 23.3996L83.7351 23.7688L83.6204 23.9391L83.5343 24.3935L83.563 24.5071L83.7637 24.5923L83.7924 24.6775L83.7351 24.7343H83.5057L83.3909 25.1318L83.4483 25.4726L83.3623 25.7282L83.3909 25.927L83.1902 26.1258V26.3245L83.3049 26.4949L83.6777 26.7789L83.7064 26.8925L83.477 27.3185L83.3909 27.3469L83.5057 27.574L84.1652 28L84.4807 27.7728L84.6814 27.858L84.9395 27.6308L85.2836 27.7728L85.5417 27.6876L85.5704 27.5456L85.8858 27.2333H86.0579L86.2873 27.0061L86.488 26.9493L86.7175 26.7789L86.8895 26.3813L87.1763 26.069L87.0329 25.8702V25.7566L87.1476 25.6714L87.3484 25.7282L87.4917 25.643V25.3874L87.6351 25.3306L87.6925 25.217H87.5204L87.4344 25.3022L87.1189 25.1318L87.1763 25.0183L87.377 24.9615L87.4917 24.9899L87.8072 24.7059L87.7785 24.5639L87.8645 24.3935L87.8072 24.1379L88.0366 24.0527L88.1226 23.9107L87.9792 23.6836L88.1226 23.2576L88.4094 22.8032L88.3807 22.5477L88.1513 22.4909L88.0939 22.3773L88.1226 22.2637L88.2086 22.2069H88.4667L88.6675 22.1217L88.4667 21.9229L88.7248 21.6389L88.4381 21.0142L88.5815 20.7302L88.5528 20.6166L89.0403 20.3611L88.7822 20.3043L88.6962 20.2191L88.7535 20.1339L89.069 19.9635H89.5278L89.6998 19.8499L89.7572 19.7363L90.216 19.7079L90.3594 19.5659L90.8182 19.5375L90.9043 19.4807L90.7896 19.2535L90.8469 19.14L91.0476 19.1684L91.0763 19.3671L91.2771 19.5375L91.6212 19.3387L91.994 19.3955L92.2234 19.14L92.3668 19.1684L92.5102 18.9128L92.5962 18.856H93.0837L93.1697 18.7708V18.572L93.2558 18.5152L93.5712 18.5436L93.6286 18.2312H93.7433L93.8867 18.0892L93.9727 17.8905L94.3742 17.8337L94.5749 17.4929L94.8617 17.3793V17.1237L95.0337 17.0385L95.0911 16.9249L94.8043 16.8966V16.8114L95.1771 16.641L95.0911 16.4138L95.2631 16.1298V15.9594L95.5499 15.6755L95.4065 15.4767L95.5786 15.3347H95.722L96.4389 14.7667L96.7256 14.8519L96.8404 14.7951L96.869 14.568L97.2132 14.426L97.6433 14.5396L97.7293 14.3692L98.1882 14.142H98.5036L98.6183 13.9716L98.5323 13.9148V13.8296L98.9911 13.9432L99.2205 13.9148L99.1632 13.6024L99.4786 13.4888H99.6794L99.7367 13.4037L99.6507 13.3753V13.2333L99.7367 13.3185L99.9661 13.1765L100.368 13.1481V13.0345L100.712 12.7789H100.855L100.941 12.4097L100.855 12.3245ZM92.7396 11.9554L92.883 11.9838L93.3705 12.7505L93.3418 12.8641L93.5712 12.9493L93.4278 13.1481L93.6572 13.2333L93.4852 13.4037V13.7444L93.5999 14.142L93.6859 14.2272L93.5139 14.3692L93.5712 14.568L93.5425 14.7951L93.3991 14.9655L93.2844 15.0223V15.2779L93.0837 15.2495L92.9403 15.3347L92.6249 15.3631L92.6535 15.4483L92.5962 15.6471L92.3668 15.7323L91.9653 15.9878L91.8219 15.8742L91.5925 15.8458L91.5065 16.0446L91.4204 16.073L91.3344 15.9878L91.0476 15.931L90.9329 16.0446L91.019 16.1866L90.9903 16.3002L90.6749 16.2434L90.1587 16.4706L90.0153 16.4422L89.7285 16.7546L89.4991 16.7262L89.4131 16.6694L89.2697 16.1866L89.5851 16.2434L89.6712 16.1866L89.6425 15.9878L89.5565 15.931L89.4131 15.9878L89.2984 15.9594L89.327 15.8458L89.5851 15.7323L89.5565 15.6471L89.4417 15.5619V15.4199L89.6998 15.3915L89.7572 15.2779L89.6712 15.1075L89.9006 14.568L89.8145 14.3124L89.8719 14.1988L89.7572 14L89.8719 13.6876L89.8145 13.4888L89.9006 13.2049H90.1587L90.1013 12.9209L90.1587 12.8357L90.4741 12.7789L90.5028 12.4381L90.7609 12.5233L90.8182 12.211L90.9903 12.1826L91.1624 12.2961L91.2197 12.0122L91.5351 12.1258L91.6785 11.9838L91.908 12.0406V11.7282L92.3381 11.8986V11.6998L92.5102 11.7282L92.6249 11.8134L92.7396 11.9554ZM92.6535 16.1866H92.7396L92.8256 16.4422L92.7683 16.6694L92.4815 17.0385L92.6249 17.3225L92.2807 17.4929L92.1374 17.7769L91.994 17.8621L91.9653 18.0041L91.6212 18.3448L91.4778 18.3164L91.105 18.5436L90.6749 19.0264L90.5315 18.998L90.3307 19.14L89.8432 19.1116L89.3844 18.9696L89.1263 19.0832L89.0403 19.0264L89.069 18.6856L88.9256 18.4584L89.0116 18.2596L88.9829 18.146L89.2984 17.7769L89.4704 17.7201L89.4991 17.4645L89.9866 16.9817L90.216 16.9533L90.3307 17.0101L90.5315 16.9249L90.9043 16.8682L91.191 16.6978L91.1624 16.499L91.3631 16.6126L91.6785 16.4138L91.9366 16.3854L92.166 16.4422L92.4815 16.1582L92.6535 16.1866ZM84.3373 25.6146L84.4233 25.5578L84.5667 25.643L84.4807 25.7566L84.3946 25.6998L84.3373 25.6146ZM88.9542 20.7586L88.8395 20.787L88.8109 20.9006H88.9256L88.9542 20.7586ZM83.5917 24.9615V24.8763L83.7064 24.8479V24.9899L83.5917 24.9615ZM88.4094 23.428L88.2947 23.4564V23.57L88.3807 23.5416L88.4094 23.428ZM83.7064 22.6897L83.7351 22.6613H83.7064V22.6897Z" fill="#F4ED3C"/>
<path d="M101.389 9.22921L101.16 9.25761L101.045 9.20081H100.673L100.443 9.3144L100.271 9.286L100.07 9.42799L99.9269 9.3712L99.6115 9.79716L99.5541 10.2231L99.3821 10.4503L99.3534 10.6775L99.1526 10.7911L99.124 10.8763L99.296 11.1034L99.0666 11.4726V11.6146L98.8659 11.7566L98.8372 11.8702H98.9806L99.0379 12.0406L98.6651 12.3813L98.9806 12.5517L99.0379 12.6369L98.8659 12.6937V12.7505L98.6938 12.8925L98.6651 13.0913L98.7225 13.2049L98.4931 13.3469L98.4644 13.4888L98.6365 13.8012L98.4357 13.9432L98.321 14.1704L98.4931 14.5112L98.3497 14.7667V15.1643L98.4357 15.5903L98.3497 16.0446L98.2923 16.1014L98.3497 16.2434L98.2063 16.4422L98.149 16.8114L98.0629 17.0101V17.7769L98.1203 18.0041L97.9482 18.3164L98.0056 18.4584L97.9769 18.6572L98.0342 18.7708L98.0056 18.9412L98.0916 19.2819L97.9482 19.4239L98.149 19.6227L98.0916 19.8215L98.235 19.9919L98.321 20.4746L98.5218 20.5598L98.7512 20.9858L98.8085 21.355L98.8946 21.4118H99.0666L99.4107 21.6673H99.5254L99.6115 21.8945L99.7549 21.9229L99.8982 21.7241L99.9843 21.7809L100.156 22.3205L100.3 22.2069L100.529 22.2353L100.787 22.1785L100.988 22.2353L101.045 22.1501L101.017 21.7809L101.131 21.6673L101.217 21.7241L101.332 21.9229L101.734 22.1501H101.877V21.7241L101.934 21.6389L102.221 21.8377L102.479 21.6389L102.623 21.6105L103.11 21.071L103.282 21.0426L103.54 20.6734L103.425 20.4179L103.512 20.3327L103.598 20.4746L103.712 20.503L103.856 20.3327L104.171 20.1907L104.257 19.7079L104.171 19.4807V19.2535L104.286 19.0832L104.544 19.1968L104.716 18.8276H104.831L104.888 18.714L104.831 18.5152L105.031 18.2596L104.917 18.1176L105.031 17.8337L105.117 17.7769L105.289 17.9189H105.404L105.548 18.0609V18.3164L105.49 18.43L105.634 18.572L105.548 18.6288L105.347 18.6004L105.289 18.6572L105.318 18.7708L105.605 18.9696L105.462 19.3387H105.347L105.289 19.4239L105.548 19.9919L105.576 20.2475L105.347 20.1055L105.261 20.2191L105.462 20.6166L105.347 20.9858L105.462 21.071L105.691 20.9574L105.748 21.0426L105.634 21.2982L105.777 21.497L105.548 21.8093L105.806 22.0649L106.035 22.1501L105.863 22.2637V22.4341L105.92 22.5193L106.15 22.4909L106.293 22.8316L106.236 22.9452L106.293 23.0588L106.523 23.002L106.609 23.0588L106.723 23.2576L106.809 23.3144L107.039 23.2008L107.067 23.6268L107.153 23.6836L107.268 23.6268L107.354 23.428V23.286L107.698 23.3996V23.5132L107.87 23.6552L107.899 23.8256L108.042 23.7972L108.157 23.6268L108.272 23.57L108.415 23.6836L108.587 23.57L108.817 23.5984L109.075 23.2292L109.247 23.286L109.419 23.144L109.648 23.1156L109.906 22.8884L110.021 22.9736L109.992 22.8032L110.107 22.4909L110.078 21.8945L110.136 21.8093L110.308 21.8377L110.451 21.6389L110.652 21.7809L110.709 21.7241L110.795 21.1562L110.881 21.0994H111.025L111.226 20.9858L111.312 20.645L111.168 20.4746V20.3611L111.283 20.2759L111.369 20.3611L111.57 20.3895L111.656 20.3327L111.57 19.9067L111.713 19.7647L111.77 19.9351L111.856 19.9919L111.914 19.9067L112.029 19.1968L111.942 19.14L111.742 19.1684L111.57 19.0832L111.426 19.2535L111.254 19.7931L111.14 19.8215L110.566 20.3611L110.48 20.7018V20.9858L110.308 20.9574L109.706 21.6389L109.62 21.6673L109.362 21.9229V22.0649L109.304 22.1501L108.817 22.1217L108.845 21.9797L108.788 21.8093L108.903 21.5538L108.874 21.4118L108.673 21.2982L108.616 21.213L108.759 20.9858L108.874 20.6166L109.103 20.5314L108.989 20.3327L108.903 20.3043L108.731 20.503L108.645 20.4179V20.3043L108.788 20.1055L108.645 19.9351L108.616 19.7079L108.96 19.4239V18.2312L108.989 18.146L108.931 18.0609L108.989 17.3793L109.046 17.3509L109.132 17.4929L109.276 17.4077V17.0953L109.218 16.9817L109.247 16.7546L109.161 16.499L109.19 16.3854L109.132 16.1582L109.247 15.9878L109.19 15.8742L109.362 15.4483H109.218L109.161 15.3631L109.419 15.3915L109.476 15.2211L109.419 15.1359L109.304 15.1075L109.276 14.9087L109.419 14.7667L109.161 14.5112L109.132 14.3692L109.448 14V13.8864L109.39 13.8296H109.276L109.161 14.0284H109.017V13.858L109.448 13.6308L109.505 13.2333L109.161 13.2049V12.6937L109.103 12.6369H108.874L108.759 12.211L108.874 11.8986L108.731 11.785L108.387 11.8134L108.301 11.7566L107.842 11.8702L107.498 11.8418L107.326 11.9838L107.125 12.0122L106.838 12.1826L106.695 12.3529L106.58 12.3813L106.523 12.5233L106.551 12.6369L106.379 12.7789V12.9209L106.264 13.0345L106.322 13.2617V13.6308L106.264 13.6876L105.978 13.716L105.92 13.7728L106.121 14.0284V14.142L105.978 14.3408L106.035 14.7667L105.92 14.9371V15.0507L105.777 15.1643L105.834 15.3063L105.691 15.4767V15.6471L105.347 16.0446L105.318 16.1582L105.232 16.215L105.089 16.499V16.6694L104.773 16.9533L104.859 17.1237L104.687 17.2657L104.659 17.6633L104.458 17.8053L104.257 18.0609L104.286 18.2028L104.171 18.5152L103.913 18.714L103.856 19.0548L103.712 19.1684V19.3103L103.512 19.6795L103.11 19.8499L103.053 19.9351L103.196 20.2191L103.11 20.2759L102.709 20.2475L102.336 20.4462L102.25 20.3895L102.106 19.9067L102.164 19.7363L102.106 19.6511L101.877 19.7931L101.762 19.7647L101.705 19.6511L101.82 19.4807L102.192 19.1684L102.135 18.998L102.25 18.8276L102.135 18.43L102.106 18.0609L102.221 18.0041L102.364 18.2028L102.479 18.2596L102.537 18.0609L102.508 17.9473L102.106 17.7485L102.078 17.5213L101.963 17.3225H102.192L102.25 17.5781L102.422 17.7201L102.537 17.7485L102.479 17.4929L102.823 17.2089L102.795 17.0953L102.479 17.1805L102.422 17.0669L102.45 16.9533L102.766 16.783L102.823 16.4422L102.623 16.3002L102.68 16.215L102.565 16.0162L102.795 15.8458L102.68 14.9371L102.766 14.8803H102.995L103.196 14.7383H103.368L103.483 14.5963L103.454 14.5112L103.053 14.3408V14.0852L103.225 13.9432L103.024 13.8012L102.995 13.6592L103.053 13.432L103.139 13.3469H103.282L103.397 13.2049L103.282 13.0629L103.167 13.0345L103.11 13.2617L103.024 13.3185L102.967 13.0913L103.053 12.6369L102.967 12.4097L102.995 12.1826L103.053 12.0974L102.795 11.7566L103.024 11.4726L102.852 11.1602L102.766 11.1034L102.909 10.8479L102.709 10.7343L102.651 10.5355L102.881 10.2515L102.795 9.82556L102.737 9.76876L102.565 9.88235L102.479 9.68357L102.336 9.54158L101.963 9.39959L101.734 9.45639L101.475 9.25761L101.389 9.22921ZM113.864 15.5051L113.548 15.4483L113.434 15.8742L113.348 15.931L113.376 16.1298L113.061 16.4706L112.717 17.0953V17.2373L112.545 17.3793L112.43 17.8053L112.258 17.9757V18.0892H112.659L112.803 17.8905L113.09 17.6349L113.176 17.4361L113.118 17.1521L113.262 16.9817L113.462 16.8966V16.6694L113.577 16.4706L113.749 16.5274V16.1298L113.806 16.0446L114.036 15.931L114.093 15.8458L113.979 15.7323L114.265 15.4199L114.208 15.3347L114.294 15.1075L114.495 15.0223L114.609 14.7099L114.781 14.5396L114.896 14.0284H115.183L115.269 13.9432L115.097 13.7444V13.432L115.212 13.2333L115.412 13.1765L115.298 12.7789L115.126 12.7505L114.724 12.9209L114.753 13.0061L114.609 13.432L114.437 13.6024L114.351 13.7728L114.409 14.1136L114.265 14.2272L114.179 14.1988L114.208 14.4544L114.151 14.568L114.523 14.6531L114.007 14.9371L113.864 14.8235L113.95 15.1359L113.864 15.3347L113.893 15.4199L113.864 15.5051ZM112.459 18.2312L112.373 18.146L112.315 18.2312H112.172L111.856 18.5436L111.799 18.7708L111.856 18.8844L112.201 18.6004V18.8276L112.344 18.9128L112.401 18.714L112.373 18.4868L112.487 18.3448L112.459 18.2312ZM102.192 14.0284L102.221 13.9148L102.479 14.0568L102.795 14.0284L102.852 14.4828L102.909 14.568L102.852 14.7667L102.766 14.8235L102.795 14.568L102.651 14.3692L102.393 14.284L102.278 14.0852L102.192 14.0284ZM100.873 17.4645L100.73 17.3509L100.701 17.2373L100.845 16.783L101.189 16.7546L101.246 16.8398L101.217 16.9533L101.389 17.1237V17.2089L101.303 17.2657L101.189 17.0101L101.103 16.9533H100.959L100.902 17.3509L100.873 17.4645ZM109.276 12.0974L109.161 12.0406L109.075 12.069L108.96 12.2961L109.046 12.4665L109.19 12.3245L109.218 12.211L109.276 12.0974ZM108.215 18.6856L108.387 19.0264H108.157L108.1 18.9128L108.128 18.714L108.215 18.6856ZM100.931 18.1176L100.816 18.0609L100.73 17.8337L100.787 17.7485L100.931 17.7769L100.959 18.0325L100.931 18.1176ZM100.73 19.2819L100.615 19.4523L100.5 19.4807V19.3103L100.644 19.14L100.701 19.1684L100.73 19.2819ZM100.845 20.0203L100.759 19.9635L100.787 19.7647L100.873 19.7079L100.959 19.7647L100.902 20.0203H100.845ZM100.959 19.3955L100.873 19.3387V19.0832L100.988 19.0548L101.017 19.2819L100.959 19.3955ZM101.934 14.568L101.791 14.2556L101.906 14.1988L102.02 14.568H101.934ZM109.304 18.2312L109.448 18.1744L109.505 18.0892L109.39 18.0041L109.304 18.0325L109.247 18.146L109.304 18.2312ZM108.903 15.3915L108.989 15.1927L109.161 15.1359V15.2211L109.046 15.3631L108.903 15.3915ZM109.017 19.6511L108.903 19.6227L108.845 19.8499L108.931 19.9351L108.989 19.7647L109.017 19.6511ZM102.221 15.2495L102.192 15.1359L102.25 15.0223L102.364 14.9655L102.336 15.1927L102.221 15.2495ZM100.644 20.3611L100.5 20.1907L100.558 19.9919L100.644 20.2475V20.3611ZM100.558 20.9858L100.529 20.8438L100.615 20.7586L100.673 20.929L100.615 21.0142L100.558 20.9858ZM99.8409 20.7018L99.7835 20.503L99.8696 20.4462L99.9269 20.645L99.8409 20.7018ZM102.508 18.6288L102.364 18.6004L102.307 18.714L102.45 18.7424L102.537 18.6572L102.508 18.6288ZM103.827 20.1623L103.798 20.0487L103.942 19.8499L103.884 20.1623H103.827ZM103.167 15.2779H103.053L102.938 15.4767L103.11 15.3915L103.167 15.2779ZM100.959 20.5882L100.873 20.5314L100.902 20.4179H101.017V20.5314L100.959 20.5882ZM109.534 23.286L109.505 23.3996H109.706L109.648 23.286H109.534ZM101.389 17.7769L101.303 17.7201L101.246 17.5781H101.361L101.389 17.6917V17.7769ZM102.565 12.1542L102.68 12.1258L102.709 12.211L102.651 12.2961L102.565 12.2394V12.1542ZM102.565 13.6308L102.594 13.432L102.709 13.4888L102.651 13.6024L102.565 13.6308ZM100.156 14.3976L100.242 14.1988L100.3 14.284L100.242 14.426L100.156 14.3976ZM112.745 17.6065L112.803 17.4077L112.774 17.2941H112.86L112.831 17.5213L112.745 17.6065ZM100.472 12.6085L100.529 12.4949L100.615 12.5233V12.6653L100.472 12.6085ZM99.3534 18.3448L99.296 18.2596L99.3247 18.1744H99.4394L99.4107 18.288L99.3534 18.3448ZM101.762 14.7099H101.877L101.934 14.8803L101.82 14.8235L101.762 14.7099ZM107.555 14.9371L107.756 14.8803L107.784 14.9655L107.67 14.9939L107.555 14.9371ZM107.641 23.0304V22.9452L107.756 22.9736L107.784 23.0588L107.698 23.0872L107.641 23.0304ZM108.931 21.0142L109.046 21.1562L109.132 21.1278L109.075 21.0426L108.931 21.0142ZM100.845 18.5152L100.787 18.43L100.845 18.3448L100.902 18.3732V18.4868L100.845 18.5152ZM113.778 15.3631L113.749 15.2495H113.634L113.663 15.3631H113.778ZM103.139 11.8134L103.196 12.0406L103.253 11.927L103.196 11.8134H103.139ZM109.591 14.8519L109.534 14.9371H109.734V14.8803L109.591 14.8519ZM108.931 14.8235L108.874 14.7667L109.017 14.6531V14.7667L108.931 14.8235ZM105.232 18.2028L105.203 18.0892H105.089L105.146 18.2028H105.232ZM103.339 12.3529L103.225 12.3245V12.4381H103.311L103.339 12.3529ZM110.91 20.8438L110.824 20.8154V20.7302H110.939L110.91 20.8438ZM106.293 21.2982H106.408L106.437 21.4402L106.351 21.3834L106.293 21.2982ZM102.25 16.4706L102.192 16.3854L102.25 16.3002L102.307 16.3854L102.25 16.4706ZM102.221 14.5112V14.3976L102.307 14.3124V14.426L102.221 14.5112ZM107.383 15.0223L107.412 14.9371L107.526 14.9087L107.498 14.9939L107.383 15.0223ZM99.8982 16.5558H100.013L99.9843 16.641H99.8982V16.5558ZM109.505 12.5801L109.333 12.7505L109.448 12.7221L109.505 12.5801ZM99.5541 17.1237L99.5254 17.0385H99.6115L99.6402 17.1237H99.5541ZM113.405 17.0953L113.348 17.1237L113.376 17.2089H113.434L113.405 17.0953ZM105.605 16.2718V16.1582L105.691 16.2434L105.605 16.2718ZM100.214 20.4179V20.503H100.156V20.4179H100.214ZM102.135 13.2049L102.106 13.1197L102.221 13.1481L102.135 13.2049ZM100.644 14.568L100.673 14.4828L100.73 14.568H100.644ZM109.448 20.7302L109.39 20.8154H109.476L109.448 20.7302ZM101.82 20.7302V20.6166L101.877 20.6734L101.82 20.7302ZM99.4107 20.3327L99.4968 20.3611L99.4107 20.3895V20.3327ZM102.25 21.4118L102.307 21.2982L102.336 21.3266L102.25 21.4118ZM98.149 16.3002L98.1776 16.2718H98.149V16.3002Z" fill="#F4ED3C"/>
<path d="M119.993 17.9473L119.62 18.0609L119.448 18.1744V18.43L119.276 18.5436L119.046 18.9128L119.018 19.2819L119.218 19.3955H119.104L118.932 19.3103L118.673 19.4807V19.5943L118.387 19.7931L118.329 19.9067L118.358 20.0487L118.014 20.2759L117.985 20.4179L117.784 20.5882L117.813 20.787L117.555 20.7586L117.326 21.1278L117.039 21.2982L116.982 21.4402L116.609 21.5254L116.322 21.0142L116.437 20.6734L116.637 20.5598L116.666 20.4462L116.609 20.2475L116.695 19.9635L116.609 19.8215L116.494 19.8499L116.293 19.7647L116.265 19.6795L116.322 19.5943L116.58 19.6227L116.551 19.3955L116.609 18.9128L116.752 18.7708L116.723 18.572L116.58 18.43L116.752 18.1744L116.723 17.9757L116.838 17.6349L116.809 17.5213L116.953 17.3793L117.01 16.8114L116.953 16.6978L117.096 16.5274V16.3002L117.268 15.789L117.154 15.5619L117.268 15.3631L117.154 15.1075L117.326 14.9087V14.284L117.526 14.0284L117.383 14L117.326 13.8864L117.498 13.6308L117.354 13.4037L117.67 13.2049L117.727 13.1197L117.67 12.8925L117.727 12.8073L117.698 12.4381L117.871 12.2677L117.842 12.1258L117.928 11.9838L118.157 11.8986L118.329 11.7566L118.358 11.6714L118.157 11.3874L118.387 11.0183L118.444 10.8195L118.846 10.5639L118.788 10.2231L118.903 10.0811L119.104 10.2231L119.218 10.0527V9.82556L119.419 9.54158V9.3712L119.562 9.20081L119.763 8.63286L119.62 8.1501L119.763 8.00811L119.849 7.78093L119.792 7.55375L120.079 7.52535L120.165 7.46856L120.193 7.32657L120.079 7.12779V6.9858H120.337L120.537 6.36105V6.13387L120.681 6.04868V5.7931L120.91 5.48073L120.71 5.11156L120.623 4.714L120.796 4.25963V3.91886L120.882 3.83367L121.14 3.74848L121.111 3.60649L120.796 3.29412V3.15213L120.681 2.95335L120.71 2.75456L120.566 2.49899L120.796 2.2718L120.451 2.01623L120.423 1.90264L120.48 1.70385L120.394 1.64706L120.193 1.1927L120.079 1.1643L119.907 1.02231L119.763 0.681541L119.62 0.653144L119.161 0.198782L118.759 0.283975L118.559 0.170385L118.444 0.198782L118.043 0L117.612 0.0283973L117.01 0.340771L117.039 0.45436L116.896 0.738337V0.880325L116.666 1.02231L116.781 1.44828V1.70385L116.58 1.90264L116.551 2.2718L116.322 2.357L116.207 2.78296L116.293 3.20892L116.121 3.35091V3.66329L116.064 3.77688L115.834 3.86207L115.662 4.00406L115.49 4.34483L115.576 4.57201V5.16836L115.462 5.31034L115.519 5.59432L115.347 5.73631V5.8499L115.232 6.02028L115.204 6.44625L115.06 6.61663L115.032 6.73022L115.089 6.9574L114.974 7.12779L115.06 7.35497L114.773 7.61055L114.687 7.86613L114.515 8.00811L114.458 8.1501L114.544 8.32049V8.54767L114.286 8.88844V9.03043L114.114 9.286L114.085 9.65517L114.2 9.85396L114.143 10.0527L113.942 10.1947L113.884 10.3083V10.6207L113.655 10.7343L113.798 11.1318L113.77 11.501L113.569 11.5862L113.598 11.8134L113.483 11.8702L113.512 12.211L113.254 12.6085L113.282 12.8925L113.426 13.1481L113.196 13.432V13.6308L113.139 13.716L112.967 13.8012L113.139 14.0284L113.081 14.2556L113.254 15.1075L112.967 15.2211L113.024 15.5051L112.737 15.5619L112.967 15.8174L113.024 16.3286L112.967 16.4138L112.766 16.499L112.709 16.5842L112.766 16.8114L112.737 16.9817L112.967 17.1805L113.196 17.7769L112.967 17.9189V18.2028L113.196 18.572L113.11 18.7708L112.938 18.9696L113.11 19.0832L113.368 18.998L113.483 19.14L113.168 19.2252L113.11 19.3103L113.34 19.5943L113.11 19.7931L113.081 19.9351L113.34 20.503L113.54 20.5314V20.8154L114.143 21.6389L114.315 21.7241L114.573 22.0365L114.745 22.1501L115.404 22.2353L115.548 22.3773L116.007 22.4909L116.093 22.5761L116.121 22.4341L116.236 22.3773L116.551 22.7181L116.781 22.7465L117.182 22.5477H117.297L117.555 22.2353L117.784 22.2069L117.899 22.0365L118.215 22.0081L118.243 21.8377L118.043 21.7241L117.985 21.6389L118.186 21.497L118.129 21.1562L118.272 20.9858L118.387 21.1846L118.53 21.2698L118.645 21.213L118.53 20.9006L118.587 20.6166L118.702 20.4179L119.018 20.3895L119.132 20.1907L119.333 19.9919L119.161 19.7079L119.276 19.6511H119.505L119.62 19.5943L119.648 19.2252L119.878 19.14L119.907 18.8276L120.136 18.572L120.079 18.3732L120.251 18.2312L120.279 18.0892L120.107 17.9757L119.993 17.9473ZM118.501 5.8215L118.473 5.70791L118.616 5.05477L118.559 4.82759L118.759 4.54361L118.731 4.43002L118.473 4.23124L118.616 3.97566L118.587 3.86207L118.702 3.69168L118.645 3.4929L118.501 3.4645L118.157 3.5213L118.272 3.35091L118.587 3.09533L118.616 2.98175L118.272 2.92495L118.186 2.83976V2.3286L118.387 2.2718L118.587 2.3002V2.18661L118.358 1.90264L118.415 1.78905L118.702 1.93103L118.903 1.84584L119.046 1.64706L119.39 1.47667L119.821 1.67546L119.964 1.87424L120.107 1.93103L120.021 2.3002L120.107 3.83367L120.279 4.25963L120.107 4.37323L119.993 4.6856L120.021 4.79919L119.907 4.94118L119.993 5.13996L120.079 5.76471L119.849 5.8783L119.878 6.19067L119.534 6.87221L119.505 7.09939L119.304 7.21298L119.276 7.41177L119.333 7.61055L119.161 7.75254V7.89452L118.903 8.26369L118.874 8.40568L118.788 8.46247L118.673 8.77485L118.702 9.00203L118.645 9.08722L118.186 9.11562L118.1 9.17241V9.3144H118.387L118.415 9.48479L118.301 9.54158L118.043 9.3428L117.784 9.286L117.928 9.14402L118.1 8.74645L118.129 8.51927L118.071 8.46247H117.928L117.871 8.51927L117.784 8.49087L117.813 8.37728L118.243 8.2069L118.415 8.23529L118.272 7.92292L118.301 7.83773L118.186 7.52535L118.071 7.46856H118.301L118.444 7.26978V7.15619H118.215L118.301 6.75862L117.985 6.61663L118.129 6.16227L118.243 5.96349L118.415 5.8499L118.501 5.8215ZM123.376 12.0122L123.233 12.1826L123.118 12.2394L122.975 12.4949L122.86 12.5517L122.717 12.8925L122.574 13.0061L122.459 13.432L122.545 13.6592L122.487 13.7728L122.373 13.574L122.201 13.6592L122.172 14.0284L121.885 14.2556L121.799 14.9087L121.34 15.4483H121.283L121.226 15.5335L121.197 15.8174L120.996 15.9594L120.796 16.2434L120.939 16.4138L120.853 16.4706L120.681 16.4138L120.48 16.5558L120.537 16.783L120.193 17.0385L120.079 17.2089L120.165 17.4361L120.079 17.5781L119.878 17.6633L119.821 17.7769L120.509 17.8905L120.681 17.8053L120.738 17.5781L120.968 17.3793L120.853 17.1521V17.0385L121.111 17.0953L121.512 16.2434L121.713 16.1014L121.742 15.9026L122.029 15.7323L122.057 15.6471L121.914 15.5051L122 15.3915L122.143 15.3631L122.229 15.2779L122.344 14.9939L122.229 14.7099H122.401L122.545 14.2556L122.746 14.3408L122.803 13.9148L123.176 13.3753L123.262 13.0061L123.52 12.8641L123.233 12.5801V12.5233L123.319 12.4949L123.462 12.5801H123.577L123.692 12.1542L123.663 12.0122L123.52 11.8418H123.434L123.376 12.0122ZM116.551 7.32657L116.924 7.46856L117.182 7.41177L117.211 7.55375L117.154 7.66734L117.211 7.95132L117.096 7.97972L116.551 7.46856V7.32657ZM118.215 7.97972L118.129 8.06491L117.899 8.09331L117.756 7.89452L118.1 7.95132L118.215 7.97972ZM116.838 15.7323L116.637 15.6471L116.609 15.5051L116.723 15.4767L116.924 15.5619V15.6755L116.838 15.7323ZM118.243 1.1927V1.33469L118.186 1.41988L118.071 1.44828L117.985 1.36308L118.129 1.22109L118.243 1.1927ZM119.878 18.43L119.792 18.4584L119.677 18.4016L119.648 18.3164L119.706 18.2312L119.878 18.3164V18.43ZM117.756 2.61258L117.67 2.72617L117.498 2.61258L117.584 2.52738H117.698L117.756 2.61258ZM117.555 5.42393L117.698 5.39554L117.756 5.53753L117.641 5.59432L117.555 5.53753V5.42393ZM120.509 17.4645L120.537 17.3509L120.652 17.2941L120.738 17.3225L120.71 17.4645L120.623 17.4929L120.509 17.4645ZM117.985 7.07099L118.071 7.09939L117.985 7.26978L117.871 7.29817V7.15619L117.985 7.07099ZM115.806 13.3753L115.691 13.3185V13.2049H115.892L115.863 13.3185L115.806 13.3753ZM116.781 12.2677L116.723 12.3813H116.609L116.58 12.2677L116.666 12.211L116.781 12.2677ZM120.71 3.40771V3.5213L120.566 3.57809L120.537 3.4645L120.623 3.40771H120.71ZM116.551 9.76876L116.666 9.62677L116.781 9.65517L116.752 9.74037L116.637 9.79716L116.551 9.76876ZM112.938 17.4929H112.737V17.6065L112.852 17.6349L112.938 17.5497V17.4929ZM118.874 20.8438L118.96 20.7586V20.6166L118.846 20.645L118.817 20.7586L118.874 20.8438ZM116.551 7.83773V7.95132L116.465 8.00811L116.351 7.95132L116.408 7.86613L116.551 7.83773ZM116.236 12.8641L116.064 12.8925V12.7789L116.179 12.7505L116.236 12.8641ZM119.276 9.51318H119.104L119.132 9.39959H119.247L119.276 9.51318ZM116.723 6.47464L116.666 6.64503L116.609 6.58823V6.47464H116.723ZM117.928 4.91278L117.842 4.96957L117.756 4.85598H117.871L117.928 4.91278ZM117.698 10.1095L117.871 10.1379L117.813 10.2231H117.727L117.698 10.1095ZM118.473 6.41785L118.444 6.27586H118.358V6.38945L118.473 6.41785ZM116.007 10.7059L115.921 10.6775V10.5923H116.035L116.007 10.7059ZM118.129 2.21501V2.3286H117.985L118.043 2.24341L118.129 2.21501ZM114.515 15.5051H114.429V15.3915H114.515V15.5051ZM115.748 20.1907L115.777 20.0771L115.863 20.1623L115.748 20.1907ZM120.509 6.21907L120.394 6.10548H120.48L120.509 6.21907ZM118.731 2.69777L118.673 2.55578V2.66937L118.731 2.69777ZM120.279 5.22515L120.193 5.19675L120.251 5.13996L120.279 5.22515ZM117.125 8.91683V8.86004H117.211L117.125 8.91683ZM122.401 14L122.43 13.9432L122.459 14H122.401Z" fill="#F4ED3C"/>
<path d="M127.04 9.51318L126.782 9.3712L126.61 9.17241L126.409 9.20081L125.893 9.45639L125.864 9.74037L125.664 9.76876L125.549 9.71197L125.664 9.48479L125.348 9.39959L125.291 9.48479L125.32 9.71197L125.119 9.76876L124.746 9.99594L124.603 10.1947L124.488 10.2515L124.459 10.3935L124.373 10.4787H124.115L124.086 10.7343L124.029 10.8195L123.8 10.8479L123.742 11.0751L123.513 11.1602L123.456 11.2738L123.628 11.4158L123.685 11.5294L123.37 11.7282L123.169 12.0122L123.14 12.1826L122.939 12.2961H122.825L122.681 12.4097L122.538 12.3529L122.308 12.7789L122.452 13.0345L122.308 13.2049L122.423 13.4037V13.5172L122.222 13.5456L121.821 13.4888L121.907 13.716L121.764 14.1136L121.506 14.4544L121.563 14.9371L121.362 15.1643V15.4767H121.133L121.047 15.5619L121.133 15.6471H121.333L121.391 15.7323L121.075 16.073V16.2434L120.989 16.4706L121.161 16.5558L121.19 16.7262L121.075 16.8966L121.133 17.0101L121.276 17.1237L121.19 17.4929L121.305 17.5213H121.161L121.133 17.8053L121.276 17.8905L121.362 18.288L121.678 18.998L121.993 19.2535L122.079 19.4523L122.308 19.6795L122.452 19.6227L122.509 19.7079L122.538 19.9351L122.825 20.2191L122.939 20.4179L123.283 20.4746L123.37 20.5598L123.427 20.7586L123.513 20.8154L123.886 20.7302L124.029 20.8154L124.115 20.7018L124.287 20.8154L124.402 20.9858H124.517L124.689 20.9006L125.09 21.1278L125.205 21.0994L125.262 20.9858L125.549 20.8154L125.492 20.7586L125.549 20.503L125.635 20.4746L125.893 20.5598L126.036 20.7302L126.18 20.5314L126.495 20.3611L126.61 20.4462H126.725L126.897 20.1339H126.782L126.553 20.2759L126.639 20.0487L127.04 19.7363L127.327 19.8499L127.499 19.7647L127.528 19.6795L127.241 19.5091L127.442 19.2252L127.642 19.3387L127.843 19.2819L127.872 19.0264L128.015 18.9696L127.9 18.7424L127.986 18.6572L128.302 18.7424V18.4584L128.732 18.1176L128.675 18.0041L128.99 17.6917H129.277L129.42 17.9189L129.363 18.0892L129.592 18.288L129.535 18.4016L129.277 18.43L129.191 18.5152L129.22 19.1116L129.42 19.1684V19.3103L129.105 19.7363L129.162 19.9351L129.076 20.2759L129.277 20.3043L129.191 20.5314L129.277 20.7018L129.306 21.2698L129.42 21.213L129.535 21.2414L129.277 21.6389L129.363 21.5821H129.707L129.85 21.5254L129.936 21.5821L129.85 21.6957L129.592 21.6673L129.392 21.9513L129.65 21.9229L129.764 22.0081L129.449 22.2069L129.65 22.3489L129.994 22.2921L129.822 22.4341L129.707 22.7465L129.822 22.7748L130.166 22.6897L130.281 22.7748L129.994 22.9452L130.08 23.0872L130.625 23.6268L130.711 23.7972L130.912 23.7404L131.055 23.3428L131.17 23.3712L131.227 23.4848L131.026 23.712V24.0811L131.858 24.0527L132.116 24.1379L132.231 23.9675L132.431 23.8256L132.632 23.854L133.034 23.3996L132.919 23.2008L133.148 23.0588L133.062 22.9452V22.8316L133.177 22.6613V22.5193H132.919L132.775 22.8884L132.632 22.9168L132.517 22.5477H132.661L132.89 22.2637L132.661 22.2069L132.46 22.2353L132.374 22.1501L132.403 22.0365H132.661L133.005 21.7525L132.862 21.6673L133.091 21.2698L132.489 21.3266L132.231 21.2982L132.173 21.2414L132.231 21.0994L132.145 20.9006L132.374 20.787L132.403 20.645L132.345 20.503L132.517 20.3895L132.747 20.3327L132.632 20.1339L132.833 19.8783L132.718 19.7931L132.288 19.8783L131.973 19.7931L131.686 19.9635H131.6L131.37 19.7079L131.944 19.6511L132.059 19.7363L132.661 19.5943L132.718 19.5091L132.546 19.4239L132.517 19.3103L132.919 19.2535L133.005 19.1968L132.948 19.1116L132.603 19.0832L132.489 18.998V18.9128L132.575 18.856H132.919L133.005 18.43L132.632 18.2596L132.575 18.1744L132.689 18.0892H132.948L133.034 18.0325L132.976 17.9473L132.804 17.9189L132.747 17.8337L132.862 17.5781L132.775 17.2941L132.862 17.2373L133.263 17.2941L133.234 17.1805L133.062 16.9817V16.8682L133.349 16.357L133.234 16.1866L133.492 15.9878L133.521 15.9026L133.464 15.789L133.148 15.8458L133.091 15.6471L133.148 15.5619L133.349 15.4483L133.378 15.2779L133.492 15.1075L133.292 14.6815L133.378 14.5396L133.492 14.4828L133.263 14L133.492 13.9432L133.722 13.6308L133.808 13.1765L133.779 13.0913L133.894 13.0629L133.98 12.9493L133.865 12.7221L133.693 12.5801L133.837 12.3813L133.808 12.2961L134.037 12.0122L133.98 11.8986L133.779 11.9554L133.808 11.7566L133.894 11.6146L133.865 11.501L134.037 11.3874L134.238 11.359L134.324 11.2738L134.123 11.1602L134.009 11.1886L133.722 11.1034L133.464 11.1602L133.378 11.1034L133.435 10.9899L133.693 10.9331L133.751 10.8479L133.464 10.7343L133.406 10.6491H133.521L133.693 10.5639H133.98L133.865 10.8763L133.894 10.9899L134.181 10.9615L134.267 10.9047L134.209 10.7059L134.238 10.4787L134.181 10.3935L133.951 10.3651L133.837 10.4219L133.693 10.2799L133.521 10.2515L133.464 10.1663L133.693 10.1379L133.722 10.0811L133.263 9.82556L133.034 9.91075L132.948 9.82556L133.005 9.68357L132.804 9.51318L132.632 9.62677L132.288 9.56998L132.087 9.74037L131.514 9.65517L131.399 9.91075V10.1663L130.94 10.3651V10.8763L130.682 11.217V11.359L130.453 11.3874L130.424 11.5294L130.539 12.0406L130.424 12.1542L130.309 12.1826L130.424 12.3813L130.281 12.5517L130.08 12.6369L129.908 12.9493L129.879 13.2901L129.736 13.432L129.85 13.6308L129.793 13.7444L129.65 13.8296L129.707 14L129.22 14.7667L128.961 15.0507L128.675 15.6187L128.703 15.8174L128.617 15.8742L128.388 15.9026L128.245 16.073L128.187 16.3286L128.015 16.4706L127.929 16.7262H127.786L127.7 16.783L127.642 17.2089L127.499 17.1237L127.356 17.2657V17.5213L127.27 17.7201L127.155 17.6349H127.069L126.409 18.0892L125.922 18.0041L125.75 17.8337L125.492 17.7769L125.406 17.6917V17.3509L125.348 17.2373L125.234 17.2657L125.205 17.3793L125.291 17.5781L125.176 17.7201L125.061 17.6633H124.832L124.918 17.4077L124.545 17.0953L124.717 17.0101L125.147 17.0953L125.262 17.0669L125.291 17.0101L125.205 16.7262L125.434 16.499L125.291 16.3002L125.434 16.1014L125.32 15.8742L125.406 15.8174H125.606L125.549 15.4767L125.348 15.4199L125.406 15.3063L125.664 15.1927L125.75 14.7383L125.52 14.6815L125.893 14L125.606 13.858L125.578 13.7728L125.979 13.6592L126.036 13.574L125.778 13.5172L125.75 13.432L125.95 13.2617L126.008 13.1481L125.95 12.9493L125.979 12.8357L125.807 12.6369L126.122 12.5233L126.151 12.3245L126.323 12.211L126.438 12.0122L125.922 11.8702L125.893 11.7566L126.237 11.6714L126.295 11.5862L126.266 11.4158L126.61 11.3022L126.782 11.1318L126.667 10.9331L127.011 10.8479L127.126 10.7627L127.442 11.0467L127.556 11.217L127.614 11.4442L127.872 11.5578L127.929 11.643L127.872 11.927L128.273 12.3813L128.474 12.3529L128.617 12.5233L128.904 12.6369L129.363 12.0406L129.22 11.6714V11.4442L128.99 11.1886V11.0467L128.732 10.6207L128.503 10.5071L128.445 10.4219L128.474 10.2515L128.417 10.1663L127.958 10.0811L127.9 10.0243L127.929 9.56998L127.528 9.54158L127.356 9.39959L127.126 9.3144L127.097 9.42799L127.04 9.51318ZM132.288 17.2089L132.46 17.4361L132.689 17.2941L132.661 17.5497L132.546 17.7485L132.489 17.7201L132.259 18.0041L132.059 17.9757L132.001 18.0892L132.087 18.1744H132.173L132.231 18.288L131.915 18.4016L131.858 18.3164V18.0041L131.628 17.7201L131.657 17.6349L131.829 17.5497H131.944L132.173 17.2373L132.288 17.2089ZM131.485 21.8661L131.628 21.7809L131.887 21.7525L131.8 21.8377L131.887 22.0081L132.288 22.3205L132.202 22.4057L131.542 22.4625L131.313 22.4057L131.198 22.2637L131.227 22.1785L131.428 22.2069L131.514 21.9797L131.485 21.8661ZM132.03 22.8032L132.259 22.5477H132.489L132.259 22.86L132.231 22.9736L132.288 23.0872L132.145 23.2008L132.03 23.3996L132.087 23.4564V23.57L131.973 23.428L131.714 23.4848L131.628 23.428L131.657 23.3144L131.8 23.2292L131.915 23.286L131.973 23.0872L132.116 22.9168L132.03 22.8032ZM132.804 24.1379L132.948 24.0243L132.862 23.9391L132.575 23.9107L132.231 24.1379L132.374 24.3083L132.603 24.2799L132.747 24.1379H132.804ZM131.542 21.0142L131.743 20.929L131.686 21.0994L131.858 21.3266L131.829 21.4118H131.342V21.2982L131.628 21.1278L131.542 21.0142ZM130.223 19.14L130.281 19.0548L130.768 18.8844L130.739 18.998L130.395 19.3671L130.281 19.2252L130.223 19.14ZM124.115 19.3671L124.086 19.2252L124.172 19.0548L124.345 18.9696H124.459L124.316 19.3103L124.23 19.3671H124.115ZM132.919 10.7627L132.948 10.6491L133.12 10.5355L133.349 10.5639L133.406 10.6491L133.005 10.7627H132.919ZM132.489 21.5254L132.689 21.6389L132.718 21.7241L132.517 21.8945L132.46 21.8377L132.431 21.6105L132.489 21.5254ZM132.603 17.0101L132.718 16.8114L132.89 16.783L132.862 17.0101L132.804 17.0953L132.689 17.0669L132.603 17.0101ZM131.112 17.4929L131.141 17.3793L131.399 17.3509L131.485 17.4077L131.456 17.5213L131.227 17.5497L131.112 17.4929ZM132.489 13.9432L132.603 13.7728L132.718 13.716L132.833 13.7728L132.689 13.9716L132.575 14L132.489 13.9432ZM131.542 19.2252L131.8 19.3671L132.03 19.2535L132.001 19.3955L131.915 19.3671L131.6 19.4239L131.485 19.3955L131.514 19.2819L131.542 19.2252ZM132.919 20.929L132.546 20.9006L132.374 21.0426L132.489 21.071L132.689 20.9858L132.89 21.0142L132.919 20.929ZM130.883 19.7931L131.112 19.7363L131.198 19.7647L130.912 19.8783L130.596 19.8499L130.653 19.7647L130.768 19.7363L130.883 19.7931ZM132.001 20.2475L132.087 20.0771L132.345 20.1339L132.317 20.2191L132.087 20.2759L132.001 20.2475ZM133.062 11.5578L133.091 11.4726L133.177 11.4442L133.378 11.5294L133.234 11.643L133.12 11.6146L133.062 11.5578ZM132.489 18.714L132.632 18.5436L132.833 18.6004L132.775 18.6856L132.575 18.7424L132.489 18.714ZM132.431 23.2292L132.603 23.1156L132.689 23.2292L132.489 23.428V23.3428L132.431 23.2292ZM129.478 17.5497L129.592 17.3509L129.678 17.3225L129.764 17.4077L129.592 17.5781L129.478 17.5497ZM130.195 21.6105L130.223 21.497L130.424 21.355L130.481 21.4118L130.338 21.5821L130.195 21.6105ZM130.94 19.3955L130.998 19.2819L131.141 19.2252L131.198 19.3103L131.055 19.4523L130.94 19.3955ZM132.747 15.2779L132.948 15.1643L133.034 15.1927L132.919 15.3631H132.833L132.747 15.2779ZM124.029 16.8966L124.115 16.6978L124.316 16.6694L124.172 16.8682L124.029 16.8966ZM132.919 20.5882H132.603L132.575 20.6734L132.804 20.7018L132.89 20.645L132.919 20.5882ZM131.743 20.929L131.772 20.8438L131.887 20.787L132.001 20.8154L132.059 20.9006L131.829 20.929H131.743ZM129.42 19.9919V19.9067L129.564 19.7647L129.678 19.7363L129.535 19.9635L129.42 19.9919ZM131.485 18.714L131.514 18.572L131.6 18.4868L131.686 18.5436L131.628 18.6572L131.485 18.714ZM122.825 17.1805L122.853 17.0953L122.997 17.1237L123.054 17.2373L122.939 17.2657L122.825 17.1805ZM133.263 13.6024L133.378 13.5172L133.492 13.5456L133.464 13.6876L133.349 13.6592L133.263 13.6024ZM132.202 19.3955L132.231 19.2819L132.431 19.2252L132.403 19.3387L132.202 19.4239V19.3955ZM130.137 22.1217L130.023 22.0649L130.08 21.8945L130.166 21.9513V22.0933L130.137 22.1217ZM130.998 18.6288L131.084 18.4868L131.198 18.5152L131.141 18.6288L131.026 18.6856L130.998 18.6288ZM131.399 20.645L131.456 20.5314L131.6 20.503L131.571 20.6166L131.485 20.6734L131.399 20.645ZM126.18 12.7789L126.094 12.7221L126.008 12.8925H126.18V12.7789ZM131.485 18.998H131.686L131.657 19.1116H131.514L131.485 18.998ZM131.915 18.8276H132.03L132.116 18.9128L132.059 18.9696L131.944 18.9412L131.915 18.8276ZM128.073 18.0041V17.8905L128.159 17.8621L128.216 17.9189L128.187 18.0325L128.073 18.0041ZM131.055 20.2475L131.141 20.2191L131.313 20.3043L131.055 20.3327V20.2475ZM130.682 11.6146L130.711 11.5578H130.825L130.883 11.643L130.768 11.6714L130.682 11.6146ZM130.625 13.5456L130.682 13.4604H130.825L130.768 13.574L130.625 13.5456ZM133.349 23.2008L133.32 23.2576L133.378 23.3428L133.492 23.286L133.464 23.2292L133.349 23.2008ZM132.087 15.2495V15.2211L132.231 15.2779L132.202 15.3915L132.116 15.3347L132.087 15.2495ZM132.173 21.7525V21.8377L131.887 21.7525H132.173ZM131.714 22.9452L131.743 22.8316H131.858L131.8 22.9452H131.714ZM133.148 17.5213L133.062 17.5497L133.034 17.6349L133.148 17.6633V17.5213ZM134.439 11.6714L134.353 11.5862H134.238L134.295 11.6714H134.439ZM125.406 14.142L125.52 14.1136V14.2272L125.463 14.2556L125.406 14.142ZM124.316 16.4138L124.459 16.3854V16.4706L124.373 16.499L124.316 16.4138ZM128.503 18.0041H128.417L128.388 17.9189H128.503V18.0041ZM133.492 22.8032L133.406 22.8316L133.435 22.9168L133.521 22.86L133.492 22.8032ZM133.034 20.1907L132.948 20.3043H133.062L133.034 20.1907ZM124.287 17.2941V17.1805L124.373 17.2373L124.345 17.2941H124.287ZM133.091 23.8824L132.976 23.9391L133.091 23.9959V23.8824ZM130.998 16.783L131.112 16.8114L130.998 16.8682V16.783ZM133.492 11.9838L133.406 11.8986H133.492V11.9838ZM131.284 20.9858L131.37 20.9574V21.0426L131.284 20.9858ZM130.711 16.641L130.682 16.5274H130.739L130.711 16.641ZM130.596 23.8824L130.625 23.9391L130.711 23.9107L130.596 23.8824ZM130.395 20.8438L130.367 20.787L130.453 20.7586L130.395 20.8438ZM130.367 22.6897L130.453 22.6613L130.395 22.7465L130.367 22.6897ZM127.528 18.0892H127.614L127.528 18.146V18.0892ZM121.592 17.0953V17.0385L121.649 17.1237L121.592 17.0953ZM127.011 20.0771V20.1339L126.983 20.1055L127.011 20.0771Z" fill="#F4ED3C"/>
<path d="M146.003 10.9047L145.917 10.7059L145.831 9.91075L145.687 9.62677L145.487 9.74037L145.343 9.48479L145.171 9.51318L144.913 9.20081L144.827 8.97363L144.626 9.00203L144.454 8.86004L144.282 8.88844L144.168 9.08722L144.082 9.14402L143.996 9.08722L143.795 9.17241L143.651 9.00203H143.508L143.336 9.20081L143.164 9.08722L143.078 9.14402L143.049 9.3428L142.791 9.65517L142.648 9.68357L142.447 10.1379L142.246 10.1095L142.132 10.3083L142.103 10.5071L142.16 10.6207L142.074 10.6775L141.873 10.5923L141.931 10.9047L141.759 10.8763L141.701 11.0751L141.673 11.5862L141.558 11.7566L141.472 11.7282L141.357 12.2394L141.013 12.3813L140.927 12.5517V12.7789L140.64 12.9493L140.325 13.4604L140.239 13.4888L140.095 13.4037L140.009 13.1481L140.21 13.0913L140.009 12.3813L140.182 12.1258L140.095 11.785V11.3022L140.268 11.1602L140.354 10.9899L140.526 10.9047L140.411 10.7911L140.296 10.9047L140.124 10.7627L140.067 10.5071L140.153 10.3935L140.009 10.0811L140.067 9.96754L140.009 9.48479H139.809L139.694 9.286V9.03043L139.751 8.91683L139.665 8.74645L139.579 8.68966L139.235 8.77485L139.178 8.68966L139.264 8.51927L139.12 8.37728L139.006 8.34888L138.805 8.46247L138.69 8.26369L138.49 8.29209L138.375 8.2069L138.203 8.32049L138.117 8.09331L137.801 8.2069L137.572 8.1785L137.342 8.37728H137.113L136.998 8.43408L136.74 9.20081L136.941 9.65517L136.712 9.74037L136.74 9.96754L136.597 11.6998L136.425 11.8702L136.396 11.9838L136.54 12.2961L136.511 12.5233L136.253 12.7221L136.31 12.9493L136.253 13.1765L136.31 13.4037L136.224 13.6024L136.138 14.1704L136.023 14.3408L135.851 14.9371L135.937 15.1643L135.88 15.4483L135.737 15.6187L135.909 16.0162L135.823 16.1014L135.593 16.1866V16.3002H135.794L135.565 16.499L135.651 16.6694L135.622 17.3793L135.335 17.7201V18.2312L135.163 18.4584L135.278 18.9128L135.163 19.1116V19.3103L134.934 19.3955L134.876 19.4807L135.048 19.8499L135.02 20.0487L134.905 20.2475L135.192 20.503L135.163 20.6734L135.249 20.929L135.421 21.071L135.45 21.213L135.565 21.355V21.6389L135.737 21.7809L135.937 21.7525L136.138 21.8377L136.339 21.7241L136.654 21.6957L136.826 21.3834V21.2414L137.256 21.1562L137.371 21.1846L137.486 21.5254L137.601 21.4686V20.7302L137.715 20.503L137.687 20.3895L137.801 20.3043L138.145 20.4462L138.346 20.0771L138.576 19.8499L138.719 19.5091L138.518 19.3103L138.834 19.0264L138.862 18.9128L139.092 18.6572L139.063 18.5152L138.862 18.6288L138.748 18.4868L139.092 18.2312L138.948 17.6917L139.149 17.6065L139.293 17.6349L139.321 17.4361L139.551 17.1521L139.522 16.9249L139.407 16.6978L139.665 16.7546L139.694 16.499L139.981 16.3854L140.038 16.1582L140.009 15.931L140.095 15.8174L140.124 15.5903L140.239 15.5051H140.354L140.497 15.3631L140.526 15.1359L140.44 14.9087L140.468 14.7099L140.554 14.6247L140.698 14.7667L140.87 14.5112L141.013 14.0852L140.927 13.9148L141.013 13.3469H141.099L141.243 13.4604H141.357L141.386 13.2617L141.501 13.2049L141.615 13.0345L141.873 12.2961L141.931 12.2677L142.017 12.4097L142.074 13.0061L142.045 13.2049L142.16 13.4037L142.218 14L142.103 14.284L142.218 14.6247L142.39 14.7099L142.476 14.9371L142.848 15.1927L142.877 15.3347L143.049 15.4767L143.393 15.931L143.508 15.789L143.594 15.7606L143.737 15.8742H143.852L144.082 15.6187L144.34 15.6755L144.454 15.6187L144.512 15.4767L144.368 15.2211L144.712 14.9087L144.798 15.1359L144.712 15.3631L144.827 15.3347L144.971 14.9087L145.257 15.0223L145.487 14.7951H145.601L145.802 14.5112V14.3408L145.888 14.142L145.859 13.8864L145.946 13.6592L145.917 13.5456L145.716 13.2901L145.859 13.0913L145.802 12.6653L146.089 12.3245L146.032 12.211H145.859L145.802 12.0974L145.859 11.5862L145.773 11.3874L145.946 10.9899L146.146 11.0751L146.089 10.9615L146.003 10.9047Z" fill="#F4ED3C"/>
<path d="M152.907 1.30629H152.648L152.247 1.1359L151.932 1.1643L151.874 1.07911L151.673 1.1359L151.444 1.53347L151.473 1.84584L151.215 1.93103L150.698 2.86815L150.727 3.09533L150.584 3.26572V3.37931L150.412 3.72008L150.498 3.86207L150.412 4.03245V4.14604L150.297 4.25963V4.34483L150.469 4.6572L150.412 4.74239L150.211 4.82759L150.068 5.28195L150.211 5.36714L150.068 5.93509L150.096 6.04868L149.924 6.50304L150.039 6.73022L149.838 7.21298L149.867 7.61055L149.695 7.83773L149.982 8.1217L149.809 8.23529L149.695 8.40568L149.666 8.54767L149.838 8.74645L149.695 8.86004V8.97363L149.551 9.14402V9.286L149.695 9.54158L149.58 9.74037V10.4503L149.437 10.5923L149.408 10.7059L149.551 10.8763L149.351 11.4158L149.465 11.8986L149.322 12.0406L149.293 12.1826L149.551 12.3245L149.351 12.7221V12.9777L149.437 13.2049L149.494 13.6876L149.637 13.9716L149.838 13.9148L149.953 13.9716L149.752 14.3124V14.426L149.809 14.4828L150.44 14.4544L150.641 14.568L150.871 14.5963L150.928 14.426L151.358 14.0852L151.587 14.0284L151.874 13.858L151.817 13.6592L151.587 13.6308V13.4037L151.788 13.3185L151.932 13.1197L152.419 12.8357V12.7221L152.276 12.4665L152.304 12.3245L152.505 12.211V11.8418L152.648 11.643L152.62 11.4726L152.821 11.217L153.021 11.1318L153.05 10.9615L152.935 10.9047L152.706 10.9899L152.735 10.8763L152.849 10.8195L152.993 10.6207L153.107 10.5639L153.165 10.3083L153.337 10.1663L153.193 10.0811L153.05 10.2515L152.878 10.1095L152.849 10.0243L153.251 9.79716L153.308 9.3428L153.423 9.3144L153.509 9.48479L153.566 9.39959L153.451 9.11562L153.566 8.68966L153.767 8.60446L153.796 8.51927L153.738 8.40568L153.767 8.2069L153.939 7.78093V7.41177L154.054 7.24138V7.15619L154.283 7.07099L154.14 6.81542L154.254 6.38945L154.426 6.13387L154.254 5.93509L154.455 5.56592L154.283 5.45233L154.254 5.36714L154.369 5.02637L154.57 4.94118L154.627 4.82759L154.599 4.40162L154.857 4.11765L154.828 3.89047L154.943 3.4929L154.828 3.18053L154.943 3.01014L155 2.78296L154.971 2.52738L154.771 2.44219L154.541 2.24341L154.312 2.3286L154.226 2.2718L154.197 2.04462L154.254 1.93103L154.111 1.81744L154.025 1.90264L153.968 2.12982L153.882 2.21501L153.824 2.15821V1.84584L153.566 1.81744L153.222 1.59026H153.079L152.964 1.39148L152.907 1.30629ZM149.666 16.9817L149.408 16.8398H148.834L148.748 16.783H148.519L148.175 16.8966L148.003 17.1521L147.888 17.1237L147.716 17.2941L147.544 17.6349V17.8621L147.401 18.0041L147.343 18.2028L147.372 18.572L147.229 18.7992V19.14L147.286 19.3103L147.2 19.4239L147.315 19.9067L147.2 20.3043L147.286 20.4179L147.544 20.3611L147.63 20.7302L147.601 20.8154L147.429 20.7302L147.257 20.9006L147.429 21.0426L147.573 21.071V21.2982L147.917 21.6957L148.003 21.4686L148.146 21.5821L148.175 21.7809L148.347 21.8661L148.433 21.5538L148.548 21.5821L148.519 22.0081L148.204 22.3205L148.605 22.2353L148.748 22.2637L148.777 22.1501L148.892 22.0365L149.007 22.0933L149.236 22.3489L149.408 22.1501L149.609 22.3205L149.838 22.1501L150.039 22.2921L150.154 22.2353L150.268 22.0081H150.498L150.612 21.7525L150.412 21.6957L150.354 21.6105L150.756 21.1846L150.813 21.2982L150.698 21.6389L150.871 21.7525L150.985 21.6957L150.957 21.5538L151.043 21.1278L150.957 20.9858L151.1 20.7018L151.215 20.7302L151.129 21.071L151.329 21.1278L151.444 21.0426L151.387 20.6734L151.53 20.5314L151.616 20.6166L151.587 20.8438L151.817 20.9006L151.846 20.787L151.702 20.5598L151.731 20.3611L151.587 20.4746H151.473V20.2475H151.129L151.301 20.0487V19.9067L151.501 19.5943L151.616 19.5375L151.501 19.9351L151.53 20.2191L151.76 20.2475L151.874 19.9351L151.96 19.8499L152.161 19.9351L152.247 19.7647H152.018L151.846 19.6227L151.817 19.5091L151.903 19.4807L152.075 19.6227L152.333 19.5375L152.362 19.4523L152.276 19.3671L151.932 19.4239L151.96 19.1684L152.218 19.1968L152.304 18.998L152.448 18.9696L152.591 19.0264L152.562 18.8276L152.62 18.714L152.591 18.4868L152.39 18.6572L152.333 18.7708L152.218 18.7992L152.19 18.572L152.276 18.2312L152.132 17.7769L152.161 17.4929L152.018 17.4361L151.96 17.5213V17.7485L151.874 17.8053L151.673 17.7201L151.616 17.6065L151.415 17.6349L151.186 17.2089L151.071 17.2657L150.899 17.6917L150.813 17.6065L150.871 17.2941L150.785 17.0953L150.354 16.9817L150.211 17.1521L150.125 17.1805L150.01 16.9817L149.924 16.9249L149.809 16.9533L149.666 16.9817ZM149.236 18.714L149.293 18.7424L149.236 19.0832L149.437 19.4239L149.322 19.6795V19.9067L149.265 19.9919L149.179 19.7931L149.236 19.5943L149.207 19.3671L149.064 19.0264L149.15 18.8276L149.236 18.714ZM151.473 19.1684L151.501 19.0548L151.903 18.7992L151.989 18.9696L151.903 19.1968L151.731 19.0832L151.559 19.1968L151.473 19.1684ZM149.465 21.5254L149.609 21.5538L149.781 21.3266L149.838 21.3834L149.809 21.6105L149.437 21.7525V21.6105L149.465 21.5254ZM150.44 19.2252L150.584 19.3103L150.641 19.5375L150.612 19.7647L150.383 19.3103L150.44 19.2252ZM150.498 10.4219L150.383 10.5923L150.182 10.6207L150.211 10.5071L150.412 10.3651L150.498 10.4219ZM147.946 21.0426L148.06 21.0142L148.146 21.1846L148.118 21.2982L148.003 21.2698L147.946 21.1562V21.0426ZM150.039 18.9412L150.154 18.6288L150.24 18.714L150.154 18.998L150.039 18.9412ZM152.276 20.4746L152.218 20.3611H151.989L152.018 20.4746L152.132 20.503L152.276 20.4746ZM150.354 17.4077L150.383 17.2941L150.526 17.3793L150.555 17.5213H150.44L150.354 17.4077ZM152.476 19.2252V19.4523L152.562 19.4807L152.62 19.3955L152.534 19.1968L152.476 19.2252ZM151.673 17.3509L151.616 17.2373H151.501V17.3509L151.587 17.4077L151.673 17.3509ZM151.788 18.2312V18.0325L151.903 18.0041L151.874 18.2028L151.788 18.2312ZM149.351 21.8093L149.437 21.7809L149.465 21.8945L149.408 21.9797L149.351 21.9513V21.8093ZM149.752 22.6897L149.666 22.6045L149.609 22.6613L149.695 22.7465L149.752 22.6897ZM151.1 14.7951L151.071 14.8803H151.157L151.186 14.7951H151.1ZM147.831 22.0081L147.802 22.0933L147.888 22.1501V22.0649L147.831 22.0081ZM152.648 19.7647L152.591 19.8783H152.706L152.648 19.7647ZM151.387 21.6673L151.272 21.6957L151.358 21.7809L151.387 21.6673ZM152.505 17.8905L152.534 18.0325L152.591 17.9473L152.505 17.8905ZM150.469 20.7586L150.584 20.7018V20.787L150.469 20.7586Z" fill="#F4ED3C"/>
</svg>
