<svg width="109" height="60" viewBox="0 0 109 60" fill="none" xmlns="http://www.w3.org/2000/svg">
<path d="M21.76 0.223999L21.44 0L21.312 0.0639992H20.576L20.48 0.128L20.416 0.288L20.224 0.448L19.968 0.48L19.328 0.799999L19.264 0.927999L18.784 1.184L18.112 1.92L17.952 2.304L17.728 2.4L17.664 2.528L17.76 2.848L17.632 3.072L17.376 2.944L17.216 3.136V3.552L17.088 3.584L16.96 3.776L17.152 4.032L16.672 4.32L16.64 4.576L16.768 5.088H16.512L16.224 5.44L15.84 6.4L16 6.592L15.872 6.816L15.552 7.136L15.488 7.392L15.584 7.456L15.872 7.488L15.84 7.584L15.296 7.84L15.36 8.384L15.2 8.544L14.976 8.608L14.944 9.024L14.88 9.12L14.592 9.248L14.624 8.992L14.912 8.48L14.944 8.288L14.688 8.096L14.624 7.968L14.72 7.776L14.4 7.488L14.528 6.784L14.304 6.688L14.272 6.592L14.368 6.368L14.112 6.048L13.856 6.016L13.824 5.792L13.6 5.536L13.376 5.568V5.376L12.672 5.184L12.64 5.344L12.896 5.312L12.928 5.408L12.672 5.504L12.288 5.44L12.096 5.632L11.808 5.6L11.52 5.856L11.264 5.92L11.168 6.112L10.624 6.464V6.624L10.272 6.88L10.112 7.456L9.92 7.488L9.888 7.68L9.6 7.904L9.472 8.128L9.44 8.448L9.28 8.608L9.152 8.928L9.216 9.024L8.96 9.12L8.608 9.632L8.32 9.44L8.512 9.248L8.736 8.768L8.576 8.512L8.672 8.256L8.48 7.936L8.704 7.776L8.672 7.552L8.864 7.36L8.8 7.232L8.544 7.104L8.48 7.008L8.704 6.784L8.64 6.656L8.32 6.496L8.256 6.4V6.016L8.512 5.824L8.576 5.696L8.096 5.504L8.512 5.184L8.352 4.8L8.032 4.448L8.192 4.256L8.128 4.064L7.904 4L7.808 3.904L7.776 3.648L7.392 3.552L7.328 3.456L7.392 3.136L7.328 3.04L7.136 2.976L7.04 2.88V2.656L6.848 2.528H6.368L5.856 2.4L5.568 2.432L5.312 2.336L4.864 2.56L4.576 2.496L4.032 2.816L4 2.944L3.808 3.072L3.744 3.2L3.776 3.392L3.712 4.16L3.616 4.288V4.416L3.744 4.32H3.872L3.904 4.448L3.616 4.736L3.68 5.44L3.744 5.536L3.552 5.792L3.872 5.92L3.52 6.176L3.616 6.592L3.456 6.816V6.976L3.36 6.944L3.424 7.2L3.616 7.552V7.68L3.392 7.776L3.264 7.936L3.488 8.384L3.36 8.64L3.296 9.536L3.36 9.664L3.264 10.016L3.072 10.304V10.528L2.784 11.136L2.976 11.616L2.944 11.776L3.072 12.032L2.848 12.256L2.944 12.64L2.784 13.088L2.688 13.152L2.752 13.376L2.784 14.272L2.592 14.72L2.56 14.944L2.656 15.104L2.304 16.288L2.368 16.608L2.144 17.056L2.24 17.856L2.304 17.952L2.048 18.368L2.08 18.688L1.888 18.912L2.112 19.072L2.016 19.264V19.52L2.08 19.648L1.952 19.808L2.016 20.576L2.272 21.184L2.176 21.44L2.432 21.696V22.08L2.688 22.592L2.624 22.784L2.784 22.976H3.2L3.296 23.104L3.264 23.2L3.072 23.328L3.232 23.424L3.328 23.232L3.552 23.168L3.712 23.328L3.744 23.616L3.872 23.84L4.032 23.648L4.192 23.904L4.416 23.872V23.52L4.864 23.36L4.896 23.232L5.28 22.944L5.376 22.72L5.344 22.56L5.696 22.304L5.728 22.016L5.824 21.792L5.984 21.632V21.024L6.144 20.832L6.176 20.704L6.08 20.416L6.496 20.32L6.592 20.224L6.56 19.968L6.624 19.872L6.912 19.936L6.976 19.68L6.688 19.392L7.168 19.36L7.392 19.264L7.36 18.912L7.776 18.88L7.808 18.624L7.52 18.528L7.488 18.368L7.552 18.24L7.968 17.952L7.808 17.568L7.392 17.376L7.552 17.184V16.896L7.776 16.768L8.128 16.416H8.256L8.448 16.288L8.352 16.032L8.576 15.904L8.64 15.776L8.608 15.648L8.416 15.488L8.352 15.36L8.608 15.136L8.64 14.592L8.544 14.272L8.832 14.08L8.864 13.984L8.768 13.632L8.992 13.344L9.024 13.216L8.96 13.12L8.608 13.056L8.864 12.544V12.384L9.024 12.32L9.056 12.224L8.864 11.744V11.616L9.28 11.84L9.472 11.68L9.504 11.584L9.408 11.232L9.44 11.136L9.696 11.168L9.792 10.752L9.504 10.496L9.472 10.336L9.6 10.24L9.856 10.272L9.92 10.176V9.952L10.112 9.856L10.144 9.728L9.952 9.472L10.176 9.184L10.144 9.024L10.336 8.864L11.008 7.872L11.392 7.776L11.488 7.84V8.128L11.328 8.384L11.36 8.64L11.424 8.736V8.96L11.296 9.248L11.488 9.504L11.328 9.728L11.424 9.952L11.296 10.176L11.424 10.528L11.392 10.848L11.2 11.168V11.712L11.264 11.936L11.2 12.448L11.296 12.736L11.168 13.44L11.264 13.536L11.424 14.272L11.712 14.656L11.776 14.88L12.096 15.456L12.416 15.84L12.512 16.064V16.224L12.672 16.256L12.864 16.416L13.152 16.832L13.312 16.8L13.568 16.352L13.664 16.288L13.984 16.448L14.304 16.064L14.656 15.904L14.464 15.36L14.88 15.328L14.848 15.168L14.656 15.008L14.624 14.88L14.688 14.784L14.912 14.816L14.944 14.208L15.04 14.016L15.008 13.856L15.328 13.344L15.168 13.056L15.392 12.736V12.48L15.328 12.32L15.488 11.84L15.648 11.648L15.776 11.616L16.128 11.104L16.096 10.944L16.192 10.688L16.128 10.368L16.256 10.304L16.352 10.368H16.512L16.608 10.24L16.416 9.888V9.76L16.544 9.536L16.928 9.184L17.024 8.8L16.96 8.576L16.704 8.416V8.096L16.864 8.064L17.216 8.352L17.248 8.128L17.056 7.648L17.472 7.168V6.848L17.76 6.752L17.696 5.984L17.92 5.792L17.856 5.504L18.272 5.216L18.176 4.992L18.336 4.864L18.464 4.992L18.336 6.912L18.048 7.36V7.648L17.856 7.808V8.352L17.632 8.608V8.928L17.76 8.96L17.856 9.088L17.632 9.152L17.6 9.28L17.76 9.472L17.44 9.824V9.92L17.216 10.368L17.248 10.464L17.376 10.528L17.632 10.368L17.728 10.496L17.536 10.72L17.504 10.976L17.408 11.04L17.312 10.784L17.184 10.752L17.12 11.296L17.216 11.552L17.408 11.712L17.312 11.808L17.376 11.872L17.344 12.096L17.152 12.224L17.088 12.448L16.736 12.672V12.928L17.088 12.896L17.184 13.024L17.024 13.248L16.864 13.28L16.928 13.568L16.704 13.632L16.672 13.92L16.448 14.272L16.512 14.592L16.416 14.816L16.48 15.36L16.704 15.488L16.608 15.744L16.384 15.808L16.32 16.32L16.384 16.576L16.192 16.704L16.16 16.8L16.416 17.024L16.256 17.312L16.416 17.536L16.32 17.664L16.032 17.568L15.968 17.664L16.032 18.048L15.904 18.528L15.936 18.624L15.872 18.88L16.192 19.392L16.128 19.616L16 19.68H15.808L15.712 19.744L15.744 19.872L16.256 19.936L16.224 20.064L15.872 20.384L15.776 20.64L15.872 21.152L15.712 21.28L15.776 21.568L15.744 21.728L15.808 21.952L15.904 22.048L16.192 22.112L15.872 22.4L15.936 22.624V23.04L16.224 23.072L16.288 23.168L16.16 23.36L16.128 23.584L15.936 23.84L16.256 24.096V24.224L16.448 24.672V24.928L16.8 25.28L16.832 25.408L17.056 25.472L17.12 25.568L17.024 25.856L17.184 26.016L17.408 26.112L17.472 26.208L17.248 26.304L17.312 26.464L17.664 26.656L17.632 26.912L17.792 27.104L17.952 27.136L18.016 26.72L18.464 26.528L18.72 26.496L18.944 26.656H19.2L19.584 26.464L19.936 26.144L20.352 26.016L20.384 25.76L20.288 25.664L20.064 25.6V25.184L20.384 25.056L20.448 24.928L20.224 24.512L20.32 24.352L20.192 24.128L20.416 23.84L20.16 23.712L19.968 23.84L19.872 23.648L20.288 23.456L20.768 23.52L20.832 23.392L20.416 23.232V23.008L20.576 22.848L20.32 22.4V22.144L20.48 21.952L20.704 22.08L20.8 22.016L21.056 21.984L21.152 21.792L21.088 21.728L20.864 21.856L20.608 21.76L20.512 21.568L20.608 21.472L20.864 21.568L20.896 21.28L21.312 21.056L21.536 20.352L21.376 20.096L21.664 19.904L21.696 19.776L21.6 19.712H21.344L20.928 19.488L20.768 19.808L20.672 19.84L20.8 20.096L20.768 20.16H20.608L20.48 20L20.608 19.808L20.512 19.552L20.608 19.456L20.864 19.36L20.96 19.04L21.12 19.008L21.44 19.264V18.88L21.216 18.592L21.056 18.56L20.992 18.432L21.056 18.336H21.568L21.376 17.984V17.6L21.696 17.312V17.184L21.408 16.832V16.704L21.536 16.48L21.824 16.192L21.728 16.128L21.696 16L22.08 15.744L22.368 15.648L22.304 15.488L22.4 15.232L22.112 14.912L22.144 14.752L21.952 14.336L22.08 14.368L22.176 14.304L22.08 13.856L22.112 13.728L21.824 12.992L22.016 12.864L22.112 12.928L22.144 13.312L22.368 13.344L22.4 12.864L22.496 12.608L22.24 12.416L22.208 12.288L22.336 12.16L22.304 11.904L22.368 11.68L22.176 11.552L22.144 11.456L22.368 11.232L22.016 11.008L22.176 10.816H22.304L22.496 10.688L22.304 10.592L22.24 10.464L22.336 10.368L22.592 10.336L22.816 9.6V9.312L22.656 9.088V8.672L22.432 8.576L22.528 8.384L22.88 8.256V8.096L23.04 7.808L22.912 7.616L22.56 7.488L22.496 7.2L22.272 7.104L22.144 6.944L22.368 6.784L22.624 6.88L22.912 6.816L22.944 6.72L22.56 6.688L22.496 6.592L22.624 6.4L22.816 6.304L23.296 6.496L23.424 6.464L23.52 6.336L23.232 6.24L23.04 6.016L23.008 5.728L22.784 5.472L22.912 5.12L22.848 4.928L23.008 4.704L22.688 4.352L22.784 4.256L23.2 4.16L22.88 3.488L22.848 3.2L22.752 2.976L22.944 2.816L23.008 2.688L22.912 2.592L22.656 2.528L22.592 2.432L22.624 2.208L22.208 1.92L22.368 1.76L22.688 1.952L22.816 1.92L23.008 1.696L22.816 1.504L22.976 1.184L22.592 0.832001L22.4 0.992001L22.176 0.896L22.144 0.799999L22.24 0.704L22.368 0.768L22.496 0.736L22.432 0.639999L22.208 0.671999L22.176 0.576L21.984 0.448L21.696 0.544001L21.76 0.32V0.223999ZM20.32 17.376L20.608 17.408L20.864 18.016L20.768 18.08L20.544 18.048L20.448 17.952L20.416 17.664L20.32 17.472V17.376ZM21.056 15.776L21.408 15.904V16.096L21.344 16.16H20.928L20.736 15.968L20.992 15.872L21.056 15.776ZM17.088 19.52L17.248 19.488L17.44 19.616L17.504 19.744L17.472 20.032L17.248 19.968L17.152 19.616L17.088 19.52ZM16.864 22.528L16.96 22.432L17.376 22.56L17.504 22.496L17.44 22.752H17.152L16.928 22.624L16.864 22.528ZM17.184 15.936L17.472 15.84L17.536 16.032L17.504 16.16L17.376 16.128L17.12 16.192L17.184 15.936ZM16.96 14.112L17.056 13.856L17.152 13.824L17.248 13.888L17.216 14.112L17.152 14.176H17.024L16.96 14.112ZM19.584 17.952L19.616 17.824H19.84L19.968 18.048H19.648L19.584 17.952ZM17.248 11.712L17.12 11.648L16.896 11.744L16.864 11.84L16.96 11.968L17.184 11.808L17.248 11.712ZM3.488 8.064L3.68 7.68L3.808 7.744L3.84 7.872L3.648 8.032L3.488 8.064ZM17.216 21.024L17.376 20.864L17.504 20.832L17.536 21.056L17.472 21.152L17.312 21.12L17.216 21.024ZM16.704 19.36H16.928L16.992 19.264H17.088V19.488H16.736L16.704 19.36ZM21.696 10.496L21.76 10.368L21.952 10.4L22.048 10.496L21.952 10.592H21.792L21.696 10.496ZM20.448 21.056L20.608 20.928L20.736 20.96L20.768 21.152H20.512L20.448 21.056ZM18.688 16.096L18.816 16.32L18.784 16.48L18.592 16.32V16.192L18.688 16.096ZM20.608 20.64L20.8 20.544L20.96 20.576L20.928 20.704L20.832 20.768L20.704 20.704L20.608 20.64ZM16.928 22.112L17.056 21.952L17.312 21.984L17.28 22.08L17.024 22.144L16.928 22.112ZM21.792 15.264V15.008L21.92 14.976L22.016 15.04L21.92 15.232L21.792 15.264ZM17.472 14.208L17.632 14.24L17.792 14.528L17.568 14.432L17.504 14.336L17.472 14.208ZM17.376 21.568L17.28 21.696L17.152 21.664L17.088 21.536L17.152 21.408L17.248 21.504L17.376 21.568ZM19.744 19.872H19.968L20.032 20L19.936 20.064L19.776 20.032L19.744 19.872ZM16.704 17.12H16.896L16.736 17.472L16.672 17.376L16.704 17.248V17.12ZM20.512 16.896L20.608 16.8H20.704L20.8 16.896L20.608 17.024L20.512 16.896ZM20.256 13.056L20.352 12.928L20.48 12.896V13.024L20.32 13.184L20.256 13.056ZM22.016 8.128L22.048 8.032L22.272 7.936L22.304 8.064L22.112 8.16L22.016 8.128ZM18.432 27.456L18.4 27.328H18.176L18.208 27.456L18.368 27.52L18.432 27.456ZM18.592 13.6L18.624 13.344L18.752 13.312L18.784 13.44L18.72 13.536L18.592 13.6ZM20.576 18.56L20.608 18.432H20.704L20.768 18.56L20.736 18.688L20.64 18.624L20.576 18.56ZM17.6 17.12L17.632 16.96L17.824 16.992L17.76 17.152L17.6 17.12ZM20.736 22.112L20.64 22.368L20.8 22.4V22.208L20.736 22.112ZM21.504 11.84L21.728 11.872L21.76 12L21.536 11.968L21.504 11.84ZM23.232 3.104H23.104L23.072 3.2L23.136 3.296L23.296 3.168L23.232 3.104ZM18.4 17.024L18.656 16.992L18.592 17.12L18.432 17.152L18.4 17.024ZM16.864 16.64L16.928 16.512H17.088L17.056 16.64L16.96 16.672L16.864 16.64ZM4.992 23.744V23.872L5.088 23.968L5.184 23.808L4.992 23.744ZM15.36 7.264H15.136L15.168 7.392L15.392 7.328L15.36 7.264ZM23.136 2.016L23.072 2.176L23.232 2.208V2.112L23.136 2.016ZM21.28 9.568L21.152 9.504L21.184 9.376L21.312 9.44L21.28 9.568ZM19.456 26.848H19.296V26.944L19.424 26.976L19.456 26.848ZM18.688 26.944V26.816H18.528L18.56 26.912L18.688 26.944ZM21.568 11.616L21.6 11.456H21.696V11.584L21.568 11.616ZM20.16 14.304H20.256L20.32 14.432H20.192L20.16 14.304ZM19.264 20.16V20.064L19.424 20.128L19.36 20.192L19.264 20.16ZM10.656 7.808H10.784L10.752 7.904H10.656V7.808ZM21.088 22.24L21.184 22.368L21.28 22.304L21.216 22.272L21.088 22.24ZM16.224 22.112L16.32 21.984L16.416 22.048L16.224 22.112ZM20.704 25.248L20.672 25.344L20.736 25.408L20.768 25.28L20.704 25.248ZM18.208 10.912L18.4 10.88L18.336 10.976L18.208 10.912ZM18.4 12.544L18.336 12.48L18.368 12.384L18.432 12.448L18.4 12.544ZM17.6 18.368H17.76L17.6 18.464V18.368ZM18.272 4.608L18.304 4.512L18.4 4.608H18.272ZM21.6 21.376L21.696 21.504L21.728 21.44L21.6 21.376ZM19.424 20.448L19.36 20.512L19.296 20.416L19.424 20.448ZM19.392 15.456V15.36L19.488 15.456H19.392ZM8.736 6.272L8.832 6.368V6.272H8.736ZM15.84 19.264L15.744 19.296L15.84 19.36V19.264ZM20.192 21.216V21.12L20.288 21.184L20.192 21.216ZM8.928 5.28L8.896 5.216L8.8 5.248L8.928 5.28ZM18.848 4.928V4.864L18.944 4.928H18.848ZM21.824 12.384L21.76 12.288L21.856 12.352L21.824 12.384ZM21.152 22.784V22.816L21.28 22.784H21.152ZM22.88 14.56V14.592L23.008 14.56H22.88ZM19.392 20.32L19.424 20.256V20.32H19.392Z" transform="translate(0.632812 0.47168)" fill="#F4ED3C"/>
<path d="M31.0045 10.4L30.8765 10.176L30.6525 10.016L30.6205 9.92L29.6925 9.536L29.5005 9.568L28.9565 9.44L28.4445 9.824L28.2205 9.92L28.1245 10.144L27.7405 10.592L27.4845 10.752L27.4525 11.008L27.3565 11.072L27.0365 11.104L26.7485 11.488L26.6525 11.744L26.4285 11.84L26.3005 11.968V12.288L26.0125 12.32L25.9485 12.448L26.1405 12.576L25.9805 12.768L25.7565 12.736L25.6605 12.8L25.6925 12.928L25.6285 13.184L25.3085 13.568L25.2765 13.824L25.0205 14.08L24.9245 14.048L24.8285 14.112L24.9885 14.304L25.0205 14.432L24.9565 14.528L24.6365 14.656L24.4765 15.2L24.6365 15.36L24.5405 15.488L24.3485 15.36L24.2525 15.392L24.0925 15.744L24.2205 16L24.0925 16.192H23.9325L23.7725 16.8L23.8685 17.056L23.7405 17.184L23.7085 17.312L23.9325 17.504L24.0285 17.792L23.8045 18.24L23.7725 18.496L23.8685 19.104L23.9965 19.168L24.2845 19.04L24.3165 19.168L24.2525 19.264L24.0925 19.328L24.0605 19.648L24.2525 20.224L24.2205 20.384L24.4765 20.608V20.896L24.7325 21.28V21.408L24.8925 21.568L25.3725 21.792H25.6285L25.6605 21.952L25.5645 22.208L25.6285 22.304H26.0125L26.3965 22.592L26.4925 22.752V22.88L26.7485 23.008H26.9085L26.8765 22.784L27.0685 22.688L27.4205 22.624L27.5485 22.816L27.7725 22.912L27.9005 23.232L28.1245 23.296L28.2845 23.232L28.3165 23.328L28.4445 23.392L28.7645 23.232L28.8925 23.296L29.1165 23.072L29.3725 23.136L29.5645 23.104L29.6605 23.328L29.8205 23.232L29.8845 23.104V22.816L29.9805 22.752H30.2045L30.3325 22.912L30.6205 22.976L31.0045 22.848V22.624L31.5485 22.496V22.368L31.4845 22.304H31.1325L31.1645 22.144L31.3245 21.92L31.5805 21.888L31.7405 22.208L32.0285 21.92L32.1565 21.888L32.3805 21.696L32.3165 21.6L32.3485 21.376H32.6045L32.7965 21.12V20.992L33.2125 20.768L33.4365 20.48L33.6605 20.384V20.16L33.9805 19.968L34.0445 19.68L34.3005 19.296L34.4925 18.848L34.7805 18.528L34.9085 17.92L35.3885 17.248L35.1645 16.96L35.2605 16.672L35.4205 16.48L35.4525 16.224L35.2605 16.032L35.3245 15.808L35.1965 15.584L35.2285 15.456L35.1325 15.104L35.3245 14.944L35.3565 14.816L35.1645 14.56L35.2285 14.24L35.3245 14.144L35.7085 14.112L36.0605 13.696L36.2845 13.664L36.3805 13.728L36.4125 13.408L36.4765 13.312L36.5725 13.664L36.6365 13.728L37.3405 13.248H37.5645L37.7245 13.312L37.9485 12.8L38.1725 13.184L38.5885 12.8L38.8125 12.864L38.9405 12.672L38.7485 12.512L38.8125 12.384L38.9405 12.544L39.3245 12.32L39.8685 12.352L40.0605 12.288V12.16L40.4125 11.808L40.8605 11.744L41.0525 11.264L41.0205 11.072L40.9245 11.008L40.7005 11.168L40.2845 10.976L39.9325 11.136L39.3245 11.744H38.5885L38.4925 12.192L38.3325 11.936L38.2045 11.872L37.6925 12.416L37.4685 12.128L37.1805 12.448L36.8605 12.352L36.7965 12.416L36.7645 12.736L36.7005 12.832L36.4765 12.736L36.2525 12.512L36.0285 12.736L35.9005 12.704L35.5485 12.768L35.3885 13.056L35.2285 12.864L34.9725 12.896L34.5565 13.056L34.3965 12.928L34.3005 12.672L34.1085 12.512L33.9805 12.48L33.8205 12.256L33.7245 12.224L33.6285 12L33.4365 11.872H33.2125L32.8605 11.584L32.5725 11.552L32.5085 11.296L32.2205 11.2L32.0605 11.552L31.9325 11.392L31.8365 11.488H31.7085L31.6125 11.328L31.6765 11.072L31.3885 10.912L31.2925 10.784V10.528L31.1325 10.4H31.0045ZM34.2685 14.4H34.4925L34.5245 14.528L34.4605 14.784L34.5565 15.104L34.6845 15.296L34.7485 15.776L34.5885 16L34.5565 16.256L34.6205 16.384V16.8L34.2685 17.184L34.2365 17.312L33.9485 17.536L33.6285 17.984L33.4045 18.72L32.6685 19.232L32.6365 19.456L32.2525 19.904L32.1885 20.064L31.8045 20.416L31.6125 20.448L31.2925 20.832L30.3645 21.504L30.2685 21.376L28.9565 21.984L28.3485 21.824L28.0925 21.664L28.0605 21.408L27.9965 21.312L27.7405 21.568L27.5165 21.504L27.6125 21.28H27.9965L27.8365 21.088L27.5165 20.928L27.3885 20.32L27.4525 20.224L27.6765 20.288L27.5805 19.936L27.6125 19.776L27.3565 19.392L27.6445 19.2L27.7725 18.592L27.5485 18.368L27.7085 18.144H27.9645L28.0605 18.048L28.0925 17.824L28.3165 17.696L28.4765 17.312L28.4125 16.768L28.8925 16.352L28.9245 16.064L29.1485 15.616L29.3085 15.584L29.4045 15.488V15.168L30.1725 14.56V14.432L30.3325 14.272L30.5245 14.432L30.7485 14.4L30.9405 14.528H31.0685L31.1645 14.432L31.3245 14.624L31.5485 14.752H32.1885L32.2525 14.528L32.4445 14.56L32.7005 14.464L33.4685 14.4L33.6605 14.272L33.7885 14.336H34.1725L34.2685 14.4ZM33.4365 13.056L33.6285 13.344L33.2765 13.44L33.0845 13.312L32.7965 13.248H32.3805L31.8685 12.832L31.8365 12.608L31.9325 12.576L32.0605 12.64H32.5085L32.7325 12.768L33.0845 12.832L33.3405 13.024L33.4365 13.056ZM25.9485 19.104L26.0125 18.976L26.2365 18.944L26.3005 19.008L26.2685 19.136L26.1725 19.2L26.0445 19.168L25.9485 19.104ZM26.4285 17.76V17.632L26.6205 17.568L26.6525 17.632L26.5885 17.792L26.4285 17.76ZM26.3645 21.024L26.5245 20.864L26.6205 20.896L26.5885 20.992L26.4605 21.056L26.3645 21.024ZM25.9805 21.024L26.2045 21.056V21.12L26.0765 21.184L25.9805 21.12V21.024ZM30.8765 13.888L30.8125 13.76L30.8445 13.6L30.9405 13.664L30.9085 13.92L30.8765 13.888ZM27.7085 15.36H27.6125L27.5485 15.264L27.6125 15.168L27.7085 15.264V15.36ZM35.4525 15.392L35.4205 15.52L35.5485 15.552L35.6125 15.424L35.4525 15.392ZM28.1565 18.208L28.0925 18.304L28.1885 18.4L28.2525 18.368L28.2205 18.272L28.1565 18.208ZM31.8685 21.76L31.9645 21.696L32.0605 21.76L31.9645 21.856L31.8685 21.76ZM31.2605 11.104L31.4205 11.168L31.3885 11.264L31.2925 11.2L31.2605 11.104ZM34.4285 16.48L34.3005 16.512L34.3325 16.608L34.4285 16.48ZM25.5965 12.704L25.5325 12.832L25.6285 12.768L25.5965 12.704ZM39.3245 12.576L39.2285 12.608L39.3245 12.64V12.576ZM27.5165 16L27.5805 15.936V16H27.5165Z" transform="translate(0.632812 0.47168)" fill="#F4ED3C"/>
<path d="M41.0322 6.56L40.7443 6.528L40.1362 6.624L39.6562 6.976H39.4963L39.4002 7.232L39.1763 7.392L38.8882 7.488L38.6963 7.648L38.6642 7.776L38.1522 8.256L37.9922 8.672L37.8003 8.8L37.7682 9.024L37.4803 9.408L37.3522 10.656L37.4803 11.136L37.5122 11.776L37.8322 12.16L37.8643 12.32L37.9922 12.384L38.1522 12.896L38.3763 13.12L38.4723 13.376L38.7282 13.568L38.9523 13.92L39.3042 14.08L39.3683 14.368L39.9123 14.816L40.0083 15.008L40.2002 15.168L40.2323 15.296L40.4562 15.424L40.5843 15.68L40.7443 15.84L41.0003 15.744L41.0962 15.84L41.0322 16L41.0643 16.128L41.4162 16.512L41.4482 16.768L41.3843 17.12L41.1603 17.152L41.0322 17.504L40.8083 17.568L40.7122 17.792H40.4883L40.3283 17.984L39.8483 18.208L39.8162 18.496L39.4963 18.816L39.2723 18.912L39.1123 19.072L39.0482 19.328L38.9523 19.392L38.9842 19.52L38.9202 19.616L38.7603 19.648L38.6963 19.744L38.8242 20L38.7923 20.064L38.4723 19.904L38.4082 19.968L38.4403 20.224L38.1522 20.384L38.2163 20.64L38.1522 20.832L37.9603 20.96L37.7043 20.992L37.6403 21.056L37.8643 21.12L37.8963 21.216L37.4803 21.44L37.4482 21.632L37.5443 22.08L37.3522 22.432L37.3843 22.56L37.5762 22.752L37.4803 22.944L37.6403 23.104L37.6722 23.584L37.8643 23.872V24.064L38.0563 24.224L38.1842 24.448L38.3763 24.576L38.5042 24.8L38.6963 24.928L38.9523 24.896V24.672L39.0482 24.64L39.1442 24.832L39.1123 24.96L39.2082 25.184L39.4642 25.216L39.6242 25.152L39.7842 25.344L39.9123 25.408L40.1683 25.312L40.2962 25.376L40.5202 25.28L40.7122 25.44L41.0643 25.504L41.1922 25.44L41.2562 25.536L41.1922 25.792L41.3203 25.952L41.4482 25.888V25.568L41.5443 25.536L41.7682 25.6L42.0243 25.344H42.3123L42.5682 25.088L42.7923 25.312L42.8882 25.248L43.0163 25.024L43.2402 25.152L43.5602 24.928L43.7843 24.96L43.8802 24.704H44.1683L44.4562 24.256L44.4243 24.096L44.4883 24L44.5843 24.064L44.6802 24.352L44.7762 24.32V24.096L44.8403 24L44.8722 23.424L45.0643 23.552H45.2243L45.3522 23.232L45.4803 23.168L45.7043 23.232L45.7682 23.136L45.8003 22.88L45.8643 22.784L46.0882 22.752L46.1522 22.656V22.432L46.0882 22.304L46.1842 22.24L46.3442 21.632L46.5682 21.504L46.7283 21.28L46.6003 20.896L46.6323 20.64L46.7603 20.416L46.8882 20.48L47.0483 20.448L46.9842 19.968L47.0163 19.84L46.9202 19.648L46.9523 19.392L46.8242 19.36L46.6963 19.168L46.6003 18.784L46.7283 18.72L46.9842 18.752L47.0163 18.656L46.9202 18.432L46.9842 18.208L46.9202 17.824L46.6323 17.6L46.4082 16.992L46.1522 17.056L45.9603 16.352L45.7043 16.256L45.5443 16.096V15.968L45.8003 15.712V15.584L46.0882 15.424L46.2803 15.168L47.1442 14.688L47.2402 14.496H47.3683L47.5602 14.368L47.7523 14.08H47.9123L48.0402 13.92L48.2002 14.08L48.3602 14.112L48.3923 13.856L48.4883 13.76L48.7122 13.92L49.0322 13.728V13.6L49.1283 13.472H49.3202L49.6082 13.216L49.8963 13.056L50.0882 13.184L50.1842 13.152L50.3123 12.96L50.3442 12.672L50.7922 12.512L50.9523 12.32L51.2402 12.448L51.3363 12.384L51.3683 12.128L51.3042 11.872L51.4642 11.84L51.7202 12.096L51.8162 12.032L51.8802 11.744L51.9762 11.648L52.2002 11.808L52.2962 11.584L52.2642 11.296L52.2002 11.2L52.0402 11.168L51.7523 10.976L51.6562 11.04L51.5282 11.296L51.4323 11.36L51.3363 11.296H50.8563L50.4722 11.584L50.2482 11.648L50.1522 11.872L50.0562 11.936L49.7362 11.968L49.4803 12.224L49.2563 12.32L49.0322 12.608H48.8083L48.4883 12.864L48.3602 12.896L48.2323 13.088L47.8483 13.344L47.4642 13.472L47.3683 13.696L47.1763 13.856L46.9523 13.664L46.8563 13.728L46.7603 14.272L46.5363 14.112L46.3123 14.208L46.1842 14.4H45.9603L45.0962 14.944L44.8403 15.04H44.6802L44.6483 14.816L44.5202 14.56V14.144L44.3923 14.08L44.2002 14.272L44.1043 14.208L44.0402 13.984V13.6H43.6883L43.4963 13.44L43.4642 13.216L43.3042 13.408L43.1763 13.472L43.0802 13.376L42.9523 12.768L42.8563 12.864L42.8242 13.088L42.9202 13.312L42.7603 13.536L42.7282 13.792L42.9202 14.08L42.8882 14.208L42.7603 14.272L42.5682 13.76V13.376L42.4403 13.184L42.5682 12.928V12.544L42.4722 12.448L42.3442 12.48L42.3763 12.864L42.0882 12.832L41.9282 12.704L41.8963 12.48L42.0882 12.16V12.032L41.9922 11.968H41.5443L41.5763 11.712L41.4803 11.488L41.3522 11.424L41.0962 11.488V11.296L41.2562 11.104L41.4803 10.976L41.4482 10.688L41.5763 10.464L41.8322 10.624L41.9282 10.4L42.0563 9.728L41.9922 9.504L42.1522 9.344H42.3763L42.4403 9.216L42.3442 9.152L42.1203 9.216L42.0882 9.056L42.1842 8.832L42.5682 8.576L42.2803 8.128L42.2482 7.968L42.4403 7.68L42.1203 7.488L41.9603 7.168L41.6403 7.232L41.5122 7.168L41.4482 7.04L41.5122 6.944L41.4803 6.688L41.3203 6.528L41.0962 6.784L40.9683 6.848L41.0003 6.72L41.0322 6.56ZM41.4482 17.696L41.7043 17.664L42.0243 17.472L41.9603 17.984L42.0243 18.176V19.328L41.7682 20.576V21.024L41.5443 21.472V21.6L41.8322 21.696L41.7362 21.952L41.5443 22.144L41.5763 22.368L41.5122 22.432L41.4162 22.368L41.5122 21.984L41.4162 21.856L41.1922 22.016L41.1603 22.24L41.0003 22.624L40.7443 22.72L40.4883 23.008L40.7122 23.328L40.6162 23.488L40.4243 23.2L40.4562 23.04H40.2962L40.1043 23.2L40.0083 23.456L39.8802 23.424L39.4323 23.552L39.1123 23.36L39.0482 23.168H38.8882L38.9842 22.848L38.8882 22.464L38.9842 22.176L38.9202 21.952L39.0163 21.792L38.9523 21.248L39.0802 21.056L39.2082 20.992L39.3363 20.352L39.4963 20.32L39.5602 20.096L39.6562 20.064L40.0402 19.2L40.1683 19.168L40.1043 18.592L40.1683 18.496L40.4243 18.816L40.7762 18.432L40.9043 18.368L40.9683 18.016H41.1283L41.4482 17.696ZM40.2323 10.528L40.1043 10.496L39.8483 10.144L39.6242 10.048L39.4642 9.856L39.4002 9.376L39.2723 9.28L39.1123 9.504L38.9842 9.44L38.9523 9.216L39.1442 8.704H39.4002L39.4963 8.576L39.4642 8.448L39.1763 8.16L39.2082 8.032L39.7523 7.84L40.0723 7.616L40.6483 7.776L41.1603 8.512L41.0962 9.248L40.9362 9.792L40.6802 10.272L40.3602 10.496L40.2323 10.528ZM41.3522 22.688L41.6082 22.656L41.8003 22.752L41.8322 22.88L41.6082 22.944L41.5443 23.104L41.3843 23.04L41.4482 22.88L41.3843 22.784L41.3522 22.688ZM45.2882 20.416L45.2562 20.128L45.3843 20.064L45.4162 20.224L45.3203 20.48V20.64L45.2243 20.736L45.0962 20.608L45.1603 20.48L45.2882 20.416ZM42.1203 15.136L42.0563 14.912L42.1203 14.816L42.2803 14.88V15.04L42.1842 15.104L42.1203 15.136ZM39.1442 10.24L39.0163 10.048L39.0482 9.952L39.1763 9.984L39.2082 10.112L39.1442 10.24ZM41.3522 23.36L41.4162 23.232H41.5122L41.6082 23.328L41.4482 23.424L41.3522 23.36ZM41.0322 23.136L40.9362 23.072L41.0003 22.88L41.0962 22.944V23.04L41.0322 23.136ZM41.2243 14.144L41.1603 14.368L41.0643 14.304L41.1283 14.08L41.2243 14.144ZM43.1442 18.304V18.176L43.2402 18.112L43.3363 18.176L43.2723 18.272L43.1442 18.304ZM42.3763 21.536L42.3442 21.344H42.4722L42.5042 21.504L42.3763 21.536ZM46.0562 17.216L46.1203 17.088L46.2163 17.184V17.312H46.1522L46.0562 17.216ZM46.0882 15.04L45.9922 14.976V14.816H46.0882L46.1203 14.944L46.0882 15.04ZM43.2082 15.52V15.424L43.3363 15.392V15.488L43.2082 15.52ZM39.1442 10.752L39.2723 10.656L39.2402 10.784L39.1442 10.752ZM41.0962 14.88L41.1922 14.848L41.2243 14.944L41.0962 14.88ZM44.2642 21.408L44.3923 21.376V21.44L44.2642 21.408ZM39.1763 10.272V10.336L39.0482 10.272H39.1763ZM41.8963 22.56H42.0243L41.9603 22.624L41.8963 22.56Z" transform="translate(0.632812 0.47168)" fill="#F4ED3C"/>
<path d="M54.8645 2.72L54.4165 2.752L54.1925 2.944L53.9365 3.04L53.3925 3.072L53.1685 3.328L52.9445 3.296L52.7845 3.456L52.8165 4.224L52.7205 4.448L52.4965 4.512L52.4325 5.376L52.5285 5.632L52.4005 6.176L52.2405 6.336L52.0485 6.304L51.7925 6.592L51.6005 6.528L51.4725 6.72L51.3445 6.784L51.2485 6.4L50.9605 6.496L50.8005 6.688L50.6725 6.464H50.0965L49.8405 6.624L49.6805 6.592L49.4565 6.72L49.2325 6.528L49.1045 6.56L48.7845 6.848H48.6245L48.4965 7.008L48.5925 7.168L49.1685 7.456L49.4245 7.488L49.6805 7.744L50.6725 7.808L50.8645 7.712L51.0245 7.744L51.2485 7.424L51.3765 7.36L51.6325 7.456L51.6965 7.104L51.7925 7.072L51.8565 7.424L52.1445 7.744L51.8885 8.16V8.448L51.9525 8.64L51.9205 8.736L51.6005 8.672V8.896L51.7285 9.248L51.5685 9.504L51.7605 9.728L51.6965 9.856L51.4725 9.984L51.3765 9.92L51.2485 9.952L51.4725 10.176L51.1205 10.72L51.1845 10.976L51.1525 11.52L50.6725 11.776L50.8645 12.096L50.7685 12.288L50.8325 12.544L50.6725 12.8L50.8005 13.056V13.312L50.6405 13.632L50.3525 13.728L50.2885 14.688L50.3205 15.072L49.9045 15.456V16.064L50.0965 16.256L50.1605 16.416L49.8725 16.672L50.0005 16.96L49.7445 17.28V17.44L49.9045 17.632L49.9365 17.76L49.6485 17.792L49.7765 18.176L49.6805 18.272L49.4885 18.336L49.7765 18.688L50.0005 18.784L50.0645 18.88L49.8405 19.2V19.328L49.7125 19.488L49.4245 19.392L49.3285 19.488L49.5525 19.904L49.5205 20.064L49.9365 20.608L49.7765 20.864V20.992L50.0005 21.28V21.632L50.2565 21.568L50.4805 21.792L50.3845 21.984L50.4485 22.112L50.6725 22.24L51.0885 22.848L51.3445 22.912L51.6005 22.848L52.0165 23.04H52.8485L52.9765 22.976L53.0405 22.656L53.1685 22.624L53.3925 22.848L53.7445 22.528L54.1285 22.432L54.2245 22.656L54.3205 22.72L54.3845 22.592L54.3205 22.336L54.4165 22.112L54.7685 21.728L54.8645 21.696L54.9925 21.472L55.2165 21.312H55.4405L55.6005 20.992L55.8245 21.088L55.9525 21.056L56.0485 20.672L56.0165 20.448L56.1125 20.384L56.4005 20.544L56.7845 20.256L56.8805 20.064L56.9765 19.52L57.2965 19.712L57.4565 19.552V19.264L57.3925 19.136L57.4885 19.104L57.7125 19.2L57.8085 19.136L57.9365 18.816L58.1925 18.784L58.4165 18.656V18.432L59.2805 18.016L59.3125 17.6L59.4085 17.504L59.6005 17.568L59.8245 17.44L59.8885 17.312L59.7925 17.056L59.8565 16.928L60.3045 16.896L60.4645 16.672H60.6245L60.7205 16.576L60.7845 16.384L60.5925 16.128V16.032L60.7205 15.904L60.8485 16.128L60.9765 16.192L61.1045 16.128L61.2005 15.584L61.3925 15.712L61.6165 15.648L61.5845 15.072L61.7125 14.976L62.0005 15.264L62.0965 15.168L62.1285 14.752L62.2885 14.368L61.9685 14.112L61.7125 14.08L61.5845 14.144L61.5525 14.784H61.4245L61.2005 14.4L61.1685 14.496L61.2965 14.816L61.0725 15.072L60.8165 14.848L60.6565 15.136L60.6245 15.52L60.5285 15.552L60.2725 15.488L60.3045 15.776L60.2085 16.032L60.1125 16.096L59.8885 15.904L59.6325 16.288L59.0565 16.736L58.8325 16.672L58.7365 16.864L58.6725 17.248L58.2885 17.536L58.0005 17.92L57.3925 18.304L57.1365 18.368L57.0085 18.688L57.0725 18.784L57.0085 18.88L56.9765 18.752L56.8165 18.624L56.4645 19.04L56.1125 19.2L56.0805 19.328L55.7285 19.584L55.6005 19.84L55.4405 20L54.8965 20.16L54.7365 20.448H54.6085L54.3525 20.096H54.0645L54.0005 20V19.776L54.4485 19.488L54.5125 19.392L54.4165 19.296H54.2885L53.9685 19.456L54.0325 18.976L54.1285 18.88L54.4485 18.752V18.464L54.3525 18.112L54.7685 17.6L54.8645 17.312L54.7685 17.088L54.8965 16.544L54.8645 16.288L55.1205 16.256L55.2805 16.096L55.3125 15.84L55.4085 15.744L55.4405 15.52L55.3445 15.296L55.6325 14.976L55.4725 14.72L55.7285 14.144L55.6645 14.048L55.4405 13.92V13.76L55.8565 13.408L55.7925 13.28V13.056L55.9205 12.512L56.0485 12.352H56.2085L56.3045 12.288L56.0485 11.808L56.2405 11.584V11.328L56.3365 11.072L56.4325 11.008V10.752L56.1445 10.496L56.4005 10.336L56.4645 10.176L56.3365 9.984L56.2085 9.408L56.3685 9.312L56.6245 9.28L56.6885 8.672L56.7845 8.608L56.9125 8.64L56.9765 8.544L56.8485 8.512L56.7525 8.576L56.5925 8.352V8L56.7845 7.84L56.8165 7.712L56.9445 7.68L57.2005 7.424L57.2965 7.392L57.4885 7.52L57.5525 7.456L57.6165 7.136L58.1925 7.008L58.3845 7.2L58.6085 7.296L58.7685 7.232L59.0245 7.36L59.1845 7.04L59.2805 7.008L59.5045 7.104H60.0165L60.0805 7.008L60.3045 7.104L60.9125 6.432L61.1685 6.368V6.016H60.9445L60.7845 6.304L60.6565 6.336V6.048L60.5285 6.016L60.3045 6.144L60.1125 6.016L59.7285 6.176L59.5365 6.048L59.1525 6.208L58.9925 5.952L58.4165 6.112L58.2885 6.336L58.1605 6.432L57.7125 6.08L57.1685 6.208L56.8165 5.856L56.7205 5.6L57.0085 5.408L56.9765 5.152L57.1045 4.704L56.9125 4.416V4.192L56.6885 4.16L56.5605 3.936V3.808L56.4325 3.616L56.2405 3.712L56.0805 3.552L56.0485 3.392L56.1125 3.264L56.0165 3.168L55.8565 3.136L55.6325 3.68L55.5365 3.456V2.912L55.3445 2.784L54.8965 2.976L54.7685 2.944L54.8325 2.848L54.8645 2.72ZM63.6005 12.992L63.0565 12.928L62.9605 12.992L62.8965 13.76L62.9925 13.92L63.0885 13.856L63.1845 13.408L63.2805 13.344L63.5365 13.376L63.6325 13.12L63.6005 12.992ZM61.7125 6.592L61.5205 6.304L61.2645 6.624H61.0085L60.8805 6.688L60.7845 6.976L60.9125 7.072H61.0405L61.6805 6.72L61.7125 6.592ZM62.4485 6.4L62.0325 6.592H61.8725L61.8085 6.816L61.8405 6.944L61.9685 6.976V6.752L62.4805 6.528L62.4485 6.4ZM62.5765 13.92L62.4805 14.24L62.6405 14.272L62.8005 14.112L62.7045 13.92H62.5765ZM53.5845 18.016L53.6165 17.824L53.8405 17.696L53.8725 18.016H53.5845ZM57.8405 7.264L57.8085 7.488L58.0325 7.616V7.392L57.9365 7.296L57.8405 7.264ZM54.8645 18.24L54.7685 18.112H54.6405L54.5765 18.24L54.6725 18.336H54.8005L54.8645 18.24ZM62.1285 6.272L62.0965 6.144L61.9685 6.112L61.9045 6.24L62.0325 6.368L62.1285 6.272ZM55.6965 15.872L55.6645 15.776L55.5365 15.744L55.4405 15.808L55.6005 15.968L55.6965 15.872ZM64.1765 12.896L64.0805 12.832L63.9205 12.96L64.0165 13.024L64.1125 12.992L64.1765 12.896ZM52.7205 21.184L52.7525 21.056H52.9445L52.8485 21.216L52.7205 21.184ZM62.7045 14.656L62.5125 14.688L62.5445 14.816L62.6725 14.784L62.7045 14.656ZM62.1605 13.728L62.0645 13.76L62.0005 13.888L62.0965 13.92L62.1605 13.856V13.728ZM52.0805 21.056L52.1125 20.928L52.2085 20.896L52.2405 21.024L52.1445 21.056H52.0805ZM54.4165 14.816L54.3205 14.752L54.3525 14.656L54.4485 14.688L54.4165 14.816ZM62.7365 13.344H62.5765V13.44L62.6725 13.408L62.7365 13.344ZM61.1685 15.424H61.2325L61.1685 15.52V15.424Z" transform="translate(0.632812 0.47168)" fill="#F4ED3C"/>
<path d="M19.712 41.256L19.584 41.384L19.296 41.288L19.008 41.416L18.624 41.736L18.368 41.768L18.048 41.992L17.792 41.928L17.376 42.248L17.088 42.312L16.864 42.6L16.64 42.664L16.224 42.632L16.064 42.824L15.776 42.856L15.264 43.24L15.008 43.048L14.88 43.112L14.848 43.336H14.496L14.368 43.048L14.112 42.92L14.016 42.728V42.44L14.112 42.248V42.12L13.856 42.088L13.888 41.992L14.4 41.544L13.984 41.64L13.888 41.576L13.984 41.448L14.176 41.352L14.144 41.224L14.016 41.16L13.792 41.288L13.888 41.032L13.824 40.904L13.984 40.584L13.696 40.552L13.6 40.488V40.36L13.344 40.232L13.312 40.104L13.664 39.88L13.024 39.4L13.088 39.112L12.896 38.984L12.8 38.76L12.672 38.728L12.448 39.016L12.224 38.856L11.968 38.376H11.808L11.584 38.792L11.456 38.664L11.168 38.76L11.104 38.632L10.56 38.472L10.336 38.696L10.208 38.664L10.048 38.792L9.824 38.664H9.696L9.504 38.888L9.344 38.792L9.184 39.08L8.832 39.272L8.672 39.24L8.448 39.496L8.32 39.528L8.096 39.72L8.032 39.944L7.616 40.328L7.2 40.488L7.104 40.392L7.264 40.2L7.488 40.104L7.552 40.008L7.392 39.528L7.296 39.4L6.944 39.464L6.848 39.432L7.168 39.016L7.264 38.632L7.232 38.376L7.456 38.088L7.104 37.736V37.576L6.784 37.32V37L6.72 36.904L6.464 36.872L6.4 36.776L6.624 36.36L6.656 36.104L6.528 36.072L6.304 36.136L6.016 35.912L6.048 35.784L5.888 35.688L5.568 35.72L5.248 35.56L4.704 35.624L4.48 35.72L4.32 35.88L4.032 35.944L3.808 36.072L3.584 36.36V36.552L3.456 36.744V37.224L3.52 37.32L3.232 37.608L3.264 37.896L3.104 38.216L3.2 38.408L3.232 38.728L3.392 38.92V39.08L3.168 39.112L3.04 39.336L3.008 39.944L2.912 40.232V40.616L2.656 41.064L2.688 41.192L3.136 40.968L3.2 41.096L2.72 41.64L2.752 41.896L2.4 42.664L2.496 42.888L2.336 43.24L2.208 43.944L2.304 44.072L2.56 44.136L2.464 44.36L2.112 44.456L2.016 45L1.824 45.32V45.928L1.632 46.088L1.6 46.216L1.792 46.376L1.856 46.504L1.728 46.888L1.536 46.984L1.44 47.176L1.472 47.72L1.152 48.488L1.216 48.808L1.184 48.936L1.472 49.128L0.832 50.024L0.96 50.216L0.8 50.408V50.536H1.088L1.152 50.76L0.896 51.112L0.672 51.24L0.736 51.4L0.64 51.848L0.672 52.456L0.768 52.808L0.704 52.936L0.864 53.544L0.768 53.832L0.576 53.672L0.48 53.736L0.608 54.152L0.48 54.344L0.384 54.856L0.416 54.984L0.64 55.08L0.672 55.176L0.608 55.24H0.352L0.224 55.688L0.288 56.072L0.192 56.36L0.224 56.584L0 56.808V57.032L0.128 57.224L0.544 57.544L0.576 57.672L0.32 58.152L0.224 58.184L0.352 58.44L1.088 58.92L1.44 58.664L1.664 58.76L1.952 58.504L2.336 58.664L2.624 58.568L2.656 58.408L3.008 58.056H3.2L3.456 57.8L3.68 57.736L3.936 57.544L4.128 57.096L4.448 56.744L4.288 56.52V56.392L4.416 56.296L4.64 56.36L4.8 56.264V55.976L4.96 55.912L5.024 55.784H4.832L4.736 55.88L4.384 55.688L4.448 55.56L4.672 55.496L4.8 55.528L5.152 55.208L5.12 55.048L5.216 54.856L5.152 54.568L5.408 54.472L5.504 54.312L5.344 54.056L5.504 53.576L5.824 53.064L5.792 52.776L5.536 52.712L5.472 52.584L5.504 52.456L5.6 52.392H5.888L6.112 52.296L5.888 52.072L6.176 51.752L5.856 51.048L6.016 50.728L5.984 50.6L6.528 50.312L6.24 50.248L6.144 50.152L6.208 50.056L6.56 49.864H7.072L7.264 49.736L7.328 49.608L7.84 49.576L8 49.416L8.512 49.384L8.608 49.32L8.48 49.064L8.544 48.936L8.768 48.968L8.8 49.192L9.024 49.384L9.408 49.16L9.824 49.224L10.08 48.936L10.24 48.968L10.4 48.68L10.496 48.616H11.04L11.136 48.52V48.296L11.232 48.232L11.584 48.264L11.648 47.912H11.776L11.936 47.752L12.032 47.528L12.48 47.464L12.704 47.08L13.024 46.952V46.664L13.216 46.568L13.28 46.44L12.96 46.408V46.312L13.376 46.12L13.28 45.864L13.472 45.544V45.352L13.792 45.032L13.632 44.808L13.824 44.648H13.984L14.784 44.008L15.104 44.104L15.232 44.04L15.264 43.784L15.648 43.624L16.128 43.752L16.224 43.56L16.736 43.304H17.088L17.216 43.112L17.12 43.048V42.952L17.632 43.08L17.888 43.048L17.824 42.696L18.176 42.568H18.4L18.464 42.472L18.368 42.44V42.28L18.464 42.376L18.72 42.216L19.168 42.184V42.056L19.552 41.768H19.712L19.808 41.352L19.712 41.256ZM10.656 40.84L10.816 40.872L11.36 41.736L11.328 41.864L11.584 41.96L11.424 42.184L11.68 42.28L11.488 42.472V42.856L11.616 43.304L11.712 43.4L11.52 43.56L11.584 43.784L11.552 44.04L11.392 44.232L11.264 44.296V44.584L11.04 44.552L10.88 44.648L10.528 44.68L10.56 44.776L10.496 45L10.24 45.096L9.792 45.384L9.632 45.256L9.376 45.224L9.28 45.448L9.184 45.48L9.088 45.384L8.768 45.32L8.64 45.448L8.736 45.608L8.704 45.736L8.352 45.672L7.776 45.928L7.616 45.896L7.296 46.248L7.04 46.216L6.944 46.152L6.784 45.608L7.136 45.672L7.232 45.608L7.2 45.384L7.104 45.32L6.944 45.384L6.816 45.352L6.848 45.224L7.136 45.096L7.104 45L6.976 44.904V44.744L7.264 44.712L7.328 44.584L7.232 44.392L7.488 43.784L7.392 43.496L7.456 43.368L7.328 43.144L7.456 42.792L7.392 42.568L7.488 42.248H7.776L7.712 41.928L7.776 41.832L8.128 41.768L8.16 41.384L8.448 41.48L8.512 41.128L8.704 41.096L8.896 41.224L8.96 40.904L9.312 41.032L9.472 40.872L9.728 40.936V40.584L10.208 40.776V40.552L10.4 40.584L10.528 40.68L10.656 40.84ZM10.56 45.608H10.656L10.752 45.896L10.688 46.152L10.368 46.568L10.528 46.888L10.144 47.08L9.984 47.4L9.824 47.496L9.792 47.656L9.408 48.04L9.248 48.008L8.832 48.264L8.352 48.808L8.192 48.776L7.968 48.936L7.424 48.904L6.912 48.744L6.624 48.872L6.528 48.808L6.56 48.424L6.4 48.168L6.496 47.944L6.464 47.816L6.816 47.4L7.008 47.336L7.04 47.048L7.584 46.504L7.84 46.472L7.968 46.536L8.192 46.44L8.608 46.376L8.928 46.184L8.896 45.96L9.12 46.088L9.472 45.864L9.76 45.832L10.016 45.896L10.368 45.576L10.56 45.608ZM1.28 56.232L1.376 56.168L1.536 56.264L1.44 56.392L1.344 56.328L1.28 56.232ZM6.432 50.76L6.304 50.792L6.272 50.92H6.4L6.432 50.76ZM0.448 55.496V55.4L0.576 55.368V55.528L0.448 55.496ZM5.824 53.768L5.696 53.8V53.928L5.792 53.896L5.824 53.768ZM0.576 52.936L0.608 52.904H0.576V52.936Z" transform="translate(0.632812 0.47168)" fill="#F4ED3C"/>
<path d="M23.3482 39.4L23.2202 39.176L22.9963 39.016L22.9643 38.92L22.0363 38.536L21.8442 38.568L21.3003 38.44L20.7882 38.824L20.5643 38.92L20.4683 39.144L20.0842 39.592L19.8283 39.752L19.7962 40.008L19.7003 40.072L19.3802 40.104L19.0923 40.488L18.9963 40.744L18.7722 40.84L18.6443 40.968V41.288L18.3563 41.32L18.2922 41.448L18.4842 41.576L18.3242 41.768L18.1003 41.736L18.0042 41.8L18.0363 41.928L17.9722 42.184L17.6523 42.568L17.6203 42.824L17.3643 43.08L17.2682 43.048L17.1722 43.112L17.3322 43.304L17.3643 43.432L17.3003 43.528L16.9803 43.656L16.8202 44.2L16.9803 44.36L16.8843 44.488L16.6922 44.36L16.5963 44.392L16.4362 44.744L16.5643 45L16.4362 45.192H16.2762L16.1162 45.8L16.2122 46.056L16.0842 46.184L16.0522 46.312L16.2762 46.504L16.3722 46.792L16.1483 47.24L16.1162 47.496L16.2122 48.104L16.3403 48.168L16.6283 48.04L16.6602 48.168L16.5963 48.264L16.4362 48.328L16.4043 48.648L16.5963 49.224L16.5643 49.384L16.8202 49.608V49.896L17.0763 50.28V50.408L17.2362 50.568L17.7163 50.792H17.9722L18.0042 50.952L17.9082 51.208L17.9722 51.304H18.3563L18.7402 51.592L18.8363 51.752V51.88L19.0923 52.008H19.2523L19.2202 51.784L19.4123 51.688L19.7642 51.624L19.8923 51.816L20.1162 51.912L20.2442 52.232L20.4683 52.296L20.6283 52.232L20.6602 52.328L20.7882 52.392L21.1082 52.232L21.2362 52.296L21.4603 52.072L21.7162 52.136L21.9082 52.104L22.0042 52.328L22.1642 52.232L22.2283 52.104V51.816L22.3242 51.752H22.5483L22.6763 51.912L22.9643 51.976L23.3482 51.848V51.624L23.8923 51.496V51.368L23.8283 51.304H23.4762L23.5083 51.144L23.6683 50.92L23.9242 50.888L24.0842 51.208L24.3722 50.92L24.5002 50.888L24.7243 50.696L24.6602 50.6L24.6922 50.376H24.9482L25.1403 50.12V49.992L25.5562 49.768L25.7803 49.48L26.0042 49.384V49.16L26.3242 48.968L26.3883 48.68L26.6442 48.296L26.8363 47.848L27.1243 47.528L27.2523 46.92L27.7323 46.248L27.5083 45.96L27.6042 45.672L27.7642 45.48L27.7962 45.224L27.6042 45.032L27.6683 44.808L27.5402 44.584L27.5723 44.456L27.4762 44.104L27.6683 43.944L27.7002 43.816L27.5083 43.56L27.5723 43.24L27.6683 43.144L28.0522 43.112L28.4043 42.696L28.6283 42.664L28.7243 42.728L28.7563 42.408L28.8202 42.312L28.9163 42.664L28.9803 42.728L29.6842 42.248H29.9082L30.0682 42.312L30.2922 41.8L30.5163 42.184L30.9323 41.8L31.1562 41.864L31.2843 41.672L31.0923 41.512L31.1562 41.384L31.2843 41.544L31.6683 41.32L32.2122 41.352L32.4043 41.288V41.16L32.7562 40.808L33.2043 40.744L33.3962 40.264L33.3643 40.072L33.2682 40.008L33.0443 40.168L32.6283 39.976L32.2762 40.136L31.6683 40.744H30.9323L30.8363 41.192L30.6763 40.936L30.5483 40.872L30.0363 41.416L29.8123 41.128L29.5243 41.448L29.2043 41.352L29.1403 41.416L29.1082 41.736L29.0443 41.832L28.8202 41.736L28.5962 41.512L28.3722 41.736L28.2443 41.704L27.8923 41.768L27.7323 42.056L27.5723 41.864L27.3162 41.896L26.9002 42.056L26.7402 41.928L26.6442 41.672L26.4523 41.512L26.3242 41.48L26.1642 41.256L26.0682 41.224L25.9722 41L25.7803 40.872H25.5562L25.2043 40.584L24.9163 40.552L24.8522 40.296L24.5643 40.2L24.4043 40.552L24.2762 40.392L24.1803 40.488H24.0522L23.9562 40.328L24.0203 40.072L23.7323 39.912L23.6362 39.784V39.528L23.4762 39.4H23.3482ZM26.6123 43.4H26.8363L26.8682 43.528L26.8042 43.784L26.9002 44.104L27.0282 44.296L27.0923 44.776L26.9323 45L26.9002 45.256L26.9642 45.384V45.8L26.6123 46.184L26.5802 46.312L26.2922 46.536L25.9722 46.984L25.7482 47.72L25.0122 48.232L24.9802 48.456L24.5963 48.904L24.5322 49.064L24.1483 49.416L23.9562 49.448L23.6362 49.832L22.7083 50.504L22.6122 50.376L21.3003 50.984L20.6922 50.824L20.4363 50.664L20.4043 50.408L20.3403 50.312L20.0842 50.568L19.8603 50.504L19.9562 50.28H20.3403L20.1803 50.088L19.8603 49.928L19.7323 49.32L19.7962 49.224L20.0203 49.288L19.9242 48.936L19.9562 48.776L19.7003 48.392L19.9883 48.2L20.1162 47.592L19.8923 47.368L20.0522 47.144H20.3083L20.4043 47.048L20.4363 46.824L20.6602 46.696L20.8202 46.312L20.7563 45.768L21.2362 45.352L21.2682 45.064L21.4923 44.616L21.6523 44.584L21.7482 44.488V44.168L22.5163 43.56V43.432L22.6763 43.272L22.8682 43.432L23.0923 43.4L23.2843 43.528H23.4123L23.5083 43.432L23.6683 43.624L23.8923 43.752H24.5322L24.5963 43.528L24.7882 43.56L25.0443 43.464L25.8123 43.4L26.0042 43.272L26.1322 43.336H26.5163L26.6123 43.4ZM25.7803 42.056L25.9722 42.344L25.6203 42.44L25.4282 42.312L25.1403 42.248H24.7243L24.2122 41.832L24.1803 41.608L24.2762 41.576L24.4043 41.64H24.8522L25.0763 41.768L25.4282 41.832L25.6842 42.024L25.7803 42.056ZM18.2922 48.104L18.3563 47.976L18.5802 47.944L18.6443 48.008L18.6122 48.136L18.5163 48.2L18.3883 48.168L18.2922 48.104ZM18.7722 46.76V46.632L18.9643 46.568L18.9963 46.632L18.9323 46.792L18.7722 46.76ZM18.7083 50.024L18.8682 49.864L18.9643 49.896L18.9323 49.992L18.8043 50.056L18.7083 50.024ZM18.3242 50.024L18.5483 50.056V50.12L18.4202 50.184L18.3242 50.12V50.024ZM23.2202 42.888L23.1562 42.76L23.1882 42.6L23.2843 42.664L23.2523 42.92L23.2202 42.888ZM20.0522 44.36H19.9562L19.8923 44.264L19.9562 44.168L20.0522 44.264V44.36ZM27.7962 44.392L27.7642 44.52L27.8923 44.552L27.9562 44.424L27.7962 44.392ZM20.5002 47.208L20.4363 47.304L20.5322 47.4L20.5963 47.368L20.5643 47.272L20.5002 47.208ZM24.2122 50.76L24.3083 50.696L24.4043 50.76L24.3083 50.856L24.2122 50.76ZM23.6042 40.104L23.7642 40.168L23.7323 40.264L23.6362 40.2L23.6042 40.104ZM26.7723 45.48L26.6442 45.512L26.6763 45.608L26.7723 45.48ZM17.9403 41.704L17.8763 41.832L17.9722 41.768L17.9403 41.704ZM31.6683 41.576L31.5723 41.608L31.6683 41.64V41.576ZM19.8603 45L19.9242 44.936V45H19.8603Z" transform="translate(0.632812 0.47168)" fill="#F4ED3C"/>
<path d="M47.712 41.256L47.584 41.384L47.296 41.288L47.008 41.416L46.624 41.736L46.368 41.768L46.048 41.992L45.792 41.928L45.376 42.248L45.088 42.312L44.864 42.6L44.64 42.664L44.224 42.632L44.064 42.824L43.776 42.856L43.264 43.24L43.008 43.048L42.88 43.112L42.848 43.336H42.496L42.368 43.048L42.112 42.92L42.016 42.728V42.44L42.112 42.248V42.12L41.856 42.088L41.888 41.992L42.4 41.544L41.984 41.64L41.888 41.576L41.984 41.448L42.176 41.352L42.144 41.224L42.016 41.16L41.792 41.288L41.888 41.032L41.824 40.904L41.984 40.584L41.696 40.552L41.6 40.488V40.36L41.344 40.232L41.312 40.104L41.664 39.88L41.024 39.4L41.088 39.112L40.896 38.984L40.8 38.76L40.672 38.728L40.448 39.016L40.224 38.856L39.968 38.376H39.808L39.584 38.792L39.456 38.664L39.168 38.76L39.104 38.632L38.56 38.472L38.336 38.696L38.208 38.664L38.048 38.792L37.824 38.664H37.696L37.504 38.888L37.344 38.792L37.184 39.08L36.832 39.272L36.672 39.24L36.448 39.496L36.32 39.528L36.096 39.72L36.032 39.944L35.616 40.328L35.2 40.488L35.104 40.392L35.264 40.2L35.488 40.104L35.552 40.008L35.392 39.528L35.296 39.4L34.944 39.464L34.848 39.432L35.168 39.016L35.264 38.632L35.232 38.376L35.456 38.088L35.104 37.736V37.576L34.784 37.32V37L34.72 36.904L34.464 36.872L34.4 36.776L34.624 36.36L34.656 36.104L34.528 36.072L34.304 36.136L34.016 35.912L34.048 35.784L33.888 35.688L33.568 35.72L33.248 35.56L32.704 35.624L32.48 35.72L32.32 35.88L32.032 35.944L31.808 36.072L31.584 36.36V36.552L31.456 36.744V37.224L31.52 37.32L31.232 37.608L31.264 37.896L31.104 38.216L31.2 38.408L31.232 38.728L31.392 38.92V39.08L31.168 39.112L31.04 39.336L31.008 39.944L30.912 40.232V40.616L30.656 41.064L30.688 41.192L31.136 40.968L31.2 41.096L30.72 41.64L30.752 41.896L30.4 42.664L30.496 42.888L30.336 43.24L30.208 43.944L30.304 44.072L30.56 44.136L30.464 44.36L30.112 44.456L30.016 45L29.824 45.32V45.928L29.632 46.088L29.6 46.216L29.792 46.376L29.856 46.504L29.728 46.888L29.536 46.984L29.44 47.176L29.472 47.72L29.152 48.488L29.216 48.808L29.184 48.936L29.472 49.128L28.832 50.024L28.96 50.216L28.8 50.408V50.536H29.088L29.152 50.76L28.896 51.112L28.672 51.24L28.736 51.4L28.64 51.848L28.672 52.456L28.768 52.808L28.704 52.936L28.864 53.544L28.768 53.832L28.576 53.672L28.48 53.736L28.608 54.152L28.48 54.344L28.384 54.856L28.416 54.984L28.64 55.08L28.672 55.176L28.608 55.24H28.352L28.224 55.688L28.288 56.072L28.192 56.36L28.224 56.584L28 56.808V57.032L28.128 57.224L28.544 57.544L28.576 57.672L28.32 58.152L28.224 58.184L28.352 58.44L29.088 58.92L29.44 58.664L29.664 58.76L29.952 58.504L30.336 58.664L30.624 58.568L30.656 58.408L31.008 58.056H31.2L31.456 57.8L31.68 57.736L31.936 57.544L32.128 57.096L32.448 56.744L32.288 56.52V56.392L32.416 56.296L32.64 56.36L32.8 56.264V55.976L32.96 55.912L33.024 55.784H32.832L32.736 55.88L32.384 55.688L32.448 55.56L32.672 55.496L32.8 55.528L33.152 55.208L33.12 55.048L33.216 54.856L33.152 54.568L33.408 54.472L33.504 54.312L33.344 54.056L33.504 53.576L33.824 53.064L33.792 52.776L33.536 52.712L33.472 52.584L33.504 52.456L33.6 52.392H33.888L34.112 52.296L33.888 52.072L34.176 51.752L33.856 51.048L34.016 50.728L33.984 50.6L34.528 50.312L34.24 50.248L34.144 50.152L34.208 50.056L34.56 49.864H35.072L35.264 49.736L35.328 49.608L35.84 49.576L36 49.416L36.512 49.384L36.608 49.32L36.48 49.064L36.544 48.936L36.768 48.968L36.8 49.192L37.024 49.384L37.408 49.16L37.824 49.224L38.08 48.936L38.24 48.968L38.4 48.68L38.496 48.616H39.04L39.136 48.52V48.296L39.232 48.232L39.584 48.264L39.648 47.912H39.776L39.936 47.752L40.032 47.528L40.48 47.464L40.704 47.08L41.024 46.952V46.664L41.216 46.568L41.28 46.44L40.96 46.408V46.312L41.376 46.12L41.28 45.864L41.472 45.544V45.352L41.792 45.032L41.632 44.808L41.824 44.648H41.984L42.784 44.008L43.104 44.104L43.232 44.04L43.264 43.784L43.648 43.624L44.128 43.752L44.224 43.56L44.736 43.304H45.088L45.216 43.112L45.12 43.048V42.952L45.632 43.08L45.888 43.048L45.824 42.696L46.176 42.568H46.4L46.464 42.472L46.368 42.44V42.28L46.464 42.376L46.72 42.216L47.168 42.184V42.056L47.552 41.768H47.712L47.808 41.352L47.712 41.256ZM38.656 40.84L38.816 40.872L39.36 41.736L39.328 41.864L39.584 41.96L39.424 42.184L39.68 42.28L39.488 42.472V42.856L39.616 43.304L39.712 43.4L39.52 43.56L39.584 43.784L39.552 44.04L39.392 44.232L39.264 44.296V44.584L39.04 44.552L38.88 44.648L38.528 44.68L38.56 44.776L38.496 45L38.24 45.096L37.792 45.384L37.632 45.256L37.376 45.224L37.28 45.448L37.184 45.48L37.088 45.384L36.768 45.32L36.64 45.448L36.736 45.608L36.704 45.736L36.352 45.672L35.776 45.928L35.616 45.896L35.296 46.248L35.04 46.216L34.944 46.152L34.784 45.608L35.136 45.672L35.232 45.608L35.2 45.384L35.104 45.32L34.944 45.384L34.816 45.352L34.848 45.224L35.136 45.096L35.104 45L34.976 44.904V44.744L35.264 44.712L35.328 44.584L35.232 44.392L35.488 43.784L35.392 43.496L35.456 43.368L35.328 43.144L35.456 42.792L35.392 42.568L35.488 42.248H35.776L35.712 41.928L35.776 41.832L36.128 41.768L36.16 41.384L36.448 41.48L36.512 41.128L36.704 41.096L36.896 41.224L36.96 40.904L37.312 41.032L37.472 40.872L37.728 40.936V40.584L38.208 40.776V40.552L38.4 40.584L38.528 40.68L38.656 40.84ZM38.56 45.608H38.656L38.752 45.896L38.688 46.152L38.368 46.568L38.528 46.888L38.144 47.08L37.984 47.4L37.824 47.496L37.792 47.656L37.408 48.04L37.248 48.008L36.832 48.264L36.352 48.808L36.192 48.776L35.968 48.936L35.424 48.904L34.912 48.744L34.624 48.872L34.528 48.808L34.56 48.424L34.4 48.168L34.496 47.944L34.464 47.816L34.816 47.4L35.008 47.336L35.04 47.048L35.584 46.504L35.84 46.472L35.968 46.536L36.192 46.44L36.608 46.376L36.928 46.184L36.896 45.96L37.12 46.088L37.472 45.864L37.76 45.832L38.016 45.896L38.368 45.576L38.56 45.608ZM29.28 56.232L29.376 56.168L29.536 56.264L29.44 56.392L29.344 56.328L29.28 56.232ZM34.432 50.76L34.304 50.792L34.272 50.92H34.4L34.432 50.76ZM28.448 55.496V55.4L28.576 55.368V55.528L28.448 55.496ZM33.824 53.768L33.696 53.8V53.928L33.792 53.896L33.824 53.768ZM28.576 52.936L28.608 52.904H28.576V52.936Z" transform="translate(0.632812 0.47168)" fill="#F4ED3C"/>
<path d="M48.3083 37.768L48.0522 37.8L47.9243 37.736H47.5083L47.2523 37.864L47.0602 37.832L46.8363 37.992L46.6763 37.928L46.3242 38.408L46.2603 38.888L46.0682 39.144L46.0363 39.4L45.8122 39.528L45.7803 39.624L45.9723 39.88L45.7163 40.296V40.456L45.4922 40.616L45.4603 40.744H45.6203L45.6842 40.936L45.2682 41.32L45.6203 41.512L45.6842 41.608L45.4922 41.672V41.736L45.3003 41.896L45.2682 42.12L45.3322 42.248L45.0762 42.408L45.0443 42.568L45.2363 42.92L45.0122 43.08L44.8843 43.336L45.0762 43.72L44.9162 44.008V44.456L45.0122 44.936L44.9162 45.448L44.8522 45.512L44.9162 45.672L44.7562 45.896L44.6922 46.312L44.5962 46.536V47.4L44.6603 47.656L44.4683 48.008L44.5322 48.168L44.5003 48.392L44.5643 48.52L44.5322 48.712L44.6283 49.096L44.4683 49.256L44.6922 49.48L44.6283 49.704L44.7882 49.896L44.8843 50.44L45.1082 50.536L45.3643 51.016L45.4282 51.432L45.5243 51.496H45.7163L46.1003 51.784H46.2282L46.3242 52.04L46.4842 52.072L46.6442 51.848L46.7402 51.912L46.9323 52.52L47.0923 52.392L47.3483 52.424L47.6362 52.36L47.8602 52.424L47.9243 52.328L47.8923 51.912L48.0202 51.784L48.1162 51.848L48.2443 52.072L48.6922 52.328H48.8522V51.848L48.9162 51.752L49.2362 51.976L49.5243 51.752L49.6842 51.72L50.2282 51.112L50.4202 51.08L50.7082 50.664L50.5802 50.376L50.6763 50.28L50.7723 50.44L50.9002 50.472L51.0602 50.28L51.4123 50.12L51.5083 49.576L51.4123 49.32V49.064L51.5402 48.872L51.8283 49L52.0202 48.584H52.1483L52.2122 48.456L52.1483 48.232L52.3722 47.944L52.2443 47.784L52.3722 47.464L52.4683 47.4L52.6603 47.56H52.7882L52.9482 47.72V48.008L52.8843 48.136L53.0443 48.296L52.9482 48.36L52.7243 48.328L52.6603 48.392L52.6922 48.52L53.0122 48.744L52.8522 49.16H52.7243L52.6603 49.256L52.9482 49.896L52.9803 50.184L52.7243 50.024L52.6283 50.152L52.8522 50.6L52.7243 51.016L52.8522 51.112L53.1082 50.984L53.1722 51.08L53.0443 51.368L53.2043 51.592L52.9482 51.944L53.2362 52.232L53.4922 52.328L53.3003 52.456V52.648L53.3643 52.744L53.6203 52.712L53.7803 53.096L53.7163 53.224L53.7803 53.352L54.0363 53.288L54.1323 53.352L54.2603 53.576L54.3563 53.64L54.6123 53.512L54.6442 53.992L54.7402 54.056L54.8683 53.992L54.9642 53.768V53.608L55.3483 53.736V53.864L55.5402 54.024L55.5723 54.216L55.7323 54.184L55.8602 53.992L55.9883 53.928L56.1483 54.056L56.3403 53.928L56.5962 53.96L56.8843 53.544L57.0763 53.608L57.2682 53.448L57.5243 53.416L57.8123 53.16L57.9403 53.256L57.9082 53.064L58.0363 52.712L58.0042 52.04L58.0682 51.944L58.2603 51.976L58.4202 51.752L58.6442 51.912L58.7082 51.848L58.8042 51.208L58.9002 51.144H59.0602L59.2843 51.016L59.3802 50.632L59.2202 50.44V50.312L59.3483 50.216L59.4442 50.312L59.6683 50.344L59.7642 50.28L59.6683 49.8L59.8283 49.64L59.8923 49.832L59.9883 49.896L60.0522 49.8L60.1802 49L60.0843 48.936L59.8602 48.968L59.6683 48.872L59.5083 49.064L59.3162 49.672L59.1883 49.704L58.5483 50.312L58.4523 50.696V51.016L58.2603 50.984L57.5882 51.752L57.4923 51.784L57.2043 52.072V52.232L57.1403 52.328L56.5962 52.296L56.6283 52.136L56.5643 51.944L56.6922 51.656L56.6603 51.496L56.4362 51.368L56.3722 51.272L56.5322 51.016L56.6603 50.6L56.9162 50.504L56.7882 50.28L56.6922 50.248L56.5002 50.472L56.4043 50.376V50.248L56.5643 50.024L56.4043 49.832L56.3722 49.576L56.7563 49.256V47.912L56.7882 47.816L56.7243 47.72L56.7882 46.952L56.8522 46.92L56.9482 47.08L57.1082 46.984V46.632L57.0443 46.504L57.0763 46.248L56.9803 45.96L57.0122 45.832L56.9482 45.576L57.0763 45.384L57.0122 45.256L57.2043 44.776H57.0443L56.9803 44.68L57.2682 44.712L57.3322 44.52L57.2682 44.424L57.1403 44.392L57.1082 44.168L57.2682 44.008L56.9803 43.72L56.9482 43.56L57.3003 43.144V43.016L57.2362 42.952H57.1082L56.9803 43.176H56.8202V42.984L57.3003 42.728L57.3643 42.28L56.9803 42.248V41.672L56.9162 41.608H56.6603L56.5322 41.128L56.6603 40.776L56.5002 40.648L56.1162 40.68L56.0203 40.616L55.5083 40.744L55.1242 40.712L54.9323 40.872L54.7082 40.904L54.3882 41.096L54.2283 41.288L54.1003 41.32L54.0363 41.48L54.0682 41.608L53.8763 41.768V41.928L53.7482 42.056L53.8123 42.312V42.728L53.7482 42.792L53.4282 42.824L53.3643 42.888L53.5882 43.176V43.304L53.4282 43.528L53.4922 44.008L53.3643 44.2V44.328L53.2043 44.456L53.2682 44.616L53.1082 44.808V45L52.7243 45.448L52.6922 45.576L52.5962 45.64L52.4362 45.96V46.152L52.0843 46.472L52.1802 46.664L51.9883 46.824L51.9562 47.272L51.7323 47.432L51.5083 47.72L51.5402 47.88L51.4123 48.232L51.1242 48.456L51.0602 48.84L50.9002 48.968V49.128L50.6763 49.544L50.2282 49.736L50.1642 49.832L50.3242 50.152L50.2282 50.216L49.7803 50.184L49.3643 50.408L49.2682 50.344L49.1082 49.8L49.1722 49.608L49.1082 49.512L48.8522 49.672L48.7243 49.64L48.6603 49.512L48.7882 49.32L49.2043 48.968L49.1403 48.776L49.2682 48.584L49.1403 48.136L49.1082 47.72L49.2362 47.656L49.3963 47.88L49.5243 47.944L49.5882 47.72L49.5563 47.592L49.1082 47.368L49.0763 47.112L48.9482 46.888H49.2043L49.2682 47.176L49.4603 47.336L49.5882 47.368L49.5243 47.08L49.9082 46.76L49.8763 46.632L49.5243 46.728L49.4603 46.6L49.4922 46.472L49.8442 46.28L49.9082 45.896L49.6842 45.736L49.7482 45.64L49.6203 45.416L49.8763 45.224L49.7482 44.2L49.8442 44.136H50.1003L50.3242 43.976H50.5163L50.6442 43.816L50.6123 43.72L50.1642 43.528V43.24L50.3563 43.08L50.1323 42.92L50.1003 42.76L50.1642 42.504L50.2603 42.408H50.4202L50.5483 42.248L50.4202 42.088L50.2923 42.056L50.2282 42.312L50.1323 42.376L50.0682 42.12L50.1642 41.608L50.0682 41.352L50.1003 41.096L50.1642 41L49.8763 40.616L50.1323 40.296L49.9403 39.944L49.8442 39.88L50.0042 39.592L49.7803 39.464L49.7163 39.24L49.9722 38.92L49.8763 38.44L49.8123 38.376L49.6203 38.504L49.5243 38.28L49.3643 38.12L48.9482 37.96L48.6922 38.024L48.4043 37.8L48.3083 37.768ZM62.2283 44.84L61.8762 44.776L61.7482 45.256L61.6522 45.32L61.6842 45.544L61.3322 45.928L60.9482 46.632V46.792L60.7563 46.952L60.6283 47.432L60.4362 47.624V47.752H60.8843L61.0443 47.528L61.3643 47.24L61.4603 47.016L61.3963 46.696L61.5562 46.504L61.7803 46.408V46.152L61.9083 45.928L62.1003 45.992V45.544L62.1642 45.448L62.4202 45.32L62.4842 45.224L62.3563 45.096L62.6763 44.744L62.6122 44.648L62.7082 44.392L62.9323 44.296L63.0602 43.944L63.2523 43.752L63.3803 43.176H63.7003L63.7962 43.08L63.6043 42.856V42.504L63.7323 42.28L63.9562 42.216L63.8283 41.768L63.6362 41.736L63.1883 41.928L63.2202 42.024L63.0602 42.504L62.8683 42.696L62.7723 42.888L62.8363 43.272L62.6763 43.4L62.5802 43.368L62.6122 43.656L62.5483 43.784L62.9643 43.88L62.3882 44.2L62.2283 44.072L62.3242 44.424L62.2283 44.648L62.2603 44.744L62.2283 44.84ZM60.6603 47.912L60.5643 47.816L60.5002 47.912H60.3403L59.9883 48.264L59.9243 48.52L59.9883 48.648L60.3722 48.328V48.584L60.5322 48.68L60.5962 48.456L60.5643 48.2L60.6922 48.04L60.6603 47.912ZM49.2043 43.176L49.2362 43.048L49.5243 43.208L49.8763 43.176L49.9403 43.688L50.0042 43.784L49.9403 44.008L49.8442 44.072L49.8763 43.784L49.7163 43.56L49.4282 43.464L49.3003 43.24L49.2043 43.176ZM47.7323 47.048L47.5723 46.92L47.5402 46.792L47.7002 46.28L48.0843 46.248L48.1483 46.344L48.1162 46.472L48.3083 46.664V46.76L48.2122 46.824L48.0843 46.536L47.9883 46.472H47.8283L47.7643 46.92L47.7323 47.048ZM57.1082 41L56.9803 40.936L56.8843 40.968L56.7563 41.224L56.8522 41.416L57.0122 41.256L57.0443 41.128L57.1082 41ZM55.9243 48.424L56.1162 48.808H55.8602L55.7962 48.68L55.8283 48.456L55.9243 48.424ZM47.7962 47.784L47.6683 47.72L47.5723 47.464L47.6362 47.368L47.7962 47.4L47.8283 47.688L47.7962 47.784ZM47.5723 49.096L47.4442 49.288L47.3162 49.32V49.128L47.4762 48.936L47.5402 48.968L47.5723 49.096ZM47.7002 49.928L47.6043 49.864L47.6362 49.64L47.7323 49.576L47.8283 49.64L47.7643 49.928H47.7002ZM47.8283 49.224L47.7323 49.16V48.872L47.8602 48.84L47.8923 49.096L47.8283 49.224ZM48.9162 43.784L48.7562 43.432L48.8843 43.368L49.0122 43.784H48.9162ZM57.1403 47.912L57.3003 47.848L57.3643 47.752L57.2362 47.656L57.1403 47.688L57.0763 47.816L57.1403 47.912ZM56.6922 44.712L56.7882 44.488L56.9803 44.424V44.52L56.8522 44.68L56.6922 44.712ZM56.8202 49.512L56.6922 49.48L56.6283 49.736L56.7243 49.832L56.7882 49.64L56.8202 49.512ZM49.2362 44.552L49.2043 44.424L49.2682 44.296L49.3963 44.232L49.3643 44.488L49.2362 44.552ZM47.4762 50.312L47.3162 50.12L47.3802 49.896L47.4762 50.184V50.312ZM47.3802 51.016L47.3483 50.856L47.4442 50.76L47.5083 50.952L47.4442 51.048L47.3802 51.016ZM46.5802 50.696L46.5163 50.472L46.6123 50.408L46.6763 50.632L46.5802 50.696ZM49.5563 48.36L49.3963 48.328L49.3322 48.456L49.4922 48.488L49.5882 48.392L49.5563 48.36ZM51.0283 50.088L50.9963 49.96L51.1562 49.736L51.0923 50.088H51.0283ZM50.2923 44.584H50.1642L50.0363 44.808L50.2282 44.712L50.2923 44.584ZM47.8283 50.568L47.7323 50.504L47.7643 50.376H47.8923V50.504L47.8283 50.568ZM57.3963 53.608L57.3643 53.736H57.5882L57.5243 53.608H57.3963ZM48.3083 47.4L48.2122 47.336L48.1483 47.176H48.2762L48.3083 47.304V47.4ZM49.6203 41.064L49.7482 41.032L49.7803 41.128L49.7163 41.224L49.6203 41.16V41.064ZM49.6203 42.728L49.6522 42.504L49.7803 42.568L49.7163 42.696L49.6203 42.728ZM46.9323 43.592L47.0283 43.368L47.0923 43.464L47.0283 43.624L46.9323 43.592ZM60.9803 47.208L61.0443 46.984L61.0122 46.856H61.1082L61.0763 47.112L60.9803 47.208ZM47.2842 41.576L47.3483 41.448L47.4442 41.48V41.64L47.2842 41.576ZM46.0363 48.04L45.9723 47.944L46.0042 47.848H46.1323L46.1003 47.976L46.0363 48.04ZM48.7243 43.944H48.8522L48.9162 44.136L48.7882 44.072L48.7243 43.944ZM55.1883 44.2L55.4123 44.136L55.4442 44.232L55.3162 44.264L55.1883 44.2ZM55.2843 53.32V53.224L55.4123 53.256L55.4442 53.352L55.3483 53.384L55.2843 53.32ZM56.7243 51.048L56.8522 51.208L56.9482 51.176L56.8843 51.08L56.7243 51.048ZM47.7002 48.232L47.6362 48.136L47.7002 48.04L47.7643 48.072V48.2L47.7002 48.232ZM62.1323 44.68L62.1003 44.552H61.9722L62.0042 44.68H62.1323ZM50.2603 40.68L50.3242 40.936L50.3882 40.808L50.3242 40.68H50.2603ZM57.4603 44.104L57.3963 44.2H57.6203V44.136L57.4603 44.104ZM56.7243 44.072L56.6603 44.008L56.8202 43.88V44.008L56.7243 44.072ZM52.5962 47.88L52.5643 47.752H52.4362L52.5002 47.88H52.5962ZM50.4842 41.288L50.3563 41.256V41.384H50.4523L50.4842 41.288ZM58.9323 50.856L58.8363 50.824V50.728H58.9642L58.9323 50.856ZM53.7803 51.368H53.9082L53.9403 51.528L53.8442 51.464L53.7803 51.368ZM49.2682 45.928L49.2043 45.832L49.2682 45.736L49.3322 45.832L49.2682 45.928ZM49.2362 43.72V43.592L49.3322 43.496V43.624L49.2362 43.72ZM54.9963 44.296L55.0282 44.2L55.1562 44.168L55.1242 44.264L54.9963 44.296ZM46.6442 46.024H46.7723L46.7402 46.12H46.6442V46.024ZM57.3643 41.544L57.1722 41.736L57.3003 41.704L57.3643 41.544ZM46.2603 46.664L46.2282 46.568H46.3242L46.3563 46.664H46.2603ZM61.7163 46.632L61.6522 46.664L61.6842 46.76H61.7482L61.7163 46.632ZM53.0122 45.704V45.576L53.1082 45.672L53.0122 45.704ZM46.9963 50.376V50.472H46.9323V50.376H46.9963ZM49.1403 42.248L49.1082 42.152L49.2362 42.184L49.1403 42.248ZM47.4762 43.784L47.5083 43.688L47.5723 43.784H47.4762ZM57.3003 50.728L57.2362 50.824H57.3322L57.3003 50.728ZM48.7882 50.728V50.6L48.8522 50.664L48.7882 50.728ZM46.1003 50.28L46.1963 50.312L46.1003 50.344V50.28ZM49.2682 51.496L49.3322 51.368L49.3643 51.4L49.2682 51.496ZM44.6922 45.736L44.7243 45.704H44.6922V45.736Z" transform="translate(0.632812 0.47168)" fill="#F4ED3C"/>
<path d="M69.0672 47.592L68.6512 47.72L68.4592 47.848V48.136L68.2672 48.264L68.0112 48.68L67.9792 49.096L68.2032 49.224H68.0753L67.8833 49.128L67.5952 49.32V49.448L67.2753 49.672L67.2112 49.8L67.2433 49.96L66.8593 50.216L66.8273 50.376L66.6033 50.568L66.6353 50.792L66.3472 50.76L66.0912 51.176L65.7713 51.368L65.7072 51.528L65.2912 51.624L64.9713 51.048L65.0993 50.664L65.3232 50.536L65.3553 50.408L65.2912 50.184L65.3873 49.864L65.2912 49.704L65.1633 49.736L64.9393 49.64L64.9072 49.544L64.9713 49.448L65.2592 49.48L65.2272 49.224L65.2912 48.68L65.4512 48.52L65.4193 48.296L65.2592 48.136L65.4512 47.848L65.4193 47.624L65.5472 47.24L65.5153 47.112L65.6752 46.952L65.7393 46.312L65.6752 46.184L65.8353 45.992V45.736L66.0273 45.16L65.8992 44.904L66.0273 44.68L65.8992 44.392L66.0912 44.168V43.464L66.3152 43.176L66.1553 43.144L66.0912 43.016L66.2832 42.728L66.1232 42.472L66.4753 42.248L66.5392 42.152L66.4753 41.896L66.5392 41.8L66.5072 41.384L66.6992 41.192L66.6673 41.032L66.7632 40.872L67.0193 40.776L67.2112 40.616L67.2433 40.52L67.0193 40.2L67.2753 39.784L67.3392 39.56L67.7872 39.272L67.7233 38.888L67.8513 38.728L68.0753 38.888L68.2032 38.696V38.44L68.4272 38.12V37.928L68.5872 37.736L68.8112 37.096L68.6512 36.552L68.8112 36.392L68.9073 36.136L68.8432 35.88L69.1633 35.848L69.2592 35.784L69.2912 35.624L69.1633 35.4V35.24H69.4512L69.6752 34.536V34.28L69.8353 34.184V33.896L70.0912 33.544L69.8672 33.128L69.7713 32.68L69.9633 32.168V31.784L70.0592 31.688L70.3472 31.592L70.3152 31.432L69.9633 31.08V30.92L69.8353 30.696L69.8672 30.472L69.7072 30.184L69.9633 29.928L69.5793 29.64L69.5473 29.512L69.6113 29.288L69.5152 29.224L69.2912 28.712L69.1633 28.68L68.9713 28.52L68.8112 28.136L68.6512 28.104L68.1393 27.592L67.6913 27.688L67.4673 27.56L67.3392 27.592L66.8913 27.368L66.4113 27.4L65.7393 27.752L65.7713 27.88L65.6113 28.2V28.36L65.3553 28.52L65.4832 29V29.288L65.2592 29.512L65.2272 29.928L64.9713 30.024L64.8432 30.504L64.9393 30.984L64.7473 31.144V31.496L64.6833 31.624L64.4272 31.72L64.2352 31.88L64.0433 32.264L64.1393 32.52V33.192L64.0112 33.352L64.0752 33.672L63.8833 33.832V33.96L63.7552 34.152L63.7233 34.632L63.5633 34.824L63.5312 34.952L63.5952 35.208L63.4673 35.4L63.5633 35.656L63.2433 35.944L63.1473 36.232L62.9552 36.392L62.8913 36.552L62.9873 36.744V37L62.6992 37.384V37.544L62.5073 37.832L62.4753 38.248L62.6032 38.472L62.5392 38.696L62.3153 38.856L62.2513 38.984V39.336L61.9953 39.464L62.1553 39.912L62.1232 40.328L61.8993 40.424L61.9313 40.68L61.8032 40.744L61.8353 41.128L61.5472 41.576L61.5793 41.896L61.7393 42.184L61.4832 42.504V42.728L61.4193 42.824L61.2272 42.92L61.4193 43.176L61.3553 43.432L61.5472 44.392L61.2272 44.52L61.2912 44.84L60.9712 44.904L61.2272 45.192L61.2912 45.768L61.2272 45.864L61.0033 45.96L60.9393 46.056L61.0033 46.312L60.9712 46.504L61.2272 46.728L61.4832 47.4L61.2272 47.56V47.88L61.4832 48.296L61.3872 48.52L61.1953 48.744L61.3872 48.872L61.6753 48.776L61.8032 48.936L61.4512 49.032L61.3872 49.128L61.6432 49.448L61.3872 49.672L61.3553 49.832L61.6432 50.472L61.8672 50.504V50.824L62.5392 51.752L62.7313 51.848L63.0192 52.2L63.2113 52.328L63.9473 52.424L64.1073 52.584L64.6192 52.712L64.7153 52.808L64.7473 52.648L64.8753 52.584L65.2272 52.968L65.4832 53L65.9313 52.776H66.0592L66.3472 52.424L66.6033 52.392L66.7312 52.2L67.0833 52.168L67.1152 51.976L66.8913 51.848L66.8273 51.752L67.0513 51.592L66.9872 51.208L67.1472 51.016L67.2753 51.24L67.4353 51.336L67.5632 51.272L67.4353 50.92L67.4993 50.6L67.6272 50.376L67.9792 50.344L68.1073 50.12L68.3313 49.896L68.1393 49.576L68.2672 49.512H68.5233L68.6512 49.448L68.6832 49.032L68.9393 48.936L68.9713 48.584L69.2272 48.296L69.1633 48.072L69.3553 47.912L69.3873 47.752L69.1953 47.624L69.0672 47.592ZM67.4032 33.928L67.3712 33.8L67.5312 33.064L67.4673 32.808L67.6913 32.488L67.6593 32.36L67.3712 32.136L67.5312 31.848L67.4993 31.72L67.6272 31.528L67.5632 31.304L67.4032 31.272L67.0193 31.336L67.1472 31.144L67.4993 30.856L67.5312 30.728L67.1472 30.664L67.0513 30.568V29.992L67.2753 29.928L67.4993 29.96V29.832L67.2433 29.512L67.3073 29.384L67.6272 29.544L67.8513 29.448L68.0112 29.224L68.3952 29.032L68.8752 29.256L69.0352 29.48L69.1953 29.544L69.0992 29.96L69.1953 31.688L69.3873 32.168L69.1953 32.296L69.0672 32.648L69.0992 32.776L68.9713 32.936L69.0672 33.16L69.1633 33.864L68.9073 33.992L68.9393 34.344L68.5553 35.112L68.5233 35.368L68.2993 35.496L68.2672 35.72L68.3313 35.944L68.1393 36.104V36.264L67.8513 36.68L67.8192 36.84L67.7233 36.904L67.5952 37.256L67.6272 37.512L67.5632 37.608L67.0513 37.64L66.9552 37.704V37.864H67.2753L67.3073 38.056L67.1792 38.12L66.8913 37.896L66.6033 37.832L66.7632 37.672L66.9552 37.224L66.9872 36.968L66.9232 36.904H66.7632L66.6992 36.968L66.6033 36.936L66.6353 36.808L67.1152 36.616L67.3073 36.648L67.1472 36.296L67.1792 36.2L67.0513 35.848L66.9232 35.784H67.1792L67.3392 35.56V35.432H67.0833L67.1792 34.984L66.8273 34.824L66.9872 34.312L67.1152 34.088L67.3073 33.96L67.4032 33.928ZM72.8432 40.904L72.6832 41.096L72.5553 41.16L72.3952 41.448L72.2672 41.512L72.1073 41.896L71.9473 42.024L71.8192 42.504L71.9153 42.76L71.8512 42.888L71.7233 42.664L71.5312 42.76L71.4993 43.176L71.1792 43.432L71.0833 44.168L70.5712 44.776H70.5072L70.4433 44.872L70.4113 45.192L70.1873 45.352L69.9633 45.672L70.1232 45.864L70.0273 45.928L69.8353 45.864L69.6113 46.024L69.6752 46.28L69.2912 46.568L69.1633 46.76L69.2592 47.016L69.1633 47.176L68.9393 47.272L68.8752 47.4L69.6432 47.528L69.8353 47.432L69.8992 47.176L70.1552 46.952L70.0273 46.696V46.568L70.3152 46.632L70.7632 45.672L70.9872 45.512L71.0193 45.288L71.3392 45.096L71.3712 45L71.2112 44.84L71.3073 44.712L71.4673 44.68L71.5632 44.584L71.6913 44.264L71.5632 43.944H71.7552L71.9153 43.432L72.1393 43.528L72.2032 43.048L72.6192 42.44L72.7153 42.024L73.0033 41.864L72.6832 41.544V41.48L72.7793 41.448L72.9393 41.544H73.0672L73.1953 41.064L73.1633 40.904L73.0033 40.712H72.9073L72.8432 40.904ZM65.2272 35.624L65.6432 35.784L65.9313 35.72L65.9632 35.88L65.8992 36.008L65.9632 36.328L65.8353 36.36L65.2272 35.784V35.624ZM67.0833 36.36L66.9872 36.456L66.7312 36.488L66.5712 36.264L66.9552 36.328L67.0833 36.36ZM65.5472 45.096L65.3232 45L65.2912 44.84L65.4193 44.808L65.6432 44.904V45.032L65.5472 45.096ZM67.1152 28.712V28.872L67.0513 28.968L66.9232 29L66.8273 28.904L66.9872 28.744L67.1152 28.712ZM68.9393 48.136L68.8432 48.168L68.7153 48.104L68.6832 48.008L68.7473 47.912L68.9393 48.008V48.136ZM66.5712 30.312L66.4753 30.44L66.2832 30.312L66.3793 30.216H66.5072L66.5712 30.312ZM66.3472 33.48L66.5072 33.448L66.5712 33.608L66.4433 33.672L66.3472 33.608V33.48ZM69.6432 47.048L69.6752 46.92L69.8033 46.856L69.8992 46.888L69.8672 47.048L69.7713 47.08L69.6432 47.048ZM66.8273 35.336L66.9232 35.368L66.8273 35.56L66.6992 35.592V35.432L66.8273 35.336ZM64.3952 42.44L64.2673 42.376V42.248H64.4912L64.4593 42.376L64.3952 42.44ZM65.4832 41.192L65.4193 41.32H65.2912L65.2592 41.192L65.3553 41.128L65.4832 41.192ZM69.8672 31.208V31.336L69.7072 31.4L69.6752 31.272L69.7713 31.208H69.8672ZM65.2272 38.376L65.3553 38.216L65.4832 38.248L65.4512 38.344L65.3232 38.408L65.2272 38.376ZM61.1953 47.08H60.9712V47.208L61.0993 47.24L61.1953 47.144V47.08ZM67.8192 50.856L67.9153 50.76V50.6L67.7872 50.632L67.7552 50.76L67.8192 50.856ZM65.2272 36.2V36.328L65.1312 36.392L65.0033 36.328L65.0672 36.232L65.2272 36.2ZM64.8753 41.864L64.6833 41.896V41.768L64.8112 41.736L64.8753 41.864ZM68.2672 38.088H68.0753L68.1073 37.96H68.2352L68.2672 38.088ZM65.4193 34.664L65.3553 34.856L65.2912 34.792V34.664H65.4193ZM66.7632 32.904L66.6673 32.968L66.5712 32.84H66.6992L66.7632 32.904ZM66.5072 38.76L66.6992 38.792L66.6353 38.888H66.5392L66.5072 38.76ZM67.3712 34.6L67.3392 34.44H67.2433V34.568L67.3712 34.6ZM64.6192 39.432L64.5233 39.4V39.304H64.6512L64.6192 39.432ZM66.9872 29.864V29.992H66.8273L66.8913 29.896L66.9872 29.864ZM62.9552 44.84H62.8592V44.712H62.9552V44.84ZM64.3313 50.12L64.3633 49.992L64.4593 50.088L64.3313 50.12ZM69.6432 34.376L69.5152 34.248H69.6113L69.6432 34.376ZM67.6593 30.408L67.5952 30.248V30.376L67.6593 30.408ZM69.3873 33.256L69.2912 33.224L69.3553 33.16L69.3873 33.256ZM65.8672 37.416V37.352H65.9632L65.8672 37.416ZM71.7552 43.144L71.7872 43.08L71.8192 43.144H71.7552Z" transform="translate(0.632812 0.47168)" fill="#F4ED3C"/>
<path d="M76.9315 38.088L76.6435 37.928L76.4515 37.704L76.2275 37.736L75.6515 38.024L75.6195 38.344L75.3955 38.376L75.2675 38.312L75.3955 38.056L75.0435 37.96L74.9795 38.056L75.0115 38.312L74.7875 38.376L74.3715 38.632L74.2115 38.856L74.0835 38.92L74.0515 39.08L73.9555 39.176H73.6675L73.6355 39.464L73.5715 39.56L73.3155 39.592L73.2515 39.848L72.9955 39.944L72.9315 40.072L73.1235 40.232L73.1875 40.36L72.8355 40.584L72.6115 40.904L72.5795 41.096L72.3555 41.224H72.2275L72.0675 41.352L71.9075 41.288L71.6515 41.768L71.8115 42.056L71.6515 42.248L71.7795 42.472V42.6L71.5555 42.632L71.1075 42.568L71.2035 42.824L71.0435 43.272L70.7555 43.656L70.8195 44.2L70.5955 44.456V44.808H70.3395L70.2435 44.904L70.3395 45H70.5635L70.6275 45.096L70.2755 45.48V45.672L70.1795 45.928L70.3715 46.024L70.4035 46.216L70.2755 46.408L70.3395 46.536L70.4995 46.664L70.4035 47.08L70.5315 47.112H70.3715L70.3395 47.432L70.4995 47.528L70.5955 47.976L70.9475 48.776L71.2995 49.064L71.3955 49.288L71.6515 49.544L71.8115 49.48L71.8755 49.576L71.9075 49.832L72.2275 50.152L72.3555 50.376L72.7395 50.44L72.8355 50.536L72.8995 50.76L72.9955 50.824L73.4115 50.728L73.5715 50.824L73.6675 50.696L73.8595 50.824L73.9875 51.016H74.1155L74.3075 50.92L74.7555 51.176L74.8835 51.144L74.9475 51.016L75.2675 50.824L75.2035 50.76L75.2675 50.472L75.3635 50.44L75.6515 50.536L75.8115 50.728L75.9715 50.504L76.3235 50.312L76.4515 50.408H76.5795L76.7715 50.056H76.6435L76.3875 50.216L76.4835 49.96L76.9315 49.608L77.2515 49.736L77.4435 49.64L77.4755 49.544L77.1555 49.352L77.3795 49.032L77.6035 49.16L77.8275 49.096L77.8595 48.808L78.0195 48.744L77.8915 48.488L77.9875 48.392L78.3395 48.488V48.168L78.8195 47.784L78.7555 47.656L79.1075 47.304H79.4275L79.5875 47.56L79.5235 47.752L79.7795 47.976L79.7155 48.104L79.4275 48.136L79.3315 48.232L79.3635 48.904L79.5875 48.968V49.128L79.2355 49.608L79.2995 49.832L79.2035 50.216L79.4275 50.248L79.3315 50.504L79.4275 50.696L79.4595 51.336L79.5875 51.272L79.7155 51.304L79.4275 51.752L79.5235 51.688H79.9075L80.0675 51.624L80.1635 51.688L80.0675 51.816L79.7795 51.784L79.5555 52.104L79.8435 52.072L79.9715 52.168L79.6195 52.392L79.8435 52.552L80.2275 52.488L80.0355 52.648L79.9075 53L80.0355 53.032L80.4195 52.936L80.5475 53.032L80.2275 53.224L80.3235 53.384L80.9315 53.992L81.0275 54.184L81.2515 54.12L81.4115 53.672L81.5395 53.704L81.6035 53.832L81.3795 54.088V54.504L82.3075 54.472L82.5955 54.568L82.7235 54.376L82.9475 54.216L83.1715 54.248L83.6195 53.736L83.4915 53.512L83.7475 53.352L83.6515 53.224V53.096L83.7795 52.904V52.744H83.4915L83.3315 53.16L83.1715 53.192L83.0435 52.776H83.2035L83.4595 52.456L83.2035 52.392L82.9795 52.424L82.8835 52.328L82.9155 52.2H83.2035L83.5875 51.88L83.4275 51.784L83.6835 51.336L83.0115 51.4L82.7235 51.368L82.6595 51.304L82.7235 51.144L82.6275 50.92L82.8835 50.792L82.9155 50.632L82.8515 50.472L83.0435 50.344L83.2995 50.28L83.1715 50.056L83.3955 49.768L83.2675 49.672L82.7875 49.768L82.4355 49.672L82.1155 49.864H82.0195L81.7635 49.576L82.4035 49.512L82.5315 49.608L83.2035 49.448L83.2675 49.352L83.0755 49.256L83.0435 49.128L83.4915 49.064L83.5875 49L83.5235 48.904L83.1395 48.872L83.0115 48.776V48.68L83.1075 48.616H83.4915L83.5875 48.136L83.1715 47.944L83.1075 47.848L83.2355 47.752H83.5235L83.6195 47.688L83.5555 47.592L83.3635 47.56L83.2995 47.464L83.4275 47.176L83.3315 46.856L83.4275 46.792L83.8755 46.856L83.8435 46.728L83.6515 46.504V46.376L83.9715 45.8L83.8435 45.608L84.1315 45.384L84.1635 45.288L84.0995 45.16L83.7475 45.224L83.6835 45L83.7475 44.904L83.9715 44.776L84.0035 44.584L84.1315 44.392L83.9075 43.912L84.0035 43.752L84.1315 43.688L83.8755 43.144L84.1315 43.08L84.3875 42.728L84.4835 42.216L84.4515 42.12L84.5795 42.088L84.6755 41.96L84.5475 41.704L84.3555 41.544L84.5155 41.32L84.4835 41.224L84.7395 40.904L84.6755 40.776L84.4515 40.84L84.4835 40.616L84.5795 40.456L84.5475 40.328L84.7395 40.2L84.9635 40.168L85.0595 40.072L84.8355 39.944L84.7075 39.976L84.3875 39.88L84.0995 39.944L84.0035 39.88L84.0675 39.752L84.3555 39.688L84.4195 39.592L84.0995 39.464L84.0355 39.368H84.1635L84.3555 39.272H84.6755L84.5475 39.624L84.5795 39.752L84.8995 39.72L84.9955 39.656L84.9315 39.432L84.9635 39.176L84.8995 39.08L84.6435 39.048L84.5155 39.112L84.3555 38.952L84.1635 38.92L84.0995 38.824L84.3555 38.792L84.3875 38.728L83.8755 38.44L83.6195 38.536L83.5235 38.44L83.5875 38.28L83.3635 38.088L83.1715 38.216L82.7875 38.152L82.5635 38.344L81.9235 38.248L81.7955 38.536V38.824L81.2835 39.048V39.624L80.9955 40.008V40.168L80.7395 40.2L80.7075 40.36L80.8355 40.936L80.7075 41.064L80.5795 41.096L80.7075 41.32L80.5475 41.512L80.3235 41.608L80.1315 41.96L80.0995 42.344L79.9395 42.504L80.0675 42.728L80.0035 42.856L79.8435 42.952L79.9075 43.144L79.3635 44.008L79.0755 44.328L78.7555 44.968L78.7875 45.192L78.6915 45.256L78.4355 45.288L78.2755 45.48L78.2115 45.768L78.0195 45.928L77.9235 46.216H77.7635L77.6675 46.28L77.6035 46.76L77.4435 46.664L77.2835 46.824V47.112L77.1875 47.336L77.0595 47.24H76.9635L76.2275 47.752L75.6835 47.656L75.4915 47.464L75.2035 47.4L75.1075 47.304V46.92L75.0435 46.792L74.9155 46.824L74.8835 46.952L74.9795 47.176L74.8515 47.336L74.7235 47.272H74.4675L74.5635 46.984L74.1475 46.632L74.3395 46.536L74.8195 46.632L74.9475 46.6L74.9795 46.536L74.8835 46.216L75.1395 45.96L74.9795 45.736L75.1395 45.512L75.0115 45.256L75.1075 45.192H75.3315L75.2675 44.808L75.0435 44.744L75.1075 44.616L75.3955 44.488L75.4915 43.976L75.2355 43.912L75.6515 43.144L75.3315 42.984L75.2995 42.888L75.7475 42.76L75.8115 42.664L75.5235 42.6L75.4915 42.504L75.7155 42.312L75.7795 42.184L75.7155 41.96L75.7475 41.832L75.5555 41.608L75.9075 41.48L75.9395 41.256L76.1315 41.128L76.2595 40.904L75.6835 40.744L75.6515 40.616L76.0355 40.52L76.0995 40.424L76.0675 40.232L76.4515 40.104L76.6435 39.912L76.5155 39.688L76.8995 39.592L77.0275 39.496L77.3795 39.816L77.5075 40.008L77.5715 40.264L77.8595 40.392L77.9235 40.488L77.8595 40.808L78.3075 41.32L78.5315 41.288L78.6915 41.48L79.0115 41.608L79.5235 40.936L79.3635 40.52V40.264L79.1075 39.976V39.816L78.8195 39.336L78.5635 39.208L78.4995 39.112L78.5315 38.92L78.4675 38.824L77.9555 38.728L77.8915 38.664L77.9235 38.152L77.4755 38.12L77.2835 37.96L77.0275 37.864L76.9955 37.992L76.9315 38.088ZM82.7875 46.76L82.9795 47.016L83.2355 46.856L83.2035 47.144L83.0755 47.368L83.0115 47.336L82.7555 47.656L82.5315 47.624L82.4675 47.752L82.5635 47.848H82.6595L82.7235 47.976L82.3715 48.104L82.3075 48.008V47.656L82.0515 47.336L82.0835 47.24L82.2755 47.144H82.4035L82.6595 46.792L82.7875 46.76ZM81.8915 52.008L82.0515 51.912L82.3395 51.88L82.2435 51.976L82.3395 52.168L82.7875 52.52L82.6915 52.616L81.9555 52.68L81.6995 52.616L81.5715 52.456L81.6035 52.36L81.8275 52.392L81.9235 52.136L81.8915 52.008ZM82.4995 53.064L82.7555 52.776H83.0115L82.7555 53.128L82.7235 53.256L82.7875 53.384L82.6275 53.512L82.4995 53.736L82.5635 53.8V53.928L82.4355 53.768L82.1475 53.832L82.0515 53.768L82.0835 53.64L82.2435 53.544L82.3715 53.608L82.4355 53.384L82.5955 53.192L82.4995 53.064ZM83.3635 54.568L83.5235 54.44L83.4275 54.344L83.1075 54.312L82.7235 54.568L82.8835 54.76L83.1395 54.728L83.2995 54.568H83.3635ZM81.9555 51.048L82.1795 50.952L82.1155 51.144L82.3075 51.4L82.2755 51.496H81.7315V51.368L82.0515 51.176L81.9555 51.048ZM80.4835 48.936L80.5475 48.84L81.0915 48.648L81.0595 48.776L80.6755 49.192L80.5475 49.032L80.4835 48.936ZM73.6675 49.192L73.6355 49.032L73.7315 48.84L73.9235 48.744H74.0515L73.8915 49.128L73.7955 49.192H73.6675ZM83.4915 39.496L83.5235 39.368L83.7155 39.24L83.9715 39.272L84.0355 39.368L83.5875 39.496H83.4915ZM83.0115 51.624L83.2355 51.752L83.2675 51.848L83.0435 52.04L82.9795 51.976L82.9475 51.72L83.0115 51.624ZM83.1395 46.536L83.2675 46.312L83.4595 46.28L83.4275 46.536L83.3635 46.632L83.2355 46.6L83.1395 46.536ZM81.4755 47.08L81.5075 46.952L81.7955 46.92L81.8915 46.984L81.8595 47.112L81.6035 47.144L81.4755 47.08ZM83.0115 43.08L83.1395 42.888L83.2675 42.824L83.3955 42.888L83.2355 43.112L83.1075 43.144L83.0115 43.08ZM81.9555 49.032L82.2435 49.192L82.4995 49.064L82.4675 49.224L82.3715 49.192L82.0195 49.256L81.8915 49.224L81.9235 49.096L81.9555 49.032ZM83.4915 50.952L83.0755 50.92L82.8835 51.08L83.0115 51.112L83.2355 51.016L83.4595 51.048L83.4915 50.952ZM81.2195 49.672L81.4755 49.608L81.5715 49.64L81.2515 49.768L80.8995 49.736L80.9635 49.64L81.0915 49.608L81.2195 49.672ZM82.4675 50.184L82.5635 49.992L82.8515 50.056L82.8195 50.152L82.5635 50.216L82.4675 50.184ZM83.6515 40.392L83.6835 40.296L83.7795 40.264L84.0035 40.36L83.8435 40.488L83.7155 40.456L83.6515 40.392ZM83.0115 48.456L83.1715 48.264L83.3955 48.328L83.3315 48.424L83.1075 48.488L83.0115 48.456ZM82.9475 53.544L83.1395 53.416L83.2355 53.544L83.0115 53.768V53.672L82.9475 53.544ZM79.6515 47.144L79.7795 46.92L79.8755 46.888L79.9715 46.984L79.7795 47.176L79.6515 47.144ZM80.4515 51.72L80.4835 51.592L80.7075 51.432L80.7715 51.496L80.6115 51.688L80.4515 51.72ZM81.2835 49.224L81.3475 49.096L81.5075 49.032L81.5715 49.128L81.4115 49.288L81.2835 49.224ZM83.2995 44.584L83.5235 44.456L83.6195 44.488L83.4915 44.68H83.3955L83.2995 44.584ZM73.5715 46.408L73.6675 46.184L73.8915 46.152L73.7315 46.376L73.5715 46.408ZM83.4915 50.568H83.1395L83.1075 50.664L83.3635 50.696L83.4595 50.632L83.4915 50.568ZM82.1795 50.952L82.2115 50.856L82.3395 50.792L82.4675 50.824L82.5315 50.92L82.2755 50.952H82.1795ZM79.5875 49.896V49.8L79.7475 49.64L79.8755 49.608L79.7155 49.864L79.5875 49.896ZM81.8915 48.456L81.9235 48.296L82.0195 48.2L82.1155 48.264L82.0515 48.392L81.8915 48.456ZM72.2275 46.728L72.2595 46.632L72.4195 46.664L72.4835 46.792L72.3555 46.824L72.2275 46.728ZM83.8755 42.696L84.0035 42.6L84.1315 42.632L84.0995 42.792L83.9715 42.76L83.8755 42.696ZM82.6915 49.224L82.7235 49.096L82.9475 49.032L82.9155 49.16L82.6915 49.256V49.224ZM80.3875 52.296L80.2595 52.232L80.3235 52.04L80.4195 52.104V52.264L80.3875 52.296ZM81.3475 48.36L81.4435 48.2L81.5715 48.232L81.5075 48.36L81.3795 48.424L81.3475 48.36ZM81.7955 50.632L81.8595 50.504L82.0195 50.472L81.9875 50.6L81.8915 50.664L81.7955 50.632ZM75.9715 41.768L75.8755 41.704L75.7795 41.896H75.9715V41.768ZM81.8915 48.776H82.1155L82.0835 48.904H81.9235L81.8915 48.776ZM82.3715 48.584H82.4995L82.5955 48.68L82.5315 48.744L82.4035 48.712L82.3715 48.584ZM78.0835 47.656V47.528L78.1795 47.496L78.2435 47.56L78.2115 47.688L78.0835 47.656ZM81.4115 50.184L81.5075 50.152L81.6995 50.248L81.4115 50.28V50.184ZM80.9955 40.456L81.0275 40.392H81.1555L81.2195 40.488L81.0915 40.52L80.9955 40.456ZM80.9315 42.632L80.9955 42.536H81.1555L81.0915 42.664L80.9315 42.632ZM83.9715 53.512L83.9395 53.576L84.0035 53.672L84.1315 53.608L84.0995 53.544L83.9715 53.512ZM82.5635 44.552V44.52L82.7235 44.584L82.6915 44.712L82.5955 44.648L82.5635 44.552ZM82.6595 51.88V51.976L82.3395 51.88H82.6595ZM82.1475 53.224L82.1795 53.096H82.3075L82.2435 53.224H82.1475ZM83.7475 47.112L83.6515 47.144L83.6195 47.24L83.7475 47.272V47.112ZM85.1875 40.52L85.0915 40.424H84.9635L85.0275 40.52H85.1875ZM75.1075 43.304L75.2355 43.272V43.4L75.1715 43.432L75.1075 43.304ZM73.8915 45.864L74.0515 45.832V45.928L73.9555 45.96L73.8915 45.864ZM78.5635 47.656H78.4675L78.4355 47.56H78.5635V47.656ZM84.1315 53.064L84.0355 53.096L84.0675 53.192L84.1635 53.128L84.1315 53.064ZM83.6195 50.12L83.5235 50.248H83.6515L83.6195 50.12ZM73.8595 46.856V46.728L73.9555 46.792L73.9235 46.856H73.8595ZM83.6835 54.28L83.5555 54.344L83.6835 54.408V54.28ZM81.3475 46.28L81.4755 46.312L81.3475 46.376V46.28ZM84.1315 40.872L84.0355 40.776H84.1315V40.872ZM81.6675 51.016L81.7635 50.984V51.08L81.6675 51.016ZM81.0275 46.12L80.9955 45.992H81.0595L81.0275 46.12ZM80.8995 54.28L80.9315 54.344L81.0275 54.312L80.8995 54.28ZM80.6755 50.856L80.6435 50.792L80.7395 50.76L80.6755 50.856ZM80.6435 52.936L80.7395 52.904L80.6755 53L80.6435 52.936ZM77.4755 47.752H77.5715L77.4755 47.816V47.752ZM70.8515 46.632V46.568L70.9155 46.664L70.8515 46.632ZM76.8995 49.992V50.056L76.8675 50.024L76.8995 49.992Z" transform="translate(0.632812 0.47168)" fill="#F4ED3C"/>
<path d="M98.0918 39.656L97.9957 39.432L97.8997 38.536L97.7397 38.216L97.5157 38.344L97.3557 38.056L97.1637 38.088L96.8757 37.736L96.7798 37.48L96.5558 37.512L96.3638 37.352L96.1718 37.384L96.0437 37.608L95.9478 37.672L95.8517 37.608L95.6277 37.704L95.4677 37.512H95.3078L95.1158 37.736L94.9238 37.608L94.8277 37.672L94.7957 37.896L94.5078 38.248L94.3477 38.28L94.1237 38.792L93.8997 38.76L93.7717 38.984L93.7397 39.208L93.8038 39.336L93.7077 39.4L93.4837 39.304L93.5477 39.656L93.3557 39.624L93.2917 39.848L93.2598 40.424L93.1317 40.616L93.0358 40.584L92.9077 41.16L92.5237 41.32L92.4277 41.512V41.768L92.1077 41.96L91.7558 42.536L91.6597 42.568L91.4998 42.472L91.4037 42.184L91.6277 42.12L91.4037 41.32L91.5957 41.032L91.4998 40.648V40.104L91.6918 39.944L91.7878 39.752L91.9798 39.656L91.8517 39.528L91.7238 39.656L91.5318 39.496L91.4677 39.208L91.5638 39.08L91.4037 38.728L91.4677 38.6L91.4037 38.056H91.1797L91.0517 37.832V37.544L91.1158 37.416L91.0197 37.224L90.9238 37.16L90.5397 37.256L90.4758 37.16L90.5717 36.968L90.4117 36.808L90.2838 36.776L90.0598 36.904L89.9317 36.68L89.7077 36.712L89.5797 36.616L89.3878 36.744L89.2917 36.488L88.9397 36.616L88.6837 36.584L88.4277 36.808H88.1718L88.0437 36.872L87.7558 37.736L87.9798 38.248L87.7238 38.344L87.7558 38.6L87.5957 40.552L87.4037 40.744L87.3717 40.872L87.5318 41.224L87.4998 41.48L87.2117 41.704L87.2758 41.96L87.2117 42.216L87.2758 42.472L87.1797 42.696L87.0838 43.336L86.9557 43.528L86.7637 44.2L86.8598 44.456L86.7957 44.776L86.6358 44.968L86.8277 45.416L86.7318 45.512L86.4758 45.608V45.736H86.6998L86.4438 45.96L86.5397 46.152L86.5078 46.952L86.1877 47.336V47.912L85.9957 48.168L86.1237 48.68L85.9957 48.904V49.128L85.7397 49.224L85.6758 49.32L85.8678 49.736L85.8358 49.96L85.7077 50.184L86.0278 50.472L85.9957 50.664L86.0918 50.952L86.2838 51.112L86.3158 51.272L86.4438 51.432V51.752L86.6358 51.912L86.8598 51.88L87.0838 51.976L87.3078 51.848L87.6597 51.816L87.8517 51.464V51.304L88.3318 51.208L88.4597 51.24L88.5878 51.624L88.7157 51.56V50.728L88.8438 50.472L88.8118 50.344L88.9397 50.248L89.3237 50.408L89.5477 49.992L89.8038 49.736L89.9637 49.352L89.7397 49.128L90.0918 48.808L90.1237 48.68L90.3797 48.392L90.3477 48.232L90.1237 48.36L89.9957 48.2L90.3797 47.912L90.2198 47.304L90.4438 47.208L90.6037 47.24L90.6358 47.016L90.8918 46.696L90.8598 46.44L90.7318 46.184L91.0197 46.248L91.0517 45.96L91.3717 45.832L91.4357 45.576L91.4037 45.32L91.4998 45.192L91.5318 44.936L91.6597 44.84H91.7878L91.9478 44.68L91.9798 44.424L91.8837 44.168L91.9158 43.944L92.0117 43.848L92.1718 44.008L92.3638 43.72L92.5237 43.24L92.4277 43.048L92.5237 42.408H92.6198L92.7798 42.536H92.9077L92.9397 42.312L93.0677 42.248L93.1958 42.056L93.4837 41.224L93.5477 41.192L93.6438 41.352L93.7077 42.024L93.6758 42.248L93.8038 42.472L93.8678 43.144L93.7397 43.464L93.8678 43.848L94.0598 43.944L94.1557 44.2L94.5717 44.488L94.6037 44.648L94.7957 44.808L95.1797 45.32L95.3078 45.16L95.4037 45.128L95.5638 45.256H95.6917L95.9478 44.968L96.2357 45.032L96.3638 44.968L96.4277 44.808L96.2677 44.52L96.6517 44.168L96.7478 44.424L96.6517 44.68L96.7798 44.648L96.9397 44.168L97.2598 44.296L97.5157 44.04H97.6438L97.8678 43.72V43.528L97.9637 43.304L97.9317 43.016L98.0278 42.76L97.9957 42.632L97.7717 42.344L97.9317 42.12L97.8678 41.64L98.1877 41.256L98.1237 41.128H97.9317L97.8678 41L97.9317 40.424L97.8358 40.2L98.0278 39.752L98.2518 39.848L98.1877 39.72L98.0918 39.656Z" transform="translate(0.632812 0.47168)" fill="#F4ED3C"/>
<path d="M105.796 28.84H105.508L105.059 28.648L104.708 28.68L104.643 28.584L104.419 28.648L104.163 29.096L104.195 29.448L103.908 29.544L103.331 30.6L103.363 30.856L103.204 31.048V31.176L103.012 31.56L103.107 31.72L103.012 31.912V32.04L102.883 32.168V32.264L103.076 32.616L103.012 32.712L102.788 32.808L102.628 33.32L102.788 33.416L102.628 34.056L102.66 34.184L102.467 34.696L102.596 34.952L102.372 35.496L102.404 35.944L102.212 36.2L102.531 36.52L102.339 36.648L102.212 36.84L102.18 37L102.372 37.224L102.212 37.352V37.48L102.051 37.672V37.832L102.212 38.12L102.083 38.344V39.144L101.923 39.304L101.891 39.432L102.051 39.624L101.827 40.232L101.956 40.776L101.796 40.936L101.764 41.096L102.051 41.256L101.827 41.704V41.992L101.923 42.248L101.988 42.792L102.148 43.112L102.372 43.048L102.499 43.112L102.275 43.496V43.624L102.339 43.688L103.044 43.656L103.268 43.784L103.523 43.816L103.587 43.624L104.068 43.24L104.324 43.176L104.643 42.984L104.579 42.76L104.324 42.728V42.472L104.548 42.376L104.708 42.152L105.251 41.832V41.704L105.092 41.416L105.124 41.256L105.348 41.128V40.712L105.508 40.488L105.475 40.296L105.699 40.008L105.923 39.912L105.956 39.72L105.827 39.656L105.572 39.752L105.604 39.624L105.732 39.56L105.891 39.336L106.02 39.272L106.083 38.984L106.275 38.824L106.115 38.728L105.956 38.92L105.764 38.76L105.732 38.664L106.18 38.408L106.243 37.896L106.372 37.864L106.467 38.056L106.531 37.96L106.404 37.64L106.531 37.16L106.755 37.064L106.788 36.968L106.723 36.84L106.755 36.616L106.947 36.136V35.72L107.076 35.528V35.432L107.331 35.336L107.171 35.048L107.299 34.568L107.492 34.28L107.299 34.056L107.523 33.64L107.331 33.512L107.299 33.416L107.428 33.032L107.652 32.936L107.715 32.808L107.684 32.328L107.971 32.008L107.939 31.752L108.068 31.304L107.939 30.952L108.068 30.76L108.132 30.504L108.1 30.216L107.876 30.12L107.62 29.896L107.363 29.992L107.268 29.928L107.236 29.672L107.299 29.544L107.139 29.416L107.044 29.512L106.979 29.768L106.883 29.864L106.82 29.8V29.448L106.531 29.416L106.148 29.16H105.988L105.859 28.936L105.796 28.84ZM102.18 46.504L101.891 46.344H101.251L101.156 46.28H100.9L100.516 46.408L100.324 46.696L100.195 46.664L100.003 46.856L99.8115 47.24V47.496L99.6515 47.656L99.5875 47.88L99.6195 48.296L99.4595 48.552V48.936L99.5235 49.128L99.4275 49.256L99.5555 49.8L99.4275 50.248L99.5235 50.376L99.8115 50.312L99.9075 50.728L99.8755 50.824L99.6835 50.728L99.4915 50.92L99.6835 51.08L99.8435 51.112V51.368L100.227 51.816L100.324 51.56L100.484 51.688L100.516 51.912L100.708 52.008L100.803 51.656L100.932 51.688L100.9 52.168L100.548 52.52L100.995 52.424L101.156 52.456L101.188 52.328L101.316 52.2L101.443 52.264L101.699 52.552L101.891 52.328L102.115 52.52L102.372 52.328L102.596 52.488L102.723 52.424L102.852 52.168H103.107L103.236 51.88L103.012 51.816L102.947 51.72L103.395 51.24L103.46 51.368L103.331 51.752L103.523 51.88L103.652 51.816L103.62 51.656L103.715 51.176L103.62 51.016L103.779 50.696L103.908 50.728L103.811 51.112L104.036 51.176L104.163 51.08L104.1 50.664L104.26 50.504L104.355 50.6L104.324 50.856L104.579 50.92L104.611 50.792L104.451 50.536L104.484 50.312L104.324 50.44H104.195V50.184H103.811L104.003 49.96V49.8L104.227 49.448L104.355 49.384L104.227 49.832L104.26 50.152L104.516 50.184L104.643 49.832L104.74 49.736L104.964 49.832L105.059 49.64H104.803L104.611 49.48L104.579 49.352L104.676 49.32L104.867 49.48L105.156 49.384L105.188 49.288L105.092 49.192L104.708 49.256L104.74 48.968L105.027 49L105.124 48.776L105.283 48.744L105.443 48.808L105.411 48.584L105.475 48.456L105.443 48.2L105.219 48.392L105.156 48.52L105.027 48.552L104.995 48.296L105.092 47.912L104.932 47.4L104.964 47.08L104.803 47.016L104.74 47.112V47.368L104.643 47.432L104.419 47.336L104.355 47.208L104.132 47.24L103.876 46.76L103.747 46.824L103.555 47.304L103.46 47.208L103.523 46.856L103.428 46.632L102.947 46.504L102.788 46.696L102.691 46.728L102.564 46.504L102.467 46.44L102.339 46.472L102.18 46.504ZM101.699 48.456L101.764 48.488L101.699 48.872L101.923 49.256L101.796 49.544V49.8L101.732 49.896L101.635 49.672L101.699 49.448L101.667 49.192L101.508 48.808L101.604 48.584L101.699 48.456ZM104.195 48.968L104.227 48.84L104.676 48.552L104.771 48.744L104.676 49L104.484 48.872L104.292 49L104.195 48.968ZM101.956 51.624L102.115 51.656L102.307 51.4L102.372 51.464L102.339 51.72L101.923 51.88V51.72L101.956 51.624ZM103.044 49.032L103.204 49.128L103.268 49.384L103.236 49.64L102.98 49.128L103.044 49.032ZM103.107 39.112L102.98 39.304L102.755 39.336L102.788 39.208L103.012 39.048L103.107 39.112ZM100.26 51.08L100.387 51.048L100.484 51.24L100.452 51.368L100.324 51.336L100.26 51.208V51.08ZM102.596 48.712L102.723 48.36L102.82 48.456L102.723 48.776L102.596 48.712ZM105.092 50.44L105.027 50.312H104.771L104.803 50.44L104.932 50.472L105.092 50.44ZM102.947 46.984L102.98 46.856L103.139 46.952L103.171 47.112H103.044L102.947 46.984ZM105.316 49.032V49.288L105.411 49.32L105.475 49.224L105.38 49L105.316 49.032ZM104.419 46.92L104.355 46.792H104.227V46.92L104.324 46.984L104.419 46.92ZM104.548 47.912V47.688L104.676 47.656L104.643 47.88L104.548 47.912ZM101.827 51.944L101.923 51.912L101.956 52.04L101.891 52.136L101.827 52.104V51.944ZM102.275 52.936L102.18 52.84L102.115 52.904L102.212 53L102.275 52.936ZM103.779 44.04L103.747 44.136H103.844L103.876 44.04H103.779ZM100.132 52.168L100.1 52.264L100.195 52.328V52.232L100.132 52.168ZM105.508 49.64L105.443 49.768H105.572L105.508 49.64ZM104.1 51.784L103.971 51.816L104.068 51.912L104.1 51.784ZM105.348 47.528L105.38 47.688L105.443 47.592L105.348 47.528ZM103.076 50.76L103.204 50.696V50.792L103.076 50.76Z" transform="translate(0.632812 0.47168)" fill="#F4ED3C"/>
</svg>
