<svg width="24" height="24" viewBox="0 0 24 24" fill="none" xmlns="http://www.w3.org/2000/svg">
<circle cx="12" cy="12" r="12" transform="translate(24) rotate(90)" fill="white"/>
<path d="M0.707107 -0.707107C0.316583 -1.09763 -0.316583 -1.09763 -0.707107 -0.707107C-1.09763 -0.316583 -1.09763 0.316583 -0.707107 0.707107L0.707107 -0.707107ZM4 4L3.29289 4.70711C3.68342 5.09763 4.31658 5.09763 4.70711 4.70711L4 4ZM8.70711 0.707107C9.09763 0.316583 9.09763 -0.316583 8.70711 -0.707107C8.31658 -1.09763 7.68342 -1.09763 7.29289 -0.707107L8.70711 0.707107ZM-0.707107 0.707107L3.29289 4.70711L4.70711 3.29289L0.707107 -0.707107L-0.707107 0.707107ZM4.70711 4.70711L8.70711 0.707107L7.29289 -0.707107L3.29289 3.29289L4.70711 4.70711Z" transform="translate(8 10)" fill="#444444"/>
</svg>
