<svg width="15" height="15" viewBox="0 0 15 15" fill="none" xmlns="http://www.w3.org/2000/svg">
<path d="M14.8481 12.0465L11.551 10.1058C11.3841 10.0223 11.1336 10.0641 10.9876 10.1893L10.0068 11.17C9.86072 11.3161 9.61031 11.4205 9.40163 11.4205C9.40163 11.4205 8.17044 11.4413 5.85413 9.12501C3.53781 6.82956 3.55868 5.5775 3.55868 5.5775C3.55868 5.38969 3.66302 5.11841 3.80909 4.97234L4.6438 4.13763C4.78987 3.99156 4.83161 3.74115 4.74814 3.57421L2.95352 0.151907C2.87005 -0.015034 2.70311 -0.0567693 2.55703 0.0893044L0.303323 2.34301C0.15725 2.46822 0.0320435 2.7395 0.0111758 2.92731C0.0111758 2.92731 -0.427045 6.2244 4.18471 10.8153C8.79647 15.427 12.0727 14.9888 12.0727 14.9888C12.2605 14.968 12.5318 14.8219 12.657 14.6967L14.9107 12.443C15.0568 12.3178 15.015 12.13 14.8481 12.0465Z" fill="white"/>
</svg>
