<svg width="36" height="16" viewBox="0 0 36 16" fill="none" xmlns="http://www.w3.org/2000/svg">
<path d="M8 16C12.4183 16 16 12.4183 16 8C16 3.58172 12.4183 0 8 0C3.58172 0 0 3.58172 0 8C0 12.4183 3.58172 16 8 16Z" fill="#C4C4C4"/>
<path d="M8 16C12.4183 16 16 12.4183 16 8C16 3.58172 12.4183 0 8 0C3.58172 0 0 3.58172 0 8C0 12.4183 3.58172 16 8 16Z" fill="url(#paint0_linear)"/>
<path d="M2 0H0V8H2V0Z" transform="translate(12 7) rotate(90)" fill="white"/>
<defs>
<linearGradient id="paint0_linear" x2="1" gradientUnits="userSpaceOnUse" gradientTransform="matrix(-16 16.087 -16.087 -16.1744 32.087 16.1744)">
<stop stop-color="#F96914"/>
<stop offset="1" stop-color="#ED1C28"/>
</linearGradient>
</defs>
</svg>
