<svg width="32" height="32" viewBox="0 0 32 32" fill="none" xmlns="http://www.w3.org/2000/svg">
<rect width="32" height="32" rx="5" fill="#40A2F5"/>
<path d="M16.1115 1.55594C15.5092 1.8069 14.9069 2.00766 14.2042 2.05785C14.9069 1.65632 15.4088 1.00383 15.6598 0.250958C15.0073 0.65249 14.3046 0.903448 13.5517 1.05402C12.9996 0.401533 12.0962 0 11.1927 0C9.38582 0 7.88008 1.45556 7.88008 3.31264C7.88008 3.5636 7.93027 3.81456 7.98046 4.06552C5.21992 3.91494 2.81073 2.60996 1.15441 0.602299C0.853257 1.10421 0.702682 1.65632 0.702682 2.25862C0.702682 3.41303 1.30498 4.41686 2.15824 5.01916C1.60613 5.01916 1.10421 4.86858 0.65249 4.61762V4.66782C0.65249 6.27395 1.8069 7.57893 3.31264 7.88008C3.01149 7.93027 2.76054 7.98046 2.45939 7.98046C2.25862 7.98046 2.05785 7.98046 1.85709 7.93027C2.25862 9.23525 3.51341 10.1889 4.91877 10.2391C3.81456 11.1425 2.359 11.6444 0.803065 11.6444C0.552107 11.6444 0.250958 11.6444 -7.47913e-10 11.5943C1.45556 12.5479 3.21226 13.1 5.06935 13.1C11.1425 13.1 14.4552 8.08084 14.4552 3.71418C14.4552 3.5636 14.4552 3.41303 14.4552 3.31264C15.1077 2.81073 15.6598 2.20843 16.1115 1.55594Z" transform="translate(8 9)" fill="white"/>
</svg>
