<svg width="32" height="32" viewBox="0 0 32 32" fill="none" xmlns="http://www.w3.org/2000/svg">
<rect width="32" height="32" rx="5" fill="#F40000"/>
<path fill-rule="evenodd" clip-rule="evenodd" d="M16.9393 1.21786C16.4411 0.332143 15.9429 0.166071 14.8911 0.110714C13.8393 0.0553571 11.1821 0 8.85714 0C6.53214 0 3.875 0.0553571 2.82321 0.110714C1.77143 0.166071 1.21786 0.332143 0.775 1.21786C0.276786 2.04821 0 3.54286 0 6.2C0 8.80179 0.276786 10.2964 0.775 11.1821C1.27321 12.0679 1.77143 12.2339 2.82321 12.2893C3.875 12.3446 6.53214 12.4 8.85714 12.4C11.1821 12.4 13.8393 12.3446 14.8911 12.2893C15.9429 12.2339 16.4964 12.0679 16.9393 11.1821C17.4375 10.2964 17.7143 8.80179 17.7143 6.2C17.7143 3.54286 17.4375 2.04821 16.9393 1.21786ZM7.08571 9.41071V2.93393L12.1232 6.2L7.08571 9.41071Z" transform="translate(7 10)" fill="white"/>
</svg>
